<svg width="48" height="48" viewBox="0 0 48 48" fill="none" xmlns="http://www.w3.org/2000/svg">
<g filter="url(#filter0_d)">
<path d="M24 40C35.0457 40 44 31.0457 44 20C44 8.95431 35.0457 0 24 0C12.9543 0 4 8.95431 4 20C4 31.0457 12.9543 40 24 40Z" fill="#A4FCE4"/>
<path opacity="0.42" d="M12.8135 13.4765L4.0665 22.2235C4.80965 30.4355 9.3415 37.255 20.4445 39.837L30.8195 29.4595C30.8502 29.4333 30.8801 29.4062 30.9088 29.3775C31.1978 29.0885 31.3602 28.6966 31.3602 28.2879C31.3602 28.1569 31.3433 28.0276 31.3111 27.9029L32.8306 26.3096H32.9389V26.2987H32.9428L35.1867 17.9242V16.9997H17.9597V13.476H17.0352L12.8135 13.4765Z" fill="url(#paint0_linear)"/>
<path d="M12.8135 13.4765V14.401H17.0345V17.9246L19.2784 26.2991H19.2822V26.31H32.9387V26.2991H32.9426L35.1864 17.9246V17.0001H17.9589V13.4764H12.8134L12.8135 13.4765ZM17.9915 17.9246H18.3038L18.6033 18.4433L18.2804 19.0027L17.9915 17.9246ZM18.6598 17.9246H18.9029L18.7813 18.1352L18.6598 17.9246H18.6598ZM19.2588 17.9246H20.153L20.4523 18.4433L19.7059 19.7366L18.9593 18.4433L19.2588 17.9246H19.2588ZM20.5088 17.9246H20.7519L20.6303 18.1352L20.5088 17.9246ZM21.1078 17.9246H22.002L22.3013 18.4433L21.5549 19.7366L20.8083 18.4433L21.1078 17.9246H21.1078ZM22.3578 17.9246H22.6009L22.4793 18.1352L22.3578 17.9246H22.3578ZM22.9568 17.9246H23.851L24.1503 18.4433L23.4039 19.7366L22.6573 18.4433L22.9568 17.9246H22.9568ZM24.2068 17.9246H24.4499L24.3283 18.1352L24.2068 17.9246ZM24.8058 17.9246H25.7L25.9993 18.4433L25.2529 19.7366L24.5063 18.4433L24.8058 17.9246H24.8058ZM26.0558 17.9246H26.2989L26.1773 18.1352L26.0558 17.9246H26.0558ZM26.6548 17.9246H27.549L27.8484 18.4433L27.1019 19.7366L26.3553 18.4433L26.6548 17.9246H26.6548ZM27.9048 17.9246H28.1479L28.0263 18.1352L27.9048 17.9246H27.9048ZM28.5038 17.9246H29.398L29.6974 18.4433L28.9509 19.7366L28.2043 18.4433L28.5038 17.9246H28.5038ZM29.7538 17.9246H29.9969L29.8754 18.1352L29.7538 17.9246ZM30.3528 17.9246H31.247L31.5464 18.4433L30.7999 19.7366L30.0533 18.4433L30.3528 17.9246H30.3528ZM31.6028 17.9246H31.8459L31.7243 18.1352L31.6028 17.9246H31.6028ZM32.2018 17.9246H33.096L33.3954 18.4433L32.6489 19.7366L31.9023 18.4433L32.2018 17.9246H32.2018ZM33.4518 17.9246H33.6949L33.5734 18.1352L33.4518 17.9246ZM34.0508 17.9246H34.2289L33.9826 18.8441L33.7513 18.4434L34.0508 17.9247V17.9246ZM18.7813 18.7515L19.5277 20.0448L18.8665 21.1903L18.3931 19.4239L18.7812 18.7516L18.7813 18.7515ZM20.6303 18.7515L21.3768 20.0448L20.6303 21.3379L19.8837 20.0448L20.6303 18.7515ZM22.4794 18.7515L23.2258 20.0448L22.4794 21.3379L21.7328 20.0448L22.4794 18.7515ZM24.3284 18.7515L25.0749 20.0448L24.3284 21.3379L23.5818 20.0448L24.3284 18.7515ZM26.1775 18.7515L26.9239 20.0448L26.1775 21.3379L25.4309 20.0448L26.1775 18.7515ZM28.0265 18.7515L28.773 20.0448L28.0265 21.3379L27.2799 20.0448L28.0265 18.7515ZM29.8756 18.7515L30.622 20.0448L29.8756 21.3379L29.129 20.0448L29.8756 18.7515ZM31.7246 18.7515L32.4711 20.0448L31.7246 21.3379L30.978 20.0448L31.7246 18.7515ZM33.5737 18.7515L33.87 19.2651L33.3968 21.0315L32.8271 20.0448L33.5737 18.7515H33.5737ZM19.7062 20.3528L20.4526 21.6461L19.7062 22.9392L19.0145 21.7412L18.9797 21.6113L19.7062 20.3529L19.7062 20.3528ZM21.5552 20.3528L22.3017 21.6461L21.5552 22.9392L20.8086 21.6461L21.5552 20.3528ZM23.4043 20.3528L24.1507 21.6461L23.4043 22.9392L22.6577 21.6461L23.4043 20.3528ZM25.2533 20.3528L25.9998 21.6461L25.2533 22.9392L24.5067 21.6461L25.2533 20.3528ZM27.1024 20.3528L27.8488 21.6461L27.1024 22.9392L26.3558 21.6461L27.1024 20.3528ZM28.9514 20.3528L29.6979 21.6461L28.9514 22.9392L28.2048 21.6461L28.9514 20.3528ZM30.8005 20.3528L31.5469 21.6461L30.8005 22.9392L30.0539 21.6461L30.8005 20.3528ZM32.6495 20.3528L33.2843 21.4526L33.0908 22.1747L32.6495 22.9392L31.9029 21.6461L32.6495 20.3529L32.6495 20.3528ZM20.631 21.9542L21.3775 23.2473L20.631 24.5404L19.8844 23.2473L20.631 21.9542ZM22.4801 21.9542L23.2265 23.2473L22.4801 24.5404L21.7335 23.2473L22.4801 21.9542ZM24.3291 21.9542L25.0756 23.2473L24.3291 24.5404L23.5825 23.2473L24.3291 21.9542ZM26.1782 21.9542L26.9246 23.2473L26.1782 24.5404L25.4316 23.2473L26.1782 21.9542ZM28.0272 21.9542L28.7737 23.2473L28.0272 24.5404L27.2806 23.2473L28.0272 21.9542ZM29.8763 21.9542L30.6227 23.2473L29.8763 24.5404L29.1297 23.2473L29.8763 21.9542ZM31.7253 21.9542L32.4718 23.2473L31.7253 24.5404L30.9787 23.2473L31.7253 21.9542ZM19.3233 22.8915L19.5288 23.2473L19.4536 23.3776L19.3233 22.8915ZM19.7068 23.5555L20.4533 24.8486L20.1434 25.3853H19.9916L19.5665 23.7986L19.7068 23.5555L19.7068 23.5555ZM21.5559 23.5555L22.3023 24.8486L21.9925 25.3853H21.1191L20.8093 24.8486L21.5559 23.5555H21.5559ZM23.4049 23.5555L24.1514 24.8486L23.8415 25.3853H22.9682L22.6583 24.8486L23.4049 23.5555H23.4049ZM25.254 23.5555L26.0004 24.8486L25.6906 25.3853H24.8172L24.5074 24.8486L25.254 23.5555H25.254ZM27.103 23.5555L27.8495 24.8486L27.5396 25.3853H26.6663L26.3564 24.8486L27.103 23.5555H27.103ZM28.9521 23.5555L29.6985 24.8486L29.3887 25.3853H28.5153L28.2055 24.8486L28.9521 23.5555H28.9521ZM30.8011 23.5555L31.5476 24.8486L31.2379 25.3853H30.3645L30.0545 24.8486L30.8011 23.5555H30.8011ZM32.6502 23.5555L32.699 23.6399L32.2313 25.3854H32.2136L31.9036 24.8486L32.6502 23.5555L32.6502 23.5555ZM20.6317 25.1568L20.7636 25.3854H20.4996L20.6317 25.1568ZM22.4807 25.1568L22.6127 25.3854H22.3488L22.4807 25.1568ZM24.3298 25.1568L24.4617 25.3854H24.1979L24.3298 25.1568ZM26.1788 25.1568L26.3108 25.3854H26.0469L26.1788 25.1568ZM28.0279 25.1568L28.1598 25.3854H27.896L28.0279 25.1568ZM29.8769 25.1568L30.0089 25.3854H29.7449L29.8769 25.1568ZM31.726 25.1568L31.8579 25.3854H31.5941L31.726 25.1568ZM22.76 26.7473C22.3513 26.7473 21.9594 26.9097 21.6704 27.1986C21.3815 27.4876 21.2191 27.8795 21.2191 28.2882C21.2191 28.6968 21.3815 29.0888 21.6704 29.3777C21.9594 29.6667 22.3513 29.829 22.76 29.829C23.1687 29.829 23.5606 29.6667 23.8495 29.3777C24.1385 29.0888 24.3008 28.6968 24.3008 28.2882C24.3008 27.8795 24.1385 27.4876 23.8495 27.1986C23.5606 26.9097 23.1687 26.7473 22.76 26.7473ZM29.8205 26.7473C29.4118 26.7473 29.0199 26.9097 28.7309 27.1986C28.442 27.4876 28.2796 27.8795 28.2796 28.2882C28.2796 28.6968 28.442 29.0888 28.7309 29.3777C29.0199 29.6667 29.4118 29.829 29.8205 29.829C30.2292 29.829 30.6211 29.6667 30.91 29.3777C31.199 29.0888 31.3613 28.6968 31.3613 28.2882C31.3613 27.8795 31.199 27.4876 30.91 27.1986C30.6211 26.9097 30.2292 26.7473 29.8205 26.7473Z" fill="white"/>
</g>
<defs>
<filter id="filter0_d" x="0" y="0" width="48" height="48" filterUnits="userSpaceOnUse" color-interpolation-filters="sRGB">
<feFlood flood-opacity="0" result="BackgroundImageFix"/>
<feColorMatrix in="SourceAlpha" type="matrix" values="0 0 0 0 0 0 0 0 0 0 0 0 0 0 0 0 0 0 127 0"/>
<feOffset dy="4"/>
<feGaussianBlur stdDeviation="2"/>
<feColorMatrix type="matrix" values="0 0 0 0 0 0 0 0 0 0 0 0 0 0 0 0 0 0 0.25 0"/>
<feBlend mode="normal" in2="BackgroundImageFix" result="effect1_dropShadow"/>
<feBlend mode="normal" in="SourceGraphic" in2="effect1_dropShadow" result="shape"/>
</filter>
<linearGradient id="paint0_linear" x1="21.712" y1="22.246" x2="7.36779" y2="36.8195" gradientUnits="userSpaceOnUse">
<stop stop-color="#0E0F0E"/>
<stop offset="0.9999" stop-color="#0E0F0E" stop-opacity="0.640625"/>
<stop offset="1" stop-color="#0E0F0E" stop-opacity="0"/>
</linearGradient>
</defs>
</svg>
