<svg width="374" height="371" viewBox="0 0 374 371" fill="none" xmlns="http://www.w3.org/2000/svg">
<circle cx="189" cy="185" r="184.5" fill="#FCFEAF" stroke="black"/>
<path d="M107.135 179.36C107.048 179.774 107.025 180.233 107.071 180.654C118.306 283.019 136.771 287.505 215.638 361.942C218.038 364.208 216.818 368.243 213.542 368.642C101.657 382.28 0.499971 292.83 0.499939 180C0.499939 86.2901 84.8279 -6.94335 207.908 0.753438C211.382 0.970702 212.765 5.2762 210.177 7.60424C121.836 87.0703 123.089 103.811 107.135 179.36Z" fill="#E7E6E1"/>
<path d="M106.574 180.708C112.194 231.911 119.629 258.727 135.58 282.053C143.549 293.707 153.631 304.473 166.636 316.968C173.395 323.463 180.961 330.44 189.438 338.257C197.254 345.465 205.846 353.388 215.295 362.306C217.408 364.3 216.309 367.801 213.481 368.146C101.894 381.748 0.999971 292.53 0.999939 180C0.999939 86.5813 85.0818 -6.4265 207.876 1.25246C210.876 1.44007 212.125 5.17923 209.843 7.23251C165.669 46.9677 143.839 71.0687 131.071 94.7133C119.878 115.44 115.663 135.8 109.424 165.934C108.546 170.172 107.629 174.604 106.646 179.257C106.548 179.723 106.522 180.235 106.574 180.708Z" stroke="black" stroke-opacity="0.82"/>
</svg>
