<svg width="40" height="40" viewBox="0 0 40 40" fill="none" xmlns="http://www.w3.org/2000/svg">
<path d="M20 40C31.0457 40 40 31.0457 40 20C40 8.95431 31.0457 0 20 0C8.95431 0 0 8.95431 0 20C0 31.0457 8.95431 40 20 40Z" fill="#A4FCE4"/>
<path opacity="0.42" d="M20 9.58398L13.7905 15.2045C9.09225 19.345 4.9735 23.395 1.03 27.4275C3.816 34.803 9.204 39.5465 18.852 39.9805L28.321 30.5115V21.486L30.6777 19.2472L26.2103 15.2044L20 9.58398Z" fill="url(#paint0_linear)"/>
<path d="M20 9.58398L13.7905 15.2045L9.32184 19.2474H10.8256L14.9177 15.5448L19.9997 10.9429L25.0832 15.5448L29.1753 19.2474H30.6778L26.2104 15.2045L20 9.58398ZM20 11.7167L15.8406 15.4826L11.68 19.2473V30.5113H17.209V21.7748H22.7925V30.5113H28.3215V19.2473L24.1608 15.4826L20 11.7167ZM18.3021 22.8892V30.5117H21.6979V22.8892H18.3021Z" fill="white"/>
<defs>
<linearGradient id="paint0_linear" x1="20.1305" y1="20.7395" x2="2.93301" y2="39.556" gradientUnits="userSpaceOnUse">
<stop/>
<stop offset="1" stop-opacity="0"/>
</linearGradient>
</defs>
</svg>
