<svg width="374" height="234" viewBox="0 0 374 234" fill="none" xmlns="http://www.w3.org/2000/svg">
<path d="M39 193C67 193 81.5 195.5 161.5 200.5L373 193V205.5H271L171 211L88.5 219.5L1 233L104 211L145 205.5L39 193Z" fill="#3C2020" stroke="black"/>
<path d="M292.5 122C292.5 161.516 262.253 193.5 225 193.5C187.747 193.5 157.5 161.516 157.5 122C157.5 82.4843 187.747 50.5 225 50.5C262.253 50.5 292.5 82.4843 292.5 122Z" fill="#DEFAFC" stroke="black"/>
<path d="M247.435 31.9677L282.674 13.5593L277.428 52.9688L247.435 31.9677Z" fill="#ACC6C4" stroke="black"/>
<path d="M173.963 52.9688L168.717 13.5593L203.956 31.9677L173.963 52.9688Z" fill="#ACC6C4" stroke="black"/>
<path d="M281.5 69C281.5 92.9152 256.552 112.5 225.5 112.5C194.448 112.5 169.5 92.9152 169.5 69C169.5 45.0848 194.448 25.5 225.5 25.5C256.552 25.5 281.5 45.0848 281.5 69Z" fill="#ACC6C4" stroke="black"/>
<path d="M273 66.8485C273 82.3125 248.5 93.3485 225 86.3485C199.5 92.3485 177 82.3125 177 66.8485C177 51.3846 206 36.8485 225 47.8485C245.5 37.8485 273 51.3846 273 66.8485Z" fill="#D2CFB3"/>
<path d="M225.143 85.8693L225.015 85.8313L224.885 85.8618C212.222 88.8416 200.331 87.8315 191.631 84.1864C182.92 80.537 177.5 74.3013 177.5 66.8485C177.5 63.1423 179.239 59.448 182.201 56.1427C185.16 52.8395 189.316 49.9554 194.075 47.883C203.603 43.7329 215.428 42.8844 224.749 48.2812L224.98 48.4147L225.219 48.2979C235.311 43.3749 247.156 44.2365 256.49 48.2587C265.858 52.2957 272.5 59.4161 272.5 66.8485C272.5 74.2897 266.595 80.7809 257.618 84.5617C248.664 88.3331 236.783 89.3368 225.143 85.8693Z" stroke="black" stroke-opacity="0.3"/>
<circle cx="203" cy="66" r="15.5" fill="#F8EE9D" stroke="black"/>
<path d="M269.5 156.5C269.5 165.274 264.577 173.262 256.527 179.076C248.478 184.889 237.333 188.5 225 188.5C212.667 188.5 201.522 184.889 193.473 179.076C185.423 173.262 180.5 165.274 180.5 156.5C180.5 147.726 185.423 139.738 193.473 133.924C201.522 128.111 212.667 124.5 225 124.5C237.333 124.5 248.478 128.111 256.527 133.924C264.577 139.738 269.5 147.726 269.5 156.5Z" fill="#D2CFB3" stroke="black"/>
<path d="M225.444 122L210 82.6515L225.444 73L240 82.6515L225.444 122Z" fill="#8D6D4F"/>
<circle cx="247" cy="66" r="15.5" fill="#F8EE9D" stroke="black"/>
<path d="M168.835 90C181.2 94.8859 173.808 113.762 173.808 178.5C170.554 175.446 162.327 164.021 162.327 152.295L159.073 169.396C157.771 168.174 151.914 154.86 151.914 140.691L148.73 159.213C148.926 159.761 148.933 159.913 148.659 159.624L148.73 159.213C147.684 156.29 141.261 142.106 143.453 123.591C145.597 105.482 155.818 90 168.835 90Z" fill="#ACC6C4"/>
<path d="M173.808 178.5C173.808 113.762 181.2 94.8859 168.835 90C155.818 90 145.597 105.482 143.453 123.591C140.85 145.577 150.395 161.456 148.659 159.624L151.914 140.691C151.914 154.86 157.771 168.174 159.073 169.396L162.327 152.295C162.327 164.021 170.554 175.446 173.808 178.5Z" stroke="black"/>
<path d="M281.165 90C268.8 94.8859 276.192 113.762 276.192 178.5C279.446 175.446 287.673 164.021 287.673 152.295L290.927 169.396C292.229 168.174 298.086 154.86 298.086 140.691L301.27 159.213C301.074 159.761 301.067 159.913 301.341 159.624L301.27 159.213C302.316 156.29 308.739 142.106 306.547 123.591C304.403 105.482 294.182 90 281.165 90Z" fill="#ACC6C4"/>
<path d="M276.192 178.5C276.192 113.762 268.8 94.8859 281.165 90C294.182 90 304.403 105.482 306.547 123.591C309.15 145.577 299.605 161.456 301.341 159.624L298.086 140.691C298.086 154.86 292.229 168.174 290.927 169.396L287.673 152.295C287.673 164.021 279.446 175.446 276.192 178.5Z" stroke="black"/>
<circle cx="203" cy="66" r="7" fill="black"/>
<circle cx="247" cy="66" r="7" fill="black"/>
<path d="M234.056 202.056L233.566 201.165L233.159 202.097L229.923 209.519C229.655 208.905 229.301 208.022 228.946 206.927C228.222 204.691 227.5 201.582 227.5 198.081C227.5 194.716 229.126 192.601 231.424 191.3C233.754 189.981 236.782 189.5 239.5 189.5C242.187 189.5 245.217 190.212 247.56 191.655C249.892 193.093 251.5 195.221 251.5 198.081C251.5 201.106 250.692 204.208 249.873 206.57C249.465 207.748 249.057 208.734 248.751 209.424C248.737 209.457 248.723 209.488 248.709 209.519L245.473 202.097L245.052 201.133L244.57 202.068L239.486 211.936L234.056 202.056Z" fill="#D08B04" stroke="black"/>
<path d="M205.056 202.056L204.566 201.165L204.159 202.097L200.923 209.519C200.655 208.905 200.301 208.022 199.946 206.927C199.222 204.691 198.5 201.582 198.5 198.081C198.5 194.716 200.126 192.601 202.424 191.3C204.754 189.981 207.782 189.5 210.5 189.5C213.187 189.5 216.217 190.212 218.56 191.655C220.892 193.093 222.5 195.221 222.5 198.081C222.5 201.106 221.692 204.208 220.873 206.57C220.465 207.748 220.057 208.734 219.751 209.424C219.737 209.457 219.723 209.488 219.709 209.519L216.473 202.097L216.052 201.133L215.57 202.068L210.486 211.936L205.056 202.056Z" fill="#D08B04" stroke="black"/>
</svg>
