<svg width="61" height="49" viewBox="0 0 61 49" fill="none" xmlns="http://www.w3.org/2000/svg">
<g filter="url(#filter0_d)">
<path d="M7.51602 24.2658C3.98076 22.9998 3.98075 18.0002 7.51602 16.7342L50.9014 1.19772C53.507 0.264664 56.25 2.19597 56.25 4.96354V36.0365C56.25 38.804 53.507 40.7353 50.9014 39.8023L7.51602 24.2658Z" fill="#A4FCE4"/>
<path d="M7.51602 24.2658C3.98076 22.9998 3.98075 18.0002 7.51602 16.7342L50.9014 1.19772C53.507 0.264664 56.25 2.19597 56.25 4.96354V36.0365C56.25 38.804 53.507 40.7353 50.9014 39.8023L7.51602 24.2658Z" fill="url(#paint0_linear)"/>
<path d="M7.68459 23.7951C4.59124 22.6874 4.59123 18.3126 7.68459 17.2049L51.07 1.66844C53.3499 0.852024 55.75 2.54192 55.75 4.96354V36.0365C55.75 38.4581 53.3499 40.148 51.07 39.3316L7.68459 23.7951Z" stroke="black"/>
</g>
<defs>
<filter id="filter0_d" x="0.864563" y="0.96014" width="59.3854" height="47.0797" filterUnits="userSpaceOnUse" color-interpolation-filters="sRGB">
<feFlood flood-opacity="0" result="BackgroundImageFix"/>
<feColorMatrix in="SourceAlpha" type="matrix" values="0 0 0 0 0 0 0 0 0 0 0 0 0 0 0 0 0 0 127 0"/>
<feOffset dy="4"/>
<feGaussianBlur stdDeviation="2"/>
<feColorMatrix type="matrix" values="0 0 0 0 0 0 0 0 0 0 0 0 0 0 0 0 0 0 0.25 0"/>
<feBlend mode="normal" in2="BackgroundImageFix" result="effect1_dropShadow"/>
<feBlend mode="normal" in="SourceGraphic" in2="effect1_dropShadow" result="shape"/>
</filter>
<linearGradient id="paint0_linear" x1="-3" y1="20.5" x2="76" y2="20.5" gradientUnits="userSpaceOnUse">
<stop offset="0.526042" stop-color="#A4FCE4" stop-opacity="0.33"/>
<stop offset="0.994792" stop-opacity="0.42"/>
</linearGradient>
</defs>
</svg>
