<svg width="172" height="158" viewBox="0 0 172 158" fill="none" xmlns="http://www.w3.org/2000/svg">
<g filter="url(#filter0_d)">
<path d="M118.115 110.026C115.674 108.468 112.953 107.271 110.02 106.874C110.295 106.806 110.571 106.739 110.849 106.673L110.932 106.653L111.014 106.63C112.877 106.112 114.971 106.497 117.747 108.326C120.577 110.19 123.541 113.191 126.79 116.905C132.873 124.588 139.329 131.512 146.295 136.183L146.324 136.203L146.353 136.222C150.545 138.942 154.835 140.001 159.063 139.835L158.969 140.042C158.745 140.198 158.583 140.307 158.441 140.394C158.413 140.412 158.388 140.427 158.366 140.44L158.165 140.478C154.231 141.232 150.465 140.703 146.622 138.139C140.855 134.043 135.148 127.624 129.166 120.208L129.105 120.131L129.04 120.057C125.715 116.275 122.065 112.547 118.115 110.026Z" stroke="black" stroke-width="9.296" stroke-linecap="round"/>
<path d="M145.879 75C145.879 93.9977 138.564 112.196 125.576 125.597C112.591 138.994 95.0038 146.5 76.6895 146.5C58.3753 146.5 40.7882 138.994 27.8036 125.597C14.8153 112.196 7.5 93.9977 7.5 75C7.5 56.0023 14.8153 37.8039 27.8036 24.4028C40.7882 11.0055 58.3753 3.5 76.6895 3.5C95.0038 3.5 112.591 11.0055 125.576 24.4029C138.564 37.8039 145.879 56.0023 145.879 75Z" stroke="black" stroke-width="7" stroke-linecap="round"/>
<mask id="path-3-inside-1" fill="white">
<path d="M37.0743 12.4246C37.0743 12.4246 62.2642 8.99249 84.1073 10.7262C105.951 12.4599 124.447 19.3594 124.447 19.3594"/>
</mask>
<path d="M84.1073 10.7262L83.4768 18.6692L83.4768 18.6692L84.1073 10.7262ZM37.0743 12.4246C38.15 20.3197 38.1494 20.3198 38.1489 20.3198C38.1488 20.3198 38.1484 20.3199 38.1483 20.3199C38.1481 20.3199 38.1483 20.3199 38.1489 20.3198C38.1501 20.3197 38.1527 20.3193 38.1569 20.3188C38.1652 20.3176 38.1796 20.3157 38.1998 20.313C38.2403 20.3076 38.3044 20.2991 38.3912 20.2878C38.5648 20.2652 38.8291 20.2314 39.1773 20.1883C39.8738 20.1022 40.9048 19.9794 42.2151 19.8365C44.8375 19.5506 48.5676 19.1856 52.9642 18.8732C61.8148 18.2445 73.1252 17.8476 83.4768 18.6692L84.7377 2.78317C73.2463 1.87109 61.0401 2.32339 51.835 2.9773C47.2038 3.3063 43.2712 3.69095 40.4879 3.99439C39.0953 4.14621 37.9877 4.27801 37.2213 4.37279C36.8381 4.42019 36.5399 4.45837 36.3338 4.4852C36.2308 4.49861 36.1507 4.50919 36.0946 4.51668C36.0665 4.52042 36.0444 4.52339 36.0283 4.52555C36.0203 4.52663 36.0138 4.52751 36.0089 4.52818C36.0064 4.52852 36.0043 4.5288 36.0026 4.52904C36.0017 4.52915 36.0007 4.52929 36.0003 4.52935C35.9994 4.52947 35.9986 4.52958 37.0743 12.4246ZM83.4768 18.6692C93.7822 19.4871 103.377 21.5338 110.435 23.397C113.95 24.3249 116.801 25.1981 118.755 25.8327C119.731 26.1498 120.482 26.4066 120.977 26.5798C121.224 26.6665 121.407 26.7321 121.523 26.774C121.581 26.7949 121.621 26.8098 121.645 26.8185C121.657 26.8228 121.664 26.8255 121.667 26.8266C121.668 26.8271 121.669 26.8273 121.668 26.827C121.668 26.8269 121.667 26.8266 121.666 26.8263C121.666 26.8261 121.665 26.8258 121.665 26.8257C121.664 26.8253 121.663 26.825 124.447 19.3594C127.232 11.8939 127.231 11.8935 127.23 11.893C127.229 11.8928 127.228 11.8923 127.227 11.892C127.225 11.8912 127.223 11.8903 127.22 11.8894C127.215 11.8874 127.208 11.885 127.201 11.8823C127.186 11.8767 127.166 11.8695 127.142 11.8607C127.095 11.8431 127.029 11.8191 126.946 11.7891C126.78 11.729 126.544 11.6448 126.243 11.5393C125.641 11.3285 124.776 11.0327 123.677 10.6759C121.481 9.96261 118.342 9.00261 114.503 7.9889C106.851 5.96888 96.2761 3.69895 84.7377 2.78317L83.4768 18.6692Z" fill="black" mask="url(#path-3-inside-1)"/>
<mask id="path-5-inside-2" fill="white">
<path d="M5.30048 62.859C5.30048 62.859 41.8092 57.7939 77.3998 60.3157C112.99 62.8374 147.666 72.9459 147.666 72.9459"/>
</mask>
<path d="M77.3998 60.3157L76.8366 68.2638H76.8366L77.3998 60.3157ZM5.30048 62.859C6.39543 70.7514 6.3948 70.7515 6.3943 70.7515C6.39432 70.7515 6.39397 70.7516 6.39401 70.7516C6.39408 70.7516 6.39471 70.7515 6.39589 70.7513C6.39826 70.751 6.40282 70.7504 6.40957 70.7494C6.42306 70.7476 6.44529 70.7445 6.47611 70.7404C6.53775 70.732 6.63376 70.7191 6.76299 70.702C7.02145 70.6679 7.41274 70.6171 7.92774 70.5526C8.95787 70.4238 10.4822 70.2406 12.4279 70.0277C16.321 69.6016 21.8921 69.0573 28.5605 68.5902C41.9356 67.6532 59.5537 67.0392 76.8366 68.2638L77.9629 52.3676C59.6552 51.0704 41.2237 51.728 27.4468 52.6931C20.5392 53.177 14.7588 53.7414 10.6942 54.1862C8.66115 54.4087 7.05517 54.6016 5.9497 54.7399C5.39691 54.809 4.96907 54.8646 4.67536 54.9034C4.5285 54.9228 4.41516 54.938 4.33648 54.9487C4.29713 54.954 4.26645 54.9582 4.24458 54.9612C4.23364 54.9627 4.22491 54.9639 4.21839 54.9648C4.21513 54.9652 4.21243 54.9656 4.21028 54.9659C4.20921 54.966 4.20802 54.9662 4.20748 54.9663C4.20643 54.9664 4.20552 54.9666 5.30048 62.859ZM76.8366 68.2638C94.1163 69.4881 111.28 72.5659 124.192 75.3637C130.63 76.7588 135.972 78.0754 139.692 79.04C141.552 79.5221 143.004 79.9158 143.984 80.1866C144.473 80.322 144.845 80.4266 145.09 80.4962C145.212 80.531 145.303 80.5571 145.361 80.5738C145.39 80.5821 145.411 80.5882 145.424 80.5918C145.43 80.5936 145.434 80.5949 145.436 80.5955C145.437 80.5958 145.438 80.596 145.438 80.596C145.438 80.596 145.437 80.5958 145.437 80.5958C145.437 80.5957 145.436 80.5955 147.666 72.9459C149.896 65.2963 149.895 65.2961 149.894 65.2957C149.894 65.2956 149.892 65.2953 149.891 65.2949C149.889 65.2943 149.887 65.2936 149.884 65.2927C149.877 65.2908 149.869 65.2884 149.858 65.2853C149.837 65.2792 149.808 65.2707 149.77 65.2599C149.695 65.2382 149.587 65.2072 149.446 65.1673C149.166 65.0876 148.758 64.9726 148.23 64.8267C147.174 64.5348 145.639 64.1191 143.692 63.6141C139.798 62.6046 134.246 61.2365 127.567 59.7892C114.244 56.9023 96.2738 53.665 77.9629 52.3676L76.8366 68.2638Z" fill="black" mask="url(#path-5-inside-2)"/>
<mask id="path-7-inside-3" fill="white">
<path d="M11.4105 47.7303C11.4105 47.7303 44.2563 41.6816 78.0147 43.8879C111.773 46.0944 146.445 56.5563 146.445 56.5563"/>
</mask>
<path d="M78.0147 43.8879L78.5344 35.9369L78.5343 35.9369L78.0147 43.8879ZM11.4105 47.7303C12.8536 55.5666 12.8528 55.5667 12.8521 55.5668C12.852 55.5669 12.8514 55.567 12.8513 55.567C12.851 55.567 12.8513 55.567 12.852 55.5669C12.8534 55.5666 12.8568 55.566 12.8622 55.565C12.873 55.563 12.8916 55.5597 12.918 55.5549C12.9707 55.5454 13.0544 55.5305 13.1679 55.5105C13.3951 55.4705 13.7421 55.4105 14.201 55.3338C15.1189 55.1804 16.484 54.9607 18.2341 54.7022C21.7362 54.1851 26.7703 53.5145 32.8418 52.9106C45.0228 51.6991 61.2043 50.7743 77.495 51.8389L78.5343 35.9369C61.0667 34.7953 43.9461 35.7916 31.2646 37.0529C24.9049 37.6854 19.6177 38.3891 15.9062 38.9372C14.0496 39.2113 12.5848 39.4469 11.5746 39.6157C11.0695 39.7001 10.6778 39.7678 10.4073 39.8154C10.2721 39.8392 10.1672 39.8579 10.0936 39.8712C10.0567 39.8778 10.0277 39.8831 10.0067 39.8869C9.99615 39.8888 9.98761 39.8904 9.98106 39.8916C9.97779 39.8922 9.97501 39.8927 9.97274 39.8931C9.97161 39.8933 9.97028 39.8936 9.96971 39.8937C9.96851 39.8939 9.96744 39.8941 11.4105 47.7303ZM77.495 51.8389C93.8004 52.9047 110.463 55.9792 123.145 58.8243C129.463 60.2416 134.742 61.5906 138.432 62.5821C140.276 63.0776 141.72 63.4832 142.695 63.7625C143.183 63.9022 143.553 64.0102 143.798 64.0821C143.92 64.118 144.01 64.1449 144.068 64.1622C144.097 64.1708 144.118 64.177 144.13 64.1808C144.137 64.1827 144.141 64.1839 144.143 64.1846C144.144 64.1849 144.145 64.185 144.145 64.185C144.145 64.185 144.144 64.1849 144.144 64.1849C144.144 64.1848 144.143 64.1846 146.445 56.5563C148.747 48.928 148.746 48.9277 148.745 48.9274C148.744 48.9272 148.743 48.9268 148.742 48.9265C148.74 48.9259 148.737 48.9251 148.734 48.9241C148.728 48.9222 148.719 48.9197 148.709 48.9166C148.688 48.9102 148.658 48.9014 148.62 48.8902C148.545 48.8678 148.437 48.8356 148.297 48.7944C148.017 48.7119 147.609 48.5931 147.083 48.4423C146.03 48.1409 144.502 47.7119 142.568 47.1921C138.701 46.1531 133.203 44.7487 126.633 43.2748C113.54 40.3373 95.9873 37.0776 78.5344 35.9369L77.495 51.8389Z" fill="black" mask="url(#path-7-inside-3)"/>
<mask id="path-9-inside-4" fill="white">
<path d="M21.1868 29.4466C21.1868 29.4466 51.5797 25.4172 81.0601 27.6235C110.541 29.83 139.111 38.2725 139.111 38.2725"/>
</mask>
<path d="M81.0601 27.6235L81.6548 19.6777L81.6548 19.6777L81.0601 27.6235ZM21.1868 29.4466C22.234 37.3454 22.2333 37.3455 22.2328 37.3456C22.2328 37.3456 22.2324 37.3457 22.2323 37.3457C22.2322 37.3457 22.2326 37.3456 22.2334 37.3455C22.235 37.3453 22.2385 37.3448 22.2438 37.3442C22.2544 37.3428 22.2722 37.3404 22.2972 37.3372C22.3472 37.3307 22.4258 37.3206 22.532 37.3073C22.7444 37.2805 23.0673 37.2405 23.4929 37.1898C24.3444 37.0883 25.6064 36.9441 27.2183 36.7769C30.4435 36.4424 35.0605 36.0171 40.5838 35.659C51.6691 34.9402 66.2338 34.5042 80.4654 35.5693L81.6548 19.6777C66.406 18.5365 51.0341 19.012 39.5528 19.7563C33.7928 20.1298 28.969 20.5739 25.5743 20.9259C23.8762 21.1021 22.5335 21.2554 21.6077 21.3657C21.1447 21.4208 20.7858 21.4653 20.5386 21.4964C20.415 21.512 20.3193 21.5243 20.2525 21.5329C20.2191 21.5373 20.1929 21.5407 20.174 21.5431C20.1646 21.5444 20.157 21.5454 20.1512 21.5461C20.1484 21.5465 20.146 21.5468 20.144 21.5471C20.143 21.5472 20.1419 21.5474 20.1414 21.5474C20.1404 21.5476 20.1396 21.5477 21.1868 29.4466ZM80.4654 35.5693C94.693 36.6341 108.805 39.2157 119.426 41.5567C124.719 42.7233 129.106 43.8214 132.159 44.6246C133.684 45.026 134.874 45.3531 135.675 45.5776C136.075 45.6898 136.378 45.7764 136.577 45.8336C136.676 45.8622 136.749 45.8835 136.795 45.897C136.819 45.9038 136.835 45.9086 136.845 45.9114C136.849 45.9128 136.853 45.9138 136.854 45.9142C136.855 45.9144 136.855 45.9144 136.855 45.9144C136.855 45.9144 136.854 45.9142 136.854 45.9142C136.854 45.914 136.853 45.9138 139.111 38.2725C141.369 30.6312 141.368 30.6309 141.367 30.6306C141.367 30.6305 141.366 30.6301 141.365 30.6299C141.363 30.6293 141.36 30.6286 141.358 30.6278C141.352 30.6261 141.345 30.624 141.336 30.6213C141.317 30.616 141.293 30.6087 141.261 30.5994C141.197 30.5809 141.106 30.5545 140.989 30.5207C140.755 30.4532 140.415 30.3562 139.977 30.2333C139.1 29.9874 137.827 29.6378 136.214 29.2132C132.988 28.3644 128.39 27.214 122.856 25.9942C111.822 23.5624 96.9086 20.8194 81.6548 19.6777L80.4654 35.5693Z" fill="black" mask="url(#path-9-inside-4)"/>
<mask id="path-11-inside-5" fill="white">
<path d="M74.9568 60.9679C74.9568 60.9679 78.2498 83.4052 76.1112 105.154C73.9727 126.904 66.4026 147.966 66.4026 147.966"/>
</mask>
<path d="M76.1112 105.154L68.1814 104.375L68.1814 104.375L76.1112 105.154ZM74.9568 60.9679C67.0732 62.1249 67.0731 62.1241 67.073 62.1234C67.073 62.1233 67.0729 62.1226 67.0729 62.1224C67.0728 62.1218 67.0728 62.1217 67.0728 62.1218C67.0728 62.1221 67.0731 62.1238 67.0735 62.1268C67.0744 62.1328 67.076 62.1442 67.0784 62.1608C67.0831 62.194 67.0908 62.2483 67.1012 62.3229C67.122 62.4721 67.1534 62.7026 67.1935 63.0086C67.2736 63.6209 67.3881 64.5348 67.52 65.7057C67.7841 68.0493 68.117 71.4116 68.3857 75.4359C68.9259 83.5296 69.1918 94.0993 68.1814 104.375L84.041 105.934C85.1692 94.4604 84.8578 82.9368 84.2863 74.3745C83.999 70.0708 83.6423 66.4645 83.3558 63.9214C83.2124 62.6489 83.0863 61.6401 82.9947 60.9403C82.9489 60.5904 82.9117 60.3175 82.8853 60.1275C82.872 60.0324 82.8615 59.958 82.8539 59.905C82.8501 59.8785 82.8471 59.8574 82.8448 59.8417C82.8437 59.8338 82.8427 59.8273 82.842 59.8222C82.8416 59.8196 82.8413 59.8174 82.841 59.8155C82.8409 59.8145 82.8407 59.8134 82.8406 59.8129C82.8405 59.8119 82.8403 59.8109 74.9568 60.9679ZM68.1814 104.375C67.1713 114.648 64.8601 124.885 62.7634 132.636C61.7207 136.49 60.744 139.683 60.0323 141.9C59.6767 143.007 59.3881 143.868 59.1916 144.444C59.0933 144.732 59.0181 144.948 58.9692 145.087C58.9447 145.157 58.9268 145.208 58.9158 145.239C58.9103 145.254 58.9066 145.265 58.9047 145.27C58.9037 145.273 58.9031 145.274 58.9031 145.274C58.903 145.275 58.9031 145.274 58.9033 145.274C58.9034 145.274 58.9036 145.273 58.9037 145.273C58.9039 145.272 58.9042 145.271 66.4026 147.966C73.901 150.661 73.9013 150.66 73.9017 150.659C73.9018 150.659 73.9022 150.658 73.9026 150.657C73.9032 150.655 73.904 150.653 73.9049 150.651C73.9066 150.646 73.9088 150.639 73.9115 150.632C73.9169 150.617 73.924 150.597 73.9329 150.572C73.9507 150.522 73.9756 150.451 74.0071 150.362C74.07 150.182 74.1596 149.924 74.2725 149.594C74.4983 148.933 74.8178 147.978 75.2054 146.771C75.9799 144.359 77.0293 140.927 78.1465 136.797C80.3694 128.58 82.9125 117.411 84.041 105.934L68.1814 104.375Z" fill="black" mask="url(#path-11-inside-5)"/>
<mask id="path-13-inside-6" fill="white">
<path d="M90.8415 61.5984C90.8415 61.5984 95.0202 82.7529 93.0344 104.503C91.0487 126.253 82.8985 148.597 82.8985 148.597"/>
</mask>
<path d="M93.0344 104.503L100.969 105.227L100.969 105.227L93.0344 104.503ZM90.8415 61.5984C83.0246 63.1425 83.0244 63.1415 83.0242 63.1405C83.0241 63.1403 83.024 63.1395 83.0239 63.1391C83.0237 63.1383 83.0236 63.1378 83.0236 63.1376C83.0235 63.1372 83.0237 63.1381 83.0241 63.1403C83.025 63.1446 83.0268 63.154 83.0296 63.1683C83.0351 63.197 83.0444 63.2455 83.0571 63.3132C83.0825 63.4485 83.1217 63.6606 83.1722 63.9445C83.2731 64.5123 83.4189 65.3661 83.5898 66.4662C83.9317 68.6685 84.3721 71.8462 84.7538 75.683C85.5213 83.3999 86.0303 93.5823 85.0994 103.778L100.969 105.227C102.024 93.6734 101.437 82.4036 100.612 74.1057C100.197 69.9352 99.7165 66.4649 99.3371 64.021C99.1472 62.7981 98.982 61.8293 98.8622 61.1552C98.8023 60.8181 98.7536 60.5545 98.7188 60.3694C98.7014 60.2768 98.6875 60.2039 98.6773 60.1511C98.6723 60.1248 98.6681 60.1035 98.665 60.0873C98.6634 60.0792 98.6621 60.0724 98.661 60.0669C98.6604 60.0642 98.66 60.0617 98.6595 60.0596C98.6593 60.0586 98.6591 60.0573 98.659 60.0567C98.6587 60.0555 98.6585 60.0543 90.8415 61.5984ZM85.0994 103.778C84.1666 113.995 81.7628 124.514 79.5395 132.592C78.4353 136.603 77.392 139.955 76.6287 142.292C76.2474 143.46 75.9369 144.371 75.7249 144.982C75.6189 145.288 75.5376 145.518 75.4844 145.667C75.4578 145.742 75.4383 145.796 75.4262 145.83C75.4202 145.846 75.416 145.858 75.4138 145.864C75.4127 145.867 75.412 145.869 75.4119 145.869C75.4118 145.869 75.4119 145.869 75.412 145.869C75.4121 145.869 75.4124 145.868 75.4124 145.868C75.4126 145.867 75.4129 145.866 82.8985 148.597C90.3841 151.327 90.3844 151.326 90.3848 151.325C90.385 151.325 90.3854 151.324 90.3857 151.323C90.3864 151.321 90.3872 151.319 90.3881 151.316C90.3899 151.311 90.3922 151.305 90.395 151.297C90.4006 151.282 90.4082 151.261 90.4177 151.234C90.4366 151.182 90.463 151.108 90.4966 151.014C90.5638 150.825 90.6596 150.554 90.7803 150.206C91.0217 149.51 91.3635 148.506 91.7773 147.239C92.6042 144.707 93.7226 141.113 94.9041 136.821C97.2524 128.289 99.9165 116.76 100.969 105.227L85.0994 103.778Z" fill="black" mask="url(#path-13-inside-6)"/>
<mask id="path-15-inside-7" fill="white">
<path d="M106.73 63.4895C106.73 63.4895 111.26 82.7532 109.58 103.242C107.899 123.731 100.009 145.445 100.009 145.445"/>
</mask>
<path d="M109.58 103.242L101.638 102.591L101.638 102.591L109.58 103.242ZM106.73 63.4895C98.9733 65.3136 98.9731 65.3125 98.9728 65.3114C98.9728 65.3112 98.9725 65.3102 98.9724 65.3096C98.9722 65.3086 98.972 65.3079 98.9719 65.3074C98.9717 65.3065 98.9717 65.3067 98.9721 65.3081C98.9727 65.3109 98.9744 65.3183 98.9771 65.3301C98.9826 65.3538 98.9921 65.3956 99.0054 65.4549C99.032 65.5734 99.0736 65.7617 99.1276 66.0156C99.2357 66.5234 99.3932 67.2923 99.5797 68.2874C99.9531 70.2796 100.44 73.1665 100.878 76.6712C101.76 83.7227 102.419 93.0755 101.638 102.591L117.521 103.893C118.421 92.9198 117.655 82.3964 116.691 74.6937C116.207 70.8214 115.667 67.6118 115.243 65.3518C115.031 64.2208 114.848 63.3246 114.715 62.699C114.648 62.386 114.594 62.1405 114.555 61.9668C114.536 61.88 114.52 61.8111 114.508 61.7607C114.502 61.7355 114.498 61.7149 114.494 61.699C114.492 61.691 114.491 61.6842 114.489 61.6786C114.489 61.6758 114.488 61.6733 114.487 61.6711C114.487 61.67 114.487 61.6686 114.487 61.668C114.486 61.6667 114.486 61.6654 106.73 63.4895ZM101.638 102.591C100.855 112.142 98.5992 122.162 96.4777 129.927C95.4254 133.779 94.4245 137.01 93.6903 139.268C93.3236 140.396 93.0244 141.278 92.82 141.869C92.7179 142.165 92.6395 142.387 92.5883 142.532C92.5627 142.604 92.5439 142.656 92.5323 142.689C92.5265 142.705 92.5225 142.716 92.5204 142.722C92.5194 142.724 92.5188 142.726 92.5187 142.726C92.5186 142.727 92.5187 142.726 92.5188 142.726C92.5189 142.726 92.5191 142.725 92.5192 142.725C92.5194 142.724 92.5197 142.723 100.009 145.445C107.497 148.166 107.498 148.166 107.498 148.165C107.498 148.164 107.499 148.163 107.499 148.162C107.5 148.16 107.5 148.158 107.501 148.156C107.503 148.151 107.505 148.144 107.508 148.137C107.514 148.122 107.521 148.101 107.53 148.076C107.549 148.024 107.574 147.953 107.607 147.861C107.672 147.677 107.765 147.413 107.882 147.075C108.115 146.399 108.446 145.424 108.845 144.196C109.643 141.742 110.72 138.265 111.85 134.127C114.094 125.913 116.624 114.831 117.521 103.893L101.638 102.591Z" fill="black" mask="url(#path-15-inside-7)"/>
<mask id="path-17-inside-8" fill="white">
<path d="M123.226 66.6414C123.226 66.6414 126.826 80.0469 125.146 97.5417C123.466 115.036 116.504 136.621 116.504 136.621"/>
</mask>
<path d="M125.146 97.5417L133.077 98.3035L133.077 98.3034L125.146 97.5417ZM123.226 66.6414C115.53 68.7082 115.53 68.7065 115.529 68.705C115.529 68.7045 115.529 68.703 115.529 68.7021C115.528 68.7003 115.528 68.6987 115.527 68.6972C115.527 68.6944 115.526 68.6923 115.526 68.6911C115.525 68.6886 115.525 68.6892 115.526 68.6931C115.528 68.7007 115.533 68.7208 115.542 68.7533C115.558 68.8182 115.586 68.932 115.625 69.0927C115.701 69.414 115.816 69.9217 115.954 70.5978C116.229 71.9513 116.592 73.9715 116.909 76.5162C117.545 81.6223 117.986 88.7454 117.214 96.7799L133.077 98.3034C133.986 88.8432 133.467 80.5161 132.723 74.5457C132.35 71.5522 131.917 69.1276 131.57 67.4208C131.396 66.5668 131.243 65.8905 131.129 65.4104C131.072 65.1703 131.025 64.9791 130.989 64.8391C130.972 64.7691 130.957 64.7118 130.945 64.6676C130.94 64.6456 130.935 64.6267 130.931 64.6112C130.929 64.6034 130.927 64.5965 130.925 64.5904C130.924 64.5873 130.923 64.5845 130.923 64.5818C130.922 64.5805 130.922 64.5787 130.922 64.578C130.921 64.5763 130.921 64.5746 123.226 66.6414ZM117.214 96.7799C116.433 104.914 114.392 114.217 112.478 121.657C111.531 125.34 110.635 128.491 109.977 130.717C109.649 131.828 109.38 132.706 109.196 133.3C109.104 133.596 109.033 133.822 108.987 133.97C108.963 134.044 108.946 134.099 108.935 134.133C108.929 134.15 108.925 134.163 108.923 134.17C108.922 134.173 108.921 134.176 108.921 134.177C108.921 134.177 108.921 134.177 108.921 134.177C108.921 134.177 108.921 134.177 108.921 134.177C108.921 134.176 108.921 134.176 116.504 136.621C124.088 139.067 124.088 139.066 124.088 139.065C124.088 139.065 124.089 139.064 124.089 139.063C124.089 139.062 124.09 139.06 124.091 139.058C124.092 139.054 124.094 139.048 124.096 139.041C124.101 139.027 124.107 139.008 124.114 138.984C124.13 138.936 124.152 138.867 124.18 138.779C124.235 138.603 124.316 138.347 124.417 138.02C124.62 137.364 124.909 136.419 125.26 135.234C125.96 132.865 126.909 129.527 127.912 125.627C129.899 117.901 132.178 107.664 133.077 98.3035L117.214 96.7799Z" fill="black" mask="url(#path-17-inside-8)"/>
<mask id="path-19-inside-9" fill="white">
<path d="M137.281 71.054C137.281 71.054 139.984 82.1246 138.915 94.4183C137.845 106.712 133.004 120.228 133.004 120.228"/>
</mask>
<path d="M138.915 94.4183L146.853 95.1088L146.853 95.1087L138.915 94.4183ZM137.281 71.054C129.54 72.944 129.54 72.9427 129.54 72.9415C129.539 72.9412 129.539 72.94 129.539 72.9393C129.539 72.9378 129.538 72.9366 129.538 72.9355C129.538 72.9333 129.537 72.9318 129.537 72.9309C129.537 72.9292 129.537 72.9301 129.538 72.9335C129.539 72.9404 129.543 72.9575 129.55 72.9846C129.562 73.0389 129.584 73.133 129.613 73.2645C129.67 73.5276 129.758 73.9397 129.862 74.4817C130.071 75.5677 130.347 77.1641 130.593 79.1217C131.091 83.0733 131.447 88.3177 130.977 93.7279L146.853 95.1087C147.451 88.2252 146.991 81.7875 146.404 77.1303C146.109 74.7835 145.775 72.8439 145.511 71.47C145.378 70.782 145.263 70.2331 145.177 69.8428C145.134 69.6476 145.099 69.4918 145.072 69.3779C145.059 69.321 145.048 69.2745 145.039 69.2387C145.035 69.2208 145.031 69.2056 145.028 69.1931C145.027 69.1869 145.026 69.1813 145.024 69.1765C145.024 69.174 145.023 69.1718 145.023 69.1697C145.022 69.1686 145.022 69.1672 145.022 69.1667C145.022 69.1653 145.021 69.1639 137.281 71.054ZM130.977 93.7279C130.501 99.1906 129.16 105.121 127.872 109.832C127.237 112.154 126.634 114.111 126.193 115.478C125.973 116.161 125.795 116.693 125.674 117.047C125.613 117.224 125.567 117.356 125.538 117.439C125.523 117.481 125.513 117.511 125.507 117.528C125.504 117.536 125.502 117.542 125.501 117.544C125.501 117.545 125.501 117.545 125.501 117.545C125.501 117.545 125.501 117.544 125.501 117.543C125.502 117.543 125.502 117.542 125.502 117.542C125.502 117.542 125.502 117.541 133.004 120.228C140.505 122.915 140.505 122.914 140.505 122.913C140.506 122.913 140.506 122.912 140.506 122.911C140.507 122.91 140.507 122.908 140.508 122.906C140.509 122.902 140.511 122.898 140.513 122.892C140.517 122.881 140.522 122.867 140.528 122.85C140.54 122.815 140.557 122.767 140.578 122.707C140.621 122.587 140.68 122.416 140.754 122.199C140.902 121.766 141.11 121.146 141.36 120.37C141.86 118.819 142.535 116.628 143.244 114.035C144.644 108.914 146.259 101.939 146.853 95.1088L130.977 93.7279Z" fill="black" mask="url(#path-19-inside-9)"/>
<mask id="path-21-inside-10" fill="white">
<path d="M57.6982 59.7964C57.6982 59.7964 60.9049 66.2874 65.5709 71.9462C70.2369 77.6049 76.362 82.4317 76.362 82.4317"/>
</mask>
<path d="M57.6982 59.7964C50.5544 63.3255 50.5548 63.3263 50.5552 63.3272C50.5554 63.3275 50.5558 63.3284 50.5562 63.329C50.5568 63.3303 50.5575 63.3317 50.5582 63.3332C50.5597 63.3361 50.5613 63.3395 50.5632 63.3433C50.5669 63.3508 50.5715 63.3599 50.5768 63.3705C50.5874 63.3919 50.6012 63.4195 50.6181 63.4531C50.652 63.5203 50.6983 63.6117 50.7567 63.7255C50.8734 63.9528 51.0388 64.2702 51.2492 64.663C51.6694 65.447 52.2739 66.5392 53.0353 67.8203C54.5399 70.3517 56.7404 73.7616 59.4233 77.0153L71.7185 66.8771C69.7354 64.472 67.9996 61.807 66.7343 59.6782C66.1108 58.6292 65.622 57.745 65.2951 57.1351C65.1321 56.8309 65.0104 56.5969 64.9336 56.4472C64.8952 56.3724 64.8681 56.3189 64.8526 56.2882C64.8449 56.2729 64.8402 56.2634 64.8384 56.2598C64.8375 56.258 64.8374 56.2577 64.838 56.259C64.8383 56.2596 64.8388 56.2606 64.8395 56.262C64.8398 56.2627 64.8402 56.2634 64.8406 56.2643C64.8408 56.2648 64.8412 56.2655 64.8413 56.2657C64.8417 56.2665 64.8421 56.2673 57.6982 59.7964ZM59.4233 77.0153C62.0981 80.2592 65.1064 83.1702 67.369 85.2183C68.5163 86.2569 69.5084 87.1062 70.2218 87.7026C70.5792 88.0013 70.8685 88.2381 71.0746 88.405C71.1777 88.4885 71.2601 88.5547 71.32 88.6025C71.3499 88.6264 71.3742 88.6457 71.3926 88.6603C71.4019 88.6676 71.4096 88.6738 71.4159 88.6787C71.419 88.6812 71.4218 88.6834 71.4242 88.6853C71.4254 88.6862 71.4264 88.6871 71.4275 88.6879C71.428 88.6883 71.4286 88.6888 71.4289 88.689C71.4295 88.6895 71.4302 88.69 76.362 82.4317C81.2938 76.1734 81.2944 76.1739 81.2949 76.1743C81.2951 76.1744 81.2956 76.1749 81.2959 76.1751C81.2966 76.1756 81.2971 76.176 81.2976 76.1764C81.2985 76.1771 81.299 76.1775 81.2992 76.1777C81.2995 76.1779 81.2984 76.1771 81.2959 76.1751C81.2909 76.1711 81.2802 76.1626 81.2641 76.1498C81.232 76.1241 81.1783 76.081 81.1048 76.0215C80.9576 75.9023 80.732 75.7178 80.4422 75.4756C79.8614 74.9901 79.0306 74.2791 78.0634 73.4037C76.0969 71.6236 73.7097 69.2919 71.7185 66.8771L59.4233 77.0153Z" fill="black" mask="url(#path-21-inside-10)"/>
<mask id="path-23-inside-11" fill="white">
<path d="M43.2908 59.7964C43.2908 59.7964 49.8176 73.4292 58.0855 84.071C66.353 94.7129 76.3616 102.364 76.3616 102.364"/>
</mask>
<path d="M58.0855 84.071L64.3778 79.1827L64.3777 79.1825L58.0855 84.071ZM43.2908 59.7964C36.104 63.2371 36.1043 63.2379 36.1047 63.2386C36.1048 63.239 36.1052 63.2398 36.1055 63.2404C36.1062 63.2417 36.1069 63.2433 36.1077 63.245C36.1094 63.2484 36.1114 63.2527 36.1139 63.2578C36.1188 63.268 36.1253 63.2815 36.1333 63.2982C36.1495 63.3317 36.1719 63.378 36.2005 63.4369C36.2577 63.5545 36.3396 63.7219 36.445 63.9349C36.6556 64.3609 36.9606 64.9703 37.3505 65.7302C38.1294 67.2483 39.2519 69.3763 40.6429 71.8492C43.3994 76.75 47.3174 83.1984 51.7933 88.9596L64.3777 79.1825C60.5857 74.3018 57.1064 68.6129 54.5325 64.0368C53.2582 61.7713 52.2323 59.826 51.5291 58.4554C51.1779 57.7709 50.9084 57.2321 50.7298 56.871C50.6405 56.6905 50.5741 56.5546 50.5317 56.4673C50.5104 56.4237 50.4952 56.3922 50.4862 56.3734C50.4816 56.364 50.4786 56.3578 50.4772 56.3548C50.4765 56.3533 50.4762 56.3526 50.4762 56.3528C50.4762 56.3528 50.4764 56.3531 50.4766 56.3536C50.4767 56.3538 50.477 56.3543 50.477 56.3545C50.4773 56.355 50.4776 56.3556 43.2908 59.7964ZM51.7932 88.9594C56.2889 94.7462 61.199 99.6508 64.9378 103.08C66.8189 104.806 68.4319 106.184 69.5879 107.141C70.1665 107.619 70.6324 107.994 70.9622 108.256C71.1272 108.387 71.2582 108.49 71.3525 108.563C71.3997 108.6 71.4376 108.629 71.466 108.651C71.4803 108.662 71.4921 108.671 71.5015 108.678C71.5062 108.682 71.5103 108.685 71.5137 108.688C71.5155 108.689 71.5171 108.69 71.5185 108.691C71.5192 108.692 71.5202 108.693 71.5205 108.693C71.5215 108.694 71.5223 108.694 76.3616 102.364C81.2009 96.0342 81.2017 96.0348 81.2024 96.0354C81.2026 96.0355 81.2034 96.0361 81.2038 96.0364C81.2046 96.037 81.2053 96.0375 81.2058 96.0379C81.2068 96.0387 81.2073 96.0391 81.2071 96.039C81.2069 96.0388 81.2042 96.0367 81.1992 96.0329C81.1893 96.0252 81.17 96.0103 81.1418 95.9884C81.0855 95.9445 80.9934 95.8724 80.8686 95.7734C80.6187 95.5751 80.2381 95.2691 79.7493 94.8644C78.7703 94.0541 77.3644 92.854 75.71 91.3365C72.3776 88.2798 68.1496 84.0378 64.3778 79.1827L51.7932 88.9594Z" fill="black" mask="url(#path-23-inside-11)"/>
<mask id="path-25-inside-12" fill="white">
<path d="M29.5392 60.4729C29.5392 60.4729 40.5319 80.0682 51.5829 94.8488C62.6339 109.629 73.7429 119.595 73.7429 119.595"/>
</mask>
<path d="M29.5392 60.4729C22.59 64.3713 22.5903 64.3717 22.5906 64.3722C22.5907 64.3725 22.5911 64.3731 22.5914 64.3737C22.592 64.3747 22.5927 64.3761 22.5937 64.3778C22.5956 64.3812 22.5981 64.3857 22.6013 64.3914C22.6078 64.4029 22.6169 64.419 22.6286 64.4398C22.652 64.4814 22.6858 64.5414 22.7298 64.6191C22.8177 64.7746 22.9461 65.001 23.1123 65.2923C23.4447 65.8749 23.9286 66.7177 24.5424 67.7727C25.7696 69.8818 27.5197 72.8451 29.621 76.278C33.8024 83.1091 39.4608 91.9422 45.2014 99.6201L57.9644 90.0775C52.654 82.9749 47.2905 74.6199 43.2129 67.9583C41.1847 64.6448 39.496 61.7854 38.3166 59.7585C37.7272 58.7456 37.266 57.942 36.954 57.3952C36.7981 57.1219 36.6795 56.9128 36.601 56.774C36.5618 56.7047 36.5325 56.6528 36.5137 56.6193C36.5042 56.6026 36.4974 56.5904 36.4932 56.5829C36.4911 56.5791 36.4896 56.5766 36.4888 56.5752C36.4884 56.5745 36.4882 56.5741 36.4881 56.5739C36.4881 56.5739 36.4882 56.574 36.4882 56.574C36.4883 56.5742 36.4885 56.5745 29.5392 60.4729ZM45.2014 99.6201C50.9691 107.334 56.7343 113.771 61.0544 118.278C63.2189 120.537 65.0322 122.323 66.3171 123.556C66.9598 124.173 67.4712 124.652 67.8292 124.984C68.0082 125.15 68.1489 125.279 68.2486 125.369C68.2985 125.415 68.3381 125.451 68.3671 125.477C68.3816 125.49 68.3935 125.501 68.4026 125.509C68.4072 125.513 68.4111 125.517 68.4144 125.52C68.416 125.521 68.4174 125.522 68.4187 125.523C68.4193 125.524 68.4202 125.525 68.4205 125.525C68.4213 125.526 68.422 125.526 73.7429 119.595C79.0637 113.664 79.0643 113.665 79.065 113.665C79.0651 113.666 79.0657 113.666 79.066 113.666C79.0666 113.667 79.067 113.667 79.0673 113.668C79.0678 113.668 79.0677 113.668 79.0669 113.667C79.0653 113.666 79.0611 113.662 79.0542 113.656C79.0405 113.643 79.0164 113.621 78.9822 113.59C78.9138 113.528 78.805 113.428 78.6587 113.293C78.366 113.022 77.9231 112.607 77.3517 112.058C76.2083 110.961 74.5536 109.332 72.5596 107.251C68.5624 103.081 63.2477 97.1439 57.9644 90.0775L45.2014 99.6201Z" fill="black" mask="url(#path-25-inside-12)"/>
<mask id="path-27-inside-13" fill="white">
<path d="M17.0969 61.4879C17.0969 61.4879 29.2389 84.2707 42.6637 102.345C56.0884 120.419 70.7958 133.785 70.7958 133.785"/>
</mask>
<path d="M42.6637 102.345L49.0603 97.5935L49.0602 97.5934L42.6637 102.345ZM17.0969 61.4879C10.0652 65.2355 10.0654 65.236 10.0658 65.2366C10.0659 65.2369 10.0663 65.2376 10.0667 65.2383C10.0673 65.2396 10.0682 65.2412 10.0693 65.2432C10.0714 65.2472 10.0743 65.2525 10.0778 65.2592C10.085 65.2727 10.0951 65.2916 10.1081 65.3159C10.1342 65.3644 10.1718 65.4345 10.2206 65.5252C10.3183 65.7067 10.461 65.9708 10.6461 66.3109C11.0161 66.991 11.5559 67.9752 12.2442 69.2098C13.6199 71.6778 15.5924 75.1523 17.991 79.2004C22.7685 87.263 29.3196 97.7422 36.2671 107.096L49.0602 97.5934C42.583 88.8731 36.3508 78.9239 31.701 71.0767C29.386 67.1698 27.4839 63.8191 26.1635 61.4504C25.5036 60.2667 24.9899 59.3299 24.6436 58.6934C24.4704 58.3752 24.3391 58.1322 24.2524 57.9711C24.209 57.8906 24.1768 57.8305 24.1561 57.7918C24.1457 57.7724 24.1382 57.7584 24.1336 57.7498C24.1313 57.7455 24.1297 57.7425 24.1289 57.741C24.1285 57.7402 24.1282 57.7397 24.1282 57.7396C24.1281 57.7396 24.1282 57.7398 24.1282 57.7397C24.1284 57.74 24.1286 57.7404 17.0969 61.4879ZM36.2671 107.096C43.2336 116.475 50.5001 124.592 56.0048 130.349C58.7638 133.235 61.0966 135.545 62.7503 137.143C63.5775 137.943 64.2359 138.566 64.6939 138.994C64.9229 139.208 65.102 139.374 65.2271 139.49C65.2897 139.547 65.3387 139.592 65.3739 139.624C65.3914 139.64 65.4055 139.653 65.416 139.663C65.4213 139.668 65.4257 139.672 65.4291 139.675C65.4309 139.676 65.4324 139.678 65.4337 139.679C65.4343 139.68 65.4351 139.68 65.4354 139.681C65.4362 139.681 65.4369 139.682 70.7958 133.785C76.1547 127.888 76.1553 127.889 76.1558 127.889C76.1559 127.89 76.1563 127.89 76.1565 127.89C76.1569 127.891 76.1571 127.891 76.1571 127.891C76.157 127.891 76.156 127.89 76.1541 127.888C76.1504 127.885 76.1432 127.878 76.1325 127.868C76.1111 127.849 76.076 127.816 76.0276 127.772C75.9307 127.682 75.7806 127.544 75.5813 127.357C75.1826 126.984 74.587 126.421 73.8257 125.685C72.3022 124.213 70.1191 122.052 67.5232 119.336C62.318 113.892 55.5185 106.289 49.0603 97.5935L36.2671 107.096Z" fill="black" mask="url(#path-27-inside-13)"/>
<mask id="path-29-inside-14" fill="white">
<path d="M5.63672 66.5521C5.63672 66.5521 17.8047 91.0084 32.8666 111.362C47.9284 131.717 65.8846 147.97 65.8846 147.97"/>
</mask>
<path d="M32.8666 111.362L39.2717 106.622L39.2715 106.622L32.8666 111.362ZM5.63672 66.5521C-1.49708 70.1015 -1.49676 70.1021 -1.49638 70.1029C-1.4962 70.1033 -1.49578 70.1041 -1.4954 70.1048C-1.49466 70.1063 -1.49373 70.1082 -1.49261 70.1105C-1.49037 70.1149 -1.48739 70.1209 -1.48368 70.1284C-1.47625 70.1433 -1.46587 70.164 -1.45257 70.1906C-1.42598 70.2437 -1.38772 70.3199 -1.33809 70.4184C-1.23882 70.6153 -1.094 70.9013 -0.905909 71.2692C-0.529769 72.0051 0.0197487 73.0696 0.724484 74.4067C2.13328 77.0796 4.16608 80.8487 6.67741 85.2639C11.6814 94.0616 18.6659 105.567 26.4616 116.102L39.2715 106.622C32.0054 96.8032 25.3749 85.9039 20.5295 77.385C18.1161 73.142 16.1655 69.5249 14.8221 66.9762C14.1508 65.7025 13.632 64.6973 13.2839 64.0162C13.1098 63.6757 12.9785 63.4164 12.8922 63.2451C12.849 63.1595 12.8171 63.0959 12.7967 63.0552C12.7866 63.0349 12.7793 63.0203 12.7749 63.0115C12.7727 63.0071 12.7712 63.0042 12.7705 63.0027C12.7701 63.002 12.7699 63.0016 12.77 63.0016C12.77 63.0016 12.7701 63.0019 12.7701 63.0019C12.7703 63.0023 12.7705 63.0028 5.63672 66.5521ZM26.4614 116.101C34.267 126.65 42.7729 136.074 49.2881 142.83C52.5553 146.218 55.3444 148.959 57.3258 150.861C58.317 151.812 59.1075 152.555 59.6561 153.065C59.9305 153.321 60.1445 153.518 60.2931 153.654C60.3674 153.722 60.4253 153.775 60.4663 153.812C60.4867 153.831 60.503 153.846 60.5149 153.857C60.5208 153.862 60.5257 153.867 60.5294 153.87C60.5313 153.872 60.5329 153.873 60.5343 153.874C60.535 153.875 60.5358 153.876 60.5361 153.876C60.5368 153.877 60.5375 153.877 65.8846 147.97C71.2317 142.062 71.2322 142.063 71.2326 142.063C71.2327 142.063 71.2331 142.064 71.2332 142.064C71.2335 142.064 71.2334 142.064 71.2331 142.064C71.2326 142.063 71.2309 142.062 71.2281 142.059C71.2227 142.054 71.2129 142.045 71.1989 142.033C71.171 142.007 71.1263 141.966 71.0654 141.91C70.9436 141.799 70.7571 141.627 70.5111 141.398C70.0189 140.94 69.2889 140.254 68.3613 139.364C66.5053 137.582 63.864 134.987 60.7594 131.768C54.5311 125.309 46.528 116.429 39.2717 106.622L26.4614 116.101Z" fill="black" mask="url(#path-29-inside-14)"/>
<mask id="path-31-inside-15" fill="white">
<path d="M4.32703 85.1357C4.32703 85.1357 14.0533 103.782 26.0863 119.07C38.1196 134.357 52.4597 146.285 52.4597 146.285"/>
</mask>
<path d="M26.0863 119.07L19.8251 123.998L19.8252 123.998L26.0863 119.07ZM4.32703 85.1357C-2.73766 88.8208 -2.73731 88.8214 -2.73693 88.8221C-2.73675 88.8225 -2.73633 88.8233 -2.73598 88.824C-2.73527 88.8253 -2.73441 88.827 -2.7334 88.8289C-2.73139 88.8328 -2.72878 88.8377 -2.72558 88.8438C-2.71919 88.8561 -2.71043 88.8728 -2.69934 88.8939C-2.67715 88.9362 -2.64562 88.9961 -2.60498 89.0729C-2.5237 89.2267 -2.40592 89.4484 -2.25347 89.7327C-1.94863 90.3011 -1.50479 91.1203 -0.936512 92.1469C0.19931 94.1989 1.83638 97.0871 3.85816 100.463C7.88107 107.182 13.5162 115.983 19.8251 123.998L32.3474 114.141C26.6233 106.869 21.3788 98.7033 17.5304 92.2764C15.6165 89.0802 14.0699 86.3513 13.006 84.4293C12.4745 83.469 12.0644 82.712 11.7904 82.201C11.6534 81.9455 11.5504 81.7517 11.4834 81.6248C11.4498 81.5614 11.4253 81.5147 11.4099 81.4855C11.4022 81.4709 11.3969 81.4606 11.3938 81.4548C11.3923 81.4519 11.3914 81.4501 11.391 81.4494C11.3908 81.4491 11.3908 81.449 11.3909 81.4492C11.391 81.4493 11.3912 81.4497 11.3912 81.4498C11.3914 81.4502 11.3917 81.4507 4.32703 85.1357ZM19.8252 123.998C26.1452 132.027 33.0161 139.109 38.2631 144.154C40.8973 146.687 43.147 148.729 44.7484 150.147C45.5495 150.857 46.1898 151.411 46.6365 151.794C46.8598 151.985 47.0349 152.134 47.1575 152.237C47.2188 152.289 47.2671 152.33 47.3017 152.359C47.319 152.373 47.3329 152.385 47.3434 152.393C47.3486 152.398 47.353 152.401 47.3565 152.404C47.3582 152.406 47.3598 152.407 47.3611 152.408C47.3617 152.409 47.3625 152.409 47.3629 152.41C47.3636 152.41 47.3643 152.411 52.4597 146.285C57.5551 140.159 57.5557 140.16 57.5562 140.16C57.5564 140.16 57.5568 140.161 57.5571 140.161C57.5575 140.161 57.5577 140.161 57.5577 140.161C57.5577 140.161 57.5569 140.161 57.5552 140.159C57.5517 140.156 57.5449 140.151 57.5347 140.142C57.5144 140.125 57.4806 140.097 57.434 140.057C57.3407 139.979 57.1959 139.856 57.0036 139.691C56.619 139.362 56.045 138.865 55.3138 138.217C53.8502 136.921 51.7629 135.027 49.3079 132.666C44.3765 127.925 38.0606 121.4 32.3473 114.141L19.8252 123.998Z" fill="black" mask="url(#path-31-inside-15)"/>
</g>
<defs>
<filter id="filter0_d" x="0" y="0" width="172" height="158" filterUnits="userSpaceOnUse" color-interpolation-filters="sRGB">
<feFlood flood-opacity="0" result="BackgroundImageFix"/>
<feColorMatrix in="SourceAlpha" type="matrix" values="0 0 0 0 0 0 0 0 0 0 0 0 0 0 0 0 0 0 127 0"/>
<feOffset dy="4"/>
<feGaussianBlur stdDeviation="2"/>
<feColorMatrix type="matrix" values="0 0 0 0 0 0 0 0 0 0 0 0 0 0 0 0 0 0 0.25 0"/>
<feBlend mode="normal" in2="BackgroundImageFix" result="effect1_dropShadow"/>
<feBlend mode="normal" in="SourceGraphic" in2="effect1_dropShadow" result="shape"/>
</filter>
</defs>
</svg>
