<svg width="193" height="158" viewBox="0 0 193 158" fill="none" xmlns="http://www.w3.org/2000/svg">
<g filter="url(#filter0_d)">
<path d="M86.7871 149.816C85.4603 149.42 85.8 147.62 85.5219 146.552C85.3021 144.16 84.9027 141.773 84.0777 139.509C83.6382 138.296 83.9756 136.211 82.4809 135.744C81.1849 135.83 80.2788 136.97 78.9872 136.999C77.7962 137.11 76.2647 137.134 75.665 135.866C74.9525 134.728 76.5169 133.897 76.9706 133.284C76.1658 131.9 76.275 130.185 75.589 128.741C75.029 127.466 74.5365 126.023 73.4276 125.118C72.076 125.433 71.6664 127.434 71.6273 128.691C71.7258 130.007 70.3479 130.744 69.1902 130.434C67.5958 130.289 67.8214 128.417 67.7447 127.261C67.7203 124.954 68.1254 122.632 69.1231 120.542C69.591 119.18 70.4912 117.755 70.0007 116.272C69.7704 113.637 70.3738 111.005 70.9576 108.449C71.3108 106.975 71.8236 105.537 72.603 104.235C73.7161 101.126 73.0757 97.7753 72.719 94.5911C72.4306 90.9148 72.3274 87.1648 73.0457 83.5303C73.1992 82.7794 74.2976 81.0896 72.7099 81.7009C71.4017 81.6094 70.6376 80.24 69.4266 79.8144C67.626 78.3515 65.6928 77.0705 63.799 75.735C62.2404 74.412 60.5275 73.2965 58.8192 72.1841C56.9917 70.3843 58.4231 64.8468 58.1689 61.8728C58.3968 59.25 58.0442 56.5997 58.4442 53.9914C58.5955 50.2121 58.7593 46.4329 58.9299 42.6544C49.665 42.5963 40.4003 42.6862 31.1357 42.6878C26.4506 42.6046 21.7645 42.5777 17.079 42.5266C16.0305 41.7634 15.0011 40.9594 13.8657 40.3362C12.0254 38.7837 9.96195 37.5176 8.10798 35.9783C6.88052 35.2225 5.60052 34.4882 4.63607 33.3747C3.62365 32.6259 3.81385 30.7277 5.24949 30.7257C9.33713 30.4334 13.4428 30.545 17.5387 30.4888C33.5742 30.441 49.6101 30.3797 65.6458 30.4285C76.4316 30.413 87.217 30.4416 98.0026 30.3777C98.8511 30.3082 101.377 30.5375 100.493 29.0317C100.069 28.1523 100.71 26.619 99.2739 26.6264C98.2396 25.8046 99.1581 24.6455 100.18 24.5992C100.594 23.242 98.5871 22.5677 98.8365 21.2243C99.1664 16.7535 99.2282 12.2634 99.2749 7.78146C99.2002 6.30563 99.2225 4.77628 99.9329 3.43808C100.586 2.37578 99.4589 0.56015 100.957 0.0371885C102.568 -0.299166 102.591 1.72976 102.146 2.75154C101.834 4.0366 104.473 4.31825 104.467 3.01725C104.961 1.66902 106.565 2.5236 106.163 3.73996C106.403 5.69608 107.906 7.57227 109.933 7.83109C112.259 8.29412 114.672 8.58144 117.034 8.26495C117.948 7.70182 119.462 8.28098 119.82 6.96216C120.11 6.32983 121.173 6.87288 121.377 6.47551C121.346 5.06616 121.141 3.64786 121.312 2.24399C121.943 0.65834 122.761 2.14717 122.774 3.26566C122.786 4.33071 122.319 6.12799 123.526 6.57747C124.545 6.92629 125.39 7.74626 126.5 7.01023C127.697 7.04524 128.919 6.98708 130.123 6.83662C132.613 6.45848 135.144 6.44558 137.633 6.83906C139.01 7.40379 139.531 5.8137 140.083 4.90133C140.801 3.57042 142.047 2.55744 143.542 2.2465C144.971 1.71406 146.22 3.0574 147.15 3.96567C148.834 6.13859 148.933 9.02288 149.239 11.6424C149.37 15.8505 149.392 20.0654 149.278 24.2742C148.942 26.9596 148.955 29.677 148.814 32.3788C153 33.0277 157.269 32.6189 161.467 33.1272C162.603 33.4879 163.729 33.9105 164.9 34.1685C167.64 34.9969 170.306 36.0453 173.048 36.8658C175.592 37.8475 178.523 38.3873 180.738 39.4464C182.471 40.1076 184.186 40.83 185.953 41.386C187.054 41.9623 188.878 42.3728 188.699 43.9784C188.935 45.5241 187.053 45.4209 186.041 45.4881C184.857 46.0117 184.535 47.6286 183.205 47.9691C182.148 48.88 182.737 50.5808 182.5 51.8347C182.453 55.4577 182.282 59.0977 182.638 62.7091C182.499 63.9407 182.059 65.1464 182.164 66.4232C182.191 69.7258 181.894 73.0397 182.213 76.3336C182.942 77.7155 181.889 78.9922 180.4 78.6318C175.207 78.8363 170.002 78.8319 164.815 79.1463C163.209 78.981 162.291 77.454 161.013 76.6485C159.469 75.5546 157.957 74.3639 156.242 73.5519C154.801 73.5783 156.119 75.7201 155.788 76.6407C155.717 77.8858 156.367 79.0059 156.404 80.2452C156.795 84.104 157.04 88.0091 156.698 91.8804C156.463 93.7279 156.211 95.6179 155.412 97.3174C154.828 99.5863 154.142 101.881 154.247 104.248C154.266 106.962 154.474 109.683 155.072 112.333C155.626 116.168 155.136 120.037 154.74 123.86C154.49 126.413 154.642 129.001 155.318 131.482C155.721 133.416 156.132 135.353 156.644 137.259C156.838 139.305 156.961 141.387 156.734 143.433C156.343 144.797 154.632 144.821 153.466 144.89C152.479 144.919 150.712 145.032 150.92 143.548C151.146 141.543 150.961 139.525 150.528 137.559C150.2 135.537 149.867 133.446 148.705 131.706C147.802 130.24 146.55 128.873 144.862 128.348C143.536 127.976 144.317 126.831 145.39 127.307C147.667 127.981 149.36 129.931 150.466 131.954C151.6 134.619 152.133 137.51 152.437 140.379C152.503 141.326 152.503 142.276 152.534 143.224C153.277 143.218 154.327 143.644 154.743 142.791C155.273 141.184 155.024 139.426 154.805 137.781C154.254 135.616 153.75 133.438 153.278 131.254C152.718 129.041 152.904 126.723 152.953 124.463C153.082 122.248 153.451 120.052 153.416 117.827C153.417 115.645 153.516 113.44 153.187 111.277C152.344 108.015 152.251 104.585 152.565 101.244C152.786 98.6415 154.233 96.3515 154.51 93.7599C154.782 92.0928 154.983 90.389 155.355 88.7542C154.882 87.3835 155.034 85.8806 154.94 84.449C154.924 82.2665 154.696 80.0948 154.354 77.9426C154.036 73.7394 154.01 69.4861 154.675 65.3135C154.783 63.7727 155.112 62.2486 155.833 60.8718C156.065 59.8396 157.302 58.9918 156.524 57.8426C156.027 57.1394 154.993 57.4391 154.393 57.1322C153.95 58.411 153.599 57.0356 153.436 56.4636C152.264 55.3415 151.804 57.8314 152.51 58.0088C153.924 57.5872 155.11 59.0364 154.283 60.3518C153.784 61.6139 153.329 62.8956 153.187 64.2587C152.712 67.184 152.623 70.1518 152.687 73.1094C152.782 74.5523 151.346 73.4097 151.66 72.5279C151.848 71.2113 151.359 69.8031 149.995 69.3639C149.251 70.1023 149.918 71.7476 150.585 72.5255C151.906 74.9656 152.669 77.6937 153.074 80.4296C153.132 81.8339 153.209 83.2386 153.455 84.6242C153.527 87.5528 153.345 90.5127 152.731 93.3812C152.106 95.4367 151.591 97.6153 150.313 99.3819C149.308 100.5 148.057 101.5 147.635 103.015C147.326 104.285 146.566 105.35 145.443 106.016C144.597 106.71 143.811 107.472 143.003 108.21C143.137 109.305 143.198 110.414 143.414 111.496C144.477 110.98 144.372 109.547 145.209 108.704C146.053 107.813 146.459 105.881 148.102 106.673C149.213 107.406 150.177 108.494 150.648 109.753C151.495 112.666 151.761 115.74 151.338 118.749C151.035 120.89 150.651 123.293 148.988 124.831C147.983 125.99 146.801 125.021 145.832 124.439C144.913 123.745 144.666 122.457 144.269 121.42C143.363 118.634 143.834 115.68 143.558 112.821C142.807 112.4 142.536 114.485 142.225 115.158C141.786 116.329 141.372 117.868 140.032 118.277C138.611 118.531 137.429 117.369 136.95 116.134C135.697 113.502 135.67 110.457 136.413 107.678C136.862 106.874 134.866 104.789 134.719 106.348C134.088 109.528 134.767 112.872 133.666 115.982C133.042 118.212 131.587 120.134 131.152 122.419C130.904 123.199 131.007 125.816 132.181 124.527C132.61 123.29 132.588 121.956 132.876 120.7C133.348 119.353 134.454 118.271 134.621 116.811C135.523 115.554 136.159 118.323 137.277 118.393C138.07 119.264 139.338 119.648 140.532 119.324C141.338 118.865 141.699 119.526 140.766 119.818C139.744 120.778 138.474 120.087 137.486 119.482C136.521 119.137 135.469 117.219 134.621 118.711C133.975 119.304 133.733 120.95 135.062 120.155C136.137 119.439 137.34 120.618 138.336 120.985C139.406 122.138 139.907 123.682 140.217 125.189C141.558 126.055 141.543 123.711 140.888 123.003C140.711 122.367 139.201 120.57 140.463 120.689C141.07 120.943 142 123.369 142.356 121.996C141.815 121.007 141.989 119.793 141.993 118.702C141.676 117.555 143.308 116.676 142.928 118.348C142.192 119.192 143.152 120.411 143.091 121.53C143.342 122.997 144.216 124.241 145.198 125.317C146.107 126.922 143.122 126.629 143.372 128.298C143.179 129.733 145.238 130.611 144.356 132.183C143.724 133.22 142.245 132.665 141.221 132.864C138.596 132.954 135.922 132.827 133.365 133.533C128.333 133.954 123.28 134.112 118.25 134.58C113.264 134.925 108.278 135.262 103.301 135.731C100.813 135.919 98.3249 136.148 95.8308 136.246C94.7425 135.642 93.5926 135.224 92.2971 135.46C90.9845 135.534 89.6609 135.546 88.3607 135.751C88.9024 138.273 90.138 140.638 90.3423 143.243C90.4456 145.141 90.486 147.107 89.9576 148.948C89.5074 150.331 87.8752 150.027 86.786 149.817L86.7871 149.816ZM87.9424 147.994C88.7884 147.064 88.5727 145.645 88.5736 144.474C88.4674 142.106 87.7688 139.829 87.0162 137.6C86.5214 136.3 86.6119 134.841 86.0201 133.583C85.3961 133.324 85.9842 136.179 85.0424 134.669C84.4083 133.646 84.3057 132.458 83.8102 131.376C83.2307 130.064 83.3304 128.573 84.5444 127.649C85.3659 126.362 86.0361 127.877 85.4288 128.707C85.113 130.1 84.9957 131.77 85.8549 132.986C86.8169 132.277 85.3186 131.056 86.1418 130.105C86.4947 128.09 86.7757 126.059 87.0677 124.036C87.23 119.277 87.1048 114.507 86.782 109.757C86.4044 106.937 86.6002 104.08 87.0785 101.286C87.0244 99.9933 87.4422 98.7638 87.8363 97.5453C88.6082 95.0345 88.2422 92.3653 88.3269 89.7817C88.271 87.4692 88.5061 85.0494 87.5224 82.8818C87.4645 82.2301 86.3943 80.4589 85.9922 81.6805C86.5259 82.8304 86.7683 84.0839 86.8305 85.3509C87.0094 88.2703 87.3709 91.2028 86.9609 94.1212C86.6386 96.6481 86.3842 99.274 85.1626 101.557C84.5834 103.12 83.3793 104.411 82.0258 105.352C80.5192 106.261 78.7536 105.203 77.6681 104.108C76.6676 103.309 76.4938 102.061 76.1193 100.929C75.5977 99.8898 75.2876 98.8046 75.3387 97.6407C74.9077 94.5087 74.7368 91.3297 74.8853 88.1716C75.4284 86.9668 75.3058 85.5629 75.5202 84.2651C75.4607 83.4296 76.1228 82.1384 75.5607 81.5654C74.3966 82.2272 74.4297 83.7923 74.1662 84.9519C73.6496 89.0046 73.7255 93.1604 74.6643 97.1477C75.1694 99.352 74.4668 101.573 73.9733 103.712C73.1971 106.331 71.8737 108.788 71.5118 111.526C71.1357 113.568 71.1987 115.655 71.4748 117.703C71.393 119.24 70.3476 120.509 69.9458 121.966C69.2405 123.982 69.0822 126.184 69.3823 128.29C70.1034 128.79 70.0137 126.457 70.3912 125.825C70.7638 124.357 72.3836 123.523 73.8095 123.786C75.1137 124.702 75.8113 126.24 76.5187 127.624C77.1691 128.778 76.9377 130.179 77.6081 131.331C77.9165 132.355 78.7488 131.942 78.4417 131.015C78.0831 128.631 77.6514 126.058 75.9796 124.202C75.2908 123.565 74.4642 122.331 75.8693 122.046C77.046 121.271 77.4149 119.815 78.2692 118.817C78.7801 120.262 78.5628 121.885 78.9365 123.379C79.2574 125.035 79.775 126.694 80.8204 128.043C82.2473 130.472 83.5655 132.974 84.4604 135.653C84.9433 136.942 85.3902 138.248 85.6189 139.605C86.5974 142.063 87.1004 144.745 86.8318 147.389C86.6879 148.053 87.4671 148.397 87.9424 147.994L87.9424 147.994ZM81.859 126.667C79.9965 125.021 79.4972 122.383 79.2893 120.019C79.1374 117.043 79.5565 113.862 81.2514 111.342C81.9522 109.992 83.9538 109.824 84.6453 111.279C86.0813 113.357 85.816 115.986 85.9278 118.377C85.9573 121.038 85.7031 123.897 84.1102 126.124C83.6115 126.824 82.6049 127.33 81.8591 126.667L81.859 126.667ZM83.5424 124.503C84.9837 120.915 85.1093 116.846 84.1239 113.125C83.7206 111.343 81.8853 112.618 81.7739 113.866C80.7337 116.628 80.7087 119.69 81.4508 122.53C81.8515 123.401 81.7013 125.426 82.8872 125.393C83.2027 125.185 83.3953 124.841 83.5424 124.503V124.503ZM70.8885 122.924C70.3351 121.862 71.6787 121.463 71.5278 120.4C72.0012 120.053 72.3067 118.691 72.7925 119.935C73.1799 120.953 73.6614 122.3 72.2872 122.719C72.0203 123.379 71.2587 123.719 70.8885 122.924V122.924ZM74.0513 119.872C72.6314 118.816 72.046 116.962 72.2064 115.244C72.2854 113.724 72.1943 112.147 72.599 110.673C73.2337 109.729 73.4143 108.527 74.1768 107.642C74.8032 106.694 76.2093 105.482 77.2794 106.541C78.66 108.214 78.522 110.575 78.3825 112.611C78.0841 115.033 77.6507 117.578 76.2578 119.636C75.7518 120.513 74.7709 120.361 74.0512 119.872L74.0513 119.872ZM75.7577 118.233C76.6874 116.74 76.7038 114.9 76.9925 113.211C77.1085 111.611 77.4245 109.893 76.8203 108.358C75.7979 107.747 74.7754 109.294 74.536 110.214C73.7877 112.612 73.3054 115.221 73.8805 117.707C74.0516 118.715 75.1074 119.262 75.7577 118.233V118.233ZM79.5777 108.746C79.1989 108.196 78.2887 107.07 79.5093 106.933C80.9036 106.678 82.0964 108.07 80.7829 109.133C80.3681 109.556 79.7104 109.288 79.5777 108.746V108.746ZM83.55 107.4C83.4232 107.054 82.8155 106.645 83.0006 106.339C83.7226 105.785 84.3452 104.964 85.2293 104.718C85.3516 105.855 85.0103 107.026 84.6343 108.097C84.35 108.644 83.7366 107.595 83.55 107.4H83.55ZM74.4263 104.951C73.9123 103.794 75.9657 101.792 76.1245 103.781C76.0554 104.46 75.0802 105.922 74.4263 104.951ZM79.3125 135.061C79.5009 133.291 77.07 135.021 78.4267 135.651C78.8582 135.787 79.4116 135.607 79.3125 135.061ZM103.966 134.393C106.4 134.248 108.821 133.964 111.235 133.641C115.003 133.694 118.766 133.327 122.519 133.031C123.805 133.011 125.029 132.434 126.314 132.545C128.293 132.771 130.304 132.486 132.272 132.242C133.182 132.273 134.002 131.328 132.753 131.13C132.179 130.093 134.179 130.091 134.556 129.2C135.35 128.298 136.413 127.621 137.648 127.619C138.271 127.675 140.262 127.038 138.656 126.777C136.245 126.466 133.773 126.725 131.395 126.114C129.202 125.51 127.004 124.67 125.186 123.275C124.587 122.2 123.404 121.747 122.582 120.881C122.143 120.106 120.438 118.804 120.583 120.571C120.988 122.126 118.848 121.713 117.916 121.847C116.457 121.892 115.042 122.291 113.575 122.2C112.204 122.248 110.727 122.074 109.454 122.684C108.715 123.797 111.016 123.211 111.608 123.304C114.994 123.141 118.38 122.941 121.746 122.538C123.323 122.38 124.282 123.867 125.502 124.592C126.433 124.899 126.99 125.887 125.973 126.515C126.161 127.41 127.326 126.398 127.309 125.807C128.489 125.194 128.536 127.13 129.712 126.683C130.559 127.1 131.617 126.93 131.973 127.989C132.596 127.653 134.13 127.497 133.496 128.656C132.318 129.065 132.095 130.349 131.711 131.317C130.012 131.767 128.211 131.596 126.468 131.715C124.292 131.789 122.105 131.857 119.965 132.275C117.588 132.406 115.199 132.393 112.829 132.678C109.929 132.958 107.008 133.007 104.128 133.476C101.81 133.719 99.4804 133.788 97.1548 133.906C96.2678 132.944 95.3722 131.886 94.0418 131.554C92.921 130.908 91.5233 131.447 90.5061 130.718C90.0383 130.397 89.0688 129.671 90.2088 129.553C90.9614 128.596 91.4473 127.38 91.052 126.08C90.1698 124.476 92.1404 124.161 93.2919 124.16C96.2577 123.908 99.2423 123.979 102.207 123.752C103.702 123.172 101.387 122.316 100.671 122.897C97.0907 123.112 93.5028 123.217 89.9215 123.433C89.5821 123.535 88.808 123.317 88.7606 123.635C89.2514 125.416 89.6082 127.683 88.1176 129.099C87.1834 129.782 87.1466 131.969 88.753 131.202C90.5773 131.447 92.4386 132.096 93.7714 133.411C94.8812 133.991 95.5228 135.289 96.9367 134.876C99.2806 134.726 101.623 134.548 103.967 134.394L103.966 134.393ZM82.3194 134.042C82.4407 132.805 80.2047 132.329 79.924 133.543C80.1392 134.613 81.6084 134.372 82.3194 134.042ZM91.1939 133.392C90.5673 132.731 88.8898 132.566 87.9289 132.933C87.6976 134.031 89.8714 133.527 90.6133 133.58C90.8053 133.538 91.0461 133.543 91.1939 133.392ZM98.227 132.475C97.5511 131.299 96.8893 133.077 98.0636 132.937C98.1978 132.826 98.2248 132.637 98.227 132.475ZM100.272 132.234C99.6752 131.176 98.6114 132.678 99.9195 132.618C100.182 132.646 100.691 132.58 100.272 132.234ZM102.7 132.362C102.522 131.568 101.146 132.698 102.329 132.597C102.471 132.559 102.615 132.488 102.7 132.362ZM107.114 132.058C106.075 130.626 106.375 133.276 107.114 132.058V132.058ZM108.833 131.851C107.601 130.913 108.474 132.861 108.833 131.851V131.851ZM112.887 131.467C112.573 130.633 111.439 131.407 112.436 131.808C112.7 131.956 113.047 131.786 112.887 131.467ZM96.7103 131.331C98.4101 130.331 94.3443 130.279 95.9177 131.486C96.1684 131.716 96.476 131.422 96.7103 131.331ZM111.047 130.829C111.237 129.488 114.387 130.617 112.895 128.882C111.928 128.695 111.084 127.142 110.253 127.447C110.268 128.269 112.894 129.007 111.128 129.607C109.743 128.825 110.069 132.412 110.876 131.174L110.96 131.015L111.047 130.829ZM114.712 131.34C113.814 130.387 114.67 132.35 114.712 131.34V131.34ZM117.14 131.367C116.181 130.001 116.126 132.312 117.14 131.367V131.367ZM143.208 131.232C142.996 130.092 140.09 130.854 141.344 131.552C141.904 131.539 142.901 131.82 143.208 131.232ZM99.189 130.877C99.1503 129.721 97.0956 130.914 98.5493 131.237C98.8309 131.342 99.1192 131.147 99.189 130.877ZM105.283 130.057C104.839 129.097 105.818 128.861 106.521 128.731C105.987 128.526 105.383 127.991 104.763 128.099C104.518 129.147 102.584 127.419 103.269 128.768C104.538 129.082 104.149 130.805 105.205 131.163C105.412 130.847 105.313 130.41 105.283 130.057L105.283 130.057ZM120.652 131.02C120.256 130.304 119.196 130.614 120.231 131.212C120.417 131.393 120.813 131.374 120.652 131.02ZM102.059 130.572C101.657 129.944 99.4503 130.28 100.918 130.86C101.286 130.97 101.86 130.957 102.059 130.572ZM122.505 130.829C121.762 129.766 122.218 131.75 122.505 130.829V130.829ZM124.805 130.868C124.765 130.176 123.148 129.475 123.818 130.621C123.968 130.949 124.594 131.341 124.805 130.868ZM138.926 130.693C140.573 131.114 140.767 128.066 139.027 128.66C137.721 128.822 136.365 129.07 135.22 129.744C133.743 131.053 136.523 131.026 137.327 130.86C137.861 130.818 138.394 130.759 138.926 130.693H138.926ZM107.681 130.684C107.935 129.632 105.516 129.063 106.251 130.262C106.572 130.493 107.347 131.111 107.681 130.684ZM127.105 130.604C127.099 129.51 124.641 129.908 126.15 130.601C126.373 130.72 127.024 131.042 127.105 130.604ZM129.917 130.053C129.284 129.157 127.442 130.592 129.059 130.659C129.385 130.58 129.837 130.426 129.917 130.053ZM80.3852 129.43C80.1779 128.465 79.1573 128.805 79.7243 129.656C79.8813 130.853 80.9204 130.542 80.3852 129.43ZM109.16 129.756C108.814 128.758 107.639 129.16 108.507 130.006C108.85 130.392 109.839 130.542 109.16 129.756ZM115.349 129.678C114.837 129.029 113.454 129.316 114.694 129.857C114.909 130.044 115.842 130.291 115.349 129.678ZM117.29 129.767C117.363 128.726 115.549 128.449 116.208 129.775C116.413 130.178 117.067 130.127 117.29 129.767ZM100.27 129.167C99.944 127.661 97.4028 127.939 99.1498 129.273C99.4724 129.588 100.319 129.963 100.27 129.167ZM118.927 129.295C118.385 128.023 117.193 129.606 118.526 129.796C118.978 129.893 119.228 129.712 118.927 129.295ZM141.929 129.438C141.823 128.142 140.603 129.665 141.697 129.795C141.861 129.769 141.935 129.586 141.929 129.438ZM95.4142 129.287C95.1442 128.356 93.7168 129.094 94.9822 129.48C95.1364 129.595 95.4644 129.55 95.4142 129.287ZM97.7144 129.216C97.88 128.249 96.085 127.6 96.7428 128.921C96.8211 129.283 97.6605 129.956 97.7144 129.216ZM123.017 129.245C122.285 127.833 120.961 128.887 119.807 128.619C119.8 129.831 122.074 129.477 122.986 129.298L123.017 129.245ZM102.057 129.186C102.073 128.167 100.674 127.107 100.825 128.739C100.862 129.204 101.777 129.53 102.057 129.186ZM125.094 128.782C124.69 127.902 122.836 128.435 124.086 129.116C124.307 129.264 125.848 129.458 125.533 129.147C125.386 129.026 125.24 128.904 125.094 128.782V128.782ZM127.442 128.878C127.769 127.718 125.243 127.908 126.356 128.947C126.689 129.077 127.142 129.098 127.442 128.878ZM129.659 128.507C129.474 127.828 131.135 128.28 129.974 127.81C129.079 127.442 127.673 128.187 129.045 128.845C129.39 129.177 129.745 128.971 129.659 128.507V128.507ZM92.2161 128.279C90.9837 127.341 91.8561 129.289 92.2161 128.279V128.279ZM109.723 128.169C109.57 127.271 107.737 127.46 108.865 128.299C109.116 128.567 109.694 128.679 109.723 128.169ZM107.427 127.898C106.668 127.069 106.35 128.693 107.463 128.263C107.729 128.271 107.489 127.932 107.427 127.898ZM112.767 127.61C111.761 126.684 112.792 129.057 112.887 127.784L112.767 127.61ZM115.599 128.087C115.432 126.777 112.648 126.621 114.517 127.876C114.782 127.95 115.469 128.548 115.599 128.087ZM117.136 127.543C117.068 126.723 115.578 126.571 116.324 127.538C116.49 127.794 117.023 127.888 117.136 127.543ZM121.938 127.327C123.052 127.271 122.52 126.389 121.679 126.695C121.022 126.627 119.263 126.77 120.265 127.665C120.823 127.694 121.369 127.358 121.938 127.327ZM142.311 127.107C142.227 126.046 139.668 126.557 141.22 127.371C141.598 127.718 142.395 127.881 142.311 127.107ZM93.5139 127.123C92.1558 126.233 93.5699 128.168 93.7592 127.319L93.6562 127.233L93.5139 127.123ZM96.4344 127.265C96.2647 126.12 93.9199 126.982 95.5643 127.436C95.8165 127.487 96.3424 127.619 96.4344 127.265ZM98.479 127.283C98.2591 126.342 96.508 127.146 97.7828 127.49C97.9928 127.504 98.4071 127.558 98.479 127.283ZM102.313 126.992C101.904 125.899 100.649 127.025 101.944 127.256C102.099 127.258 102.305 127.173 102.313 126.992ZM118.206 127.081C116.944 126.83 118.457 127.613 118.206 127.081V127.081ZM125.035 126.902C125.528 126.089 122.874 126.088 124.174 127.025C124.443 127.38 124.825 127.222 125.035 126.902ZM104.102 126.617C103.686 125.508 102.067 127.046 103.633 127C103.849 127.006 104.1 126.855 104.102 126.617ZM105.635 126.361C104.998 125.289 104.285 126.664 105.498 126.715C105.603 126.631 105.633 126.488 105.635 126.361ZM107.935 125.978C107.576 125.227 106.369 125.099 105.791 124.367C105.248 124.902 106.773 126.403 107.635 126.467C107.865 126.442 107.948 126.169 107.936 125.978L107.935 125.978ZM109.469 125.978C109.133 125.427 108.293 125.88 109.241 126.153C109.369 126.341 109.549 126.104 109.469 125.978ZM117.329 125.914C116.476 125.333 115.752 124.179 114.732 124.017C114.341 124.396 114.345 125.141 114.194 125.688C115.046 126.746 115.048 124.84 115.197 124.825C115.843 125.344 116.424 126.202 117.306 126.196L117.357 126.091L117.329 125.914ZM119.436 125.882C119.486 124.602 117.162 125.019 118.427 125.981C118.685 126.037 119.513 126.484 119.436 125.882ZM94.528 125.484C94.0602 124.935 93.2335 125.358 94.1731 125.728C94.4127 125.939 94.8676 125.899 94.528 125.484ZM112.919 125.722C111.623 124.696 112.215 126.65 112.919 125.722V125.722ZM92.2182 125.467C91.3207 124.514 92.1761 126.477 92.2182 125.467V125.467ZM96.4809 125.339C95.9606 124.449 95.2603 126.278 96.3785 125.546L96.4625 125.445L96.4809 125.339V125.339ZM98.7353 125.459C98.3263 124.366 97.0711 125.491 98.367 125.722C98.5217 125.724 98.7277 125.639 98.7353 125.459ZM121.482 125.333C121.608 124.679 123.551 126.407 123.396 125.055C122.312 124.731 121.101 124.628 119.987 124.838C119.831 125.445 121.327 126.192 121.483 125.333H121.482ZM137.935 125.47C138.289 125.381 139.11 125.721 138.896 125.111C138.827 123.83 138.691 122.457 137.738 121.492C137.037 120.434 135.353 120.979 134.736 121.867C134.146 122.84 133.288 124.417 134.379 125.351C135.471 125.965 136.76 125.362 137.935 125.47L137.935 125.47ZM102.085 124.88C101.069 124.268 102.065 126.088 102.189 125.01L102.085 124.88H102.085ZM143.198 125.147C143.281 124.371 141.997 123.133 142.294 124.647C142.235 125.055 143.108 125.981 143.198 125.147ZM107.82 124.939C108.268 123.92 106.138 124.892 107.429 125.201L107.638 125.133L107.82 124.939H107.82ZM109.726 124.445C108.983 123.382 109.439 125.366 109.726 124.445V124.445ZM129.74 123.179C130.132 120.729 131.724 118.714 132.461 116.376C133.624 113.445 132.998 110.244 133.565 107.206C133.711 106.185 133.757 105.148 133.6 104.126C133.005 105.354 132.326 106.564 132.076 107.918C130.776 111.247 128.816 114.256 127.152 117.404C126.109 118.405 126.463 119.995 125.415 121.023C124.372 122.404 126.433 122.885 127.321 123.434C128.099 123.761 129.677 125.396 129.668 123.683L129.706 123.438L129.74 123.179ZM148.873 123.35C149.822 122.207 149.878 120.604 150.123 119.196C150.398 116.384 150.579 113.475 149.871 110.711C149.482 109.685 148.391 108.173 147.145 108.671C145.712 108.938 145.951 110.417 145.805 111.521C145.48 114.963 144.764 118.607 146.106 121.927C146.745 122.613 146.623 124.97 147.941 123.966C148.268 123.787 148.58 123.581 148.873 123.35L148.873 123.35ZM77.5919 122.975C77.7099 121.996 76.652 122.033 76.9153 123.001C77.0439 123.628 78.0003 124.264 77.619 123.157L77.5919 122.975ZM107.49 123.594C109.239 123.319 106.643 122.475 105.955 122.515C104.951 122.141 103.933 122.42 103.34 123.308C102.683 123.761 103.467 123.666 103.869 123.717C105.09 123.906 106.276 123.651 107.49 123.594L107.49 123.594ZM122.977 123.412C122.752 123.038 121.431 123.468 120.972 123.638C121.451 124 122.527 123.789 122.977 123.412ZM98.6021 121.101C104.924 120.668 111.267 120.564 117.58 120.01C118.809 120.106 119.608 119.407 120.273 118.546C121.399 117.841 123 119.684 123.713 118.26C125.042 115.014 126.078 111.654 127.385 108.4C128.274 106.417 129.356 104.502 130.009 102.424C129.659 100.999 127.413 101.283 126.264 100.691C124.897 100.219 123.373 99.9343 122.232 99.0022C121.425 97.4245 123.873 98.5631 124.546 98.7674C125.845 99.1021 127.014 99.8622 128.291 100.166C129.123 100.026 130.4 101.316 130.863 100.591C129.874 99.6504 128.477 99.2888 127.259 98.722C124.482 97.7434 121.766 96.6071 119.085 95.3886C117.034 94.5489 115.095 93.4126 112.976 92.7547C112.18 92.418 110.009 91.6117 110.792 90.6007C112.641 89.6275 114.706 89.1519 116.635 88.3586C118.281 87.7799 119.859 87.0379 121.337 86.1132C123.661 84.8128 126.296 84.1659 128.533 82.7004C129.203 82.0892 131.055 82.2586 130.865 81.1006C129.027 81.4472 127.324 82.316 125.547 82.8952C122.119 84.1738 118.623 85.273 115.272 86.7471C113.131 87.6352 110.85 88.203 108.786 89.2646C107.628 90.2558 105.893 89.955 104.709 89.1727C103.294 88.6723 101.843 88.2585 100.493 87.5818C98.0424 86.5128 95.4155 85.8969 93.0303 84.6675C91.796 84.0983 90.4958 83.6678 89.1457 83.4887C89.9731 84.565 91.2082 85.1792 92.4575 85.6381C95.8057 87.1044 98.9767 88.9556 102.361 90.3369C103.926 90.4276 103.686 92.3383 102.255 92.4283C101.065 92.8826 99.9438 93.6941 98.6298 93.6594C97.5158 94.1628 96.443 94.891 95.6942 95.8653C96.3769 97.154 97.8148 95.4101 98.8462 95.3785C99.952 94.4513 101.402 94.4469 102.602 93.8191C103.884 93.2702 105.227 92.8814 106.545 92.4296C109.9 93.3803 113.197 94.5278 116.381 95.9536C117.619 96.3657 118.902 96.5527 120.061 97.2062C120.835 97.2705 122.447 98.567 120.915 98.7003C118.473 98.2903 116.264 97.057 113.884 96.4069C111.553 95.637 109.24 94.8113 106.922 94.0053C104.834 94.7293 102.72 95.3787 100.612 96.0313C98.7215 96.8876 96.7604 97.5649 94.8139 98.2767C93.3653 98.4564 92.1301 99.3162 90.749 99.7404C89.5316 100.008 88.4133 100.856 88.7431 102.242C88.4055 103.413 88.109 104.606 88.2332 105.861C88.3075 108.799 88.8009 111.709 88.825 114.652C88.9146 116.962 88.8811 119.277 88.9782 121.587C91.5337 121.599 94.1029 121.334 96.6631 121.217C97.3094 121.179 97.9558 121.14 98.6021 121.102L98.6021 121.101ZM124.711 119.399C126.397 116.608 127.479 113.476 129.428 110.843C130.024 109.538 130.528 108.184 131.151 106.886C131.782 105.6 132.008 104.151 132.682 102.891C133.167 102.506 133.602 102.312 133.032 101.7C133.454 100.658 134.45 101.597 134.213 102.397C134.923 104.059 136.133 105.643 137.919 106.209C139.23 106.695 140.773 107.153 142.076 106.382C143.733 105.691 144.958 104.335 145.855 102.82C147.526 100.147 148.862 97.1995 149.227 94.0402C149.501 91.9246 149.867 89.7771 149.664 87.6421C148.783 86.3032 147.088 87.8608 147.415 89.116C147.332 93.4735 146.546 97.9786 144.207 101.725C143.331 103.21 141.746 104.357 139.962 104.242C138.414 104.249 137.129 103.274 136.112 102.204C135.379 101.669 135.082 100.79 134.962 99.9287C134.635 100.446 133.697 101.464 133.559 100.288C133.917 98.1743 135.063 96.2723 135.414 94.1581C135.158 92.9768 135.501 91.5868 136.904 91.4086C137.738 91.2541 139.821 91.2203 138.827 89.8902C138.12 88.916 137.129 87.5201 138.051 86.3662C139.119 85.449 138.891 83.9515 138.239 82.8665C137.842 81.357 136.092 81.8855 135.315 82.75C134.929 83.7486 136.881 83.9418 136.723 85.1489C137.07 86.9645 136.844 88.9246 136.069 90.6033C135.724 91.7122 133.528 92.3683 134.876 93.5555C135.181 94.6442 133.989 94.9996 134.06 96.1034C133.322 97.8154 132.488 99.4877 131.836 101.238C130.882 103.475 129.935 105.721 128.786 107.865C128.093 108.953 128.127 110.389 127.384 111.494C127.068 113.327 126.07 114.968 125.69 116.785C124.956 117.782 124.543 119.045 123.772 119.903C123.265 121.517 124.516 119.785 124.711 119.399L124.711 119.399ZM140.896 116.02C141.841 113.931 142.326 111.572 142.096 109.281C141.85 107.95 140.039 108.304 139.029 108.044C137.507 107.684 137.573 109.503 137.54 110.499C137.502 112.382 137.307 114.45 138.321 116.129C138.982 117.263 140.413 117.374 140.896 116.02H140.896ZM81.0041 103.613C81.0898 102.738 81.1306 101.041 80.5074 100.634C80.262 101.71 80.2409 102.899 80.5334 103.964C80.7233 104.096 80.9464 103.759 81.0041 103.613L81.0041 103.613ZM83.1394 102.979C82.5085 101.994 82.5032 103.941 83.1394 102.979V102.979ZM140.259 102.02C140.147 100.636 139.819 99.273 139.241 98.0126C139.124 96.9296 138.853 95.5531 137.741 95.0915C137.655 96.2543 138.375 97.4964 138.679 98.6679C139.155 100.059 139.516 101.494 139.628 102.96C140.317 103.839 140.383 102.471 140.259 102.02V102.02ZM138.394 101.124C137.857 99.4986 137.657 97.7331 136.829 96.2208C135.844 96.0933 135.357 98.0761 135.642 98.9697C136.095 100.236 136.682 101.527 137.656 102.476C138.702 102.975 138.638 101.744 138.394 101.124H138.394ZM79.2121 98.0588C79.218 95.1923 79.2841 92.3175 79.235 89.4562C78.5334 88.8428 77.3544 87.7395 76.3373 88.0561C75.7259 89.1604 76.045 90.5106 76.0589 91.7199C76.3733 94.7857 76.4749 98.0166 77.9135 100.812C78.148 101.331 79.2044 102.986 79.1059 101.5C79.18 100.355 79.1997 99.2063 79.212 98.0588L79.2121 98.0588ZM83.6837 101.149C84.4482 101.228 85.1203 100.096 83.9715 100.316C83.3812 100.266 81.5574 101.581 82.978 101.351C83.2149 101.29 83.4492 101.219 83.6837 101.149ZM143.299 101.041C143.875 98.72 142.663 96.4709 142.691 94.1527C142.392 93.0077 143.249 90.9909 141.982 90.4585C140.536 89.6408 140.094 91.4839 139.917 92.5339C140.126 93.8253 140.814 94.994 141.142 96.262C141.709 97.8996 142.035 99.6292 142.778 101.2C142.919 101.594 143.274 101.32 143.299 101.041L143.299 101.041ZM83.3328 99.4006C84.5588 99.0641 85.4901 98.2407 85.4848 96.8782C86.058 95.5336 84.8942 94.4389 84.0064 93.6002C82.7813 92.4006 82.579 94.4565 82.6161 95.3358C82.5712 96.7083 82.2727 98.0984 82.4714 99.4643C82.6291 99.8743 83.0945 99.5146 83.3329 99.4007L83.3328 99.4006ZM81.0113 97.0498C81.1842 94.8161 81.0564 92.5555 81.3734 90.3373C82.138 89.5306 83.3716 91.2979 84.1758 91.6873C84.5387 92.1319 86.6156 93.3841 85.5494 92.1195C84.2398 90.7994 82.8122 89.5989 81.2848 88.5384C81.4043 86.2538 81.5304 83.968 81.6696 81.6857C80.7446 80.8647 81.003 83.3492 80.916 83.9875C80.7737 85.1111 81.0875 86.5397 80.2551 87.3999C78.984 87.1771 78.2267 85.7575 76.919 85.5041C76.7582 86.3053 78.6952 86.6854 79.2108 87.4669C80.2358 88.3445 80.0996 89.7816 80.3723 91.0022C80.5118 93.6248 80.1122 96.2408 80.1711 98.8589C80.5678 100.262 81.0052 98.2293 81.0111 97.0497L81.0113 97.0498ZM90.7801 98.4861C91.5882 98.4341 92.7482 96.7509 91.2611 97.2483C90.6069 97.5064 88.5792 97.9414 89.3511 98.8476C89.8506 98.8754 90.3215 98.6513 90.78 98.4861H90.7801ZM130.565 98.0587C129.711 93.6999 129.204 89.1985 129.755 84.7687C130.152 83.8535 129.389 83.0978 128.67 83.9822C126.097 85.7248 123.18 86.8812 120.452 88.3567C119.358 88.9006 118.41 89.6963 117.167 89.8909C115.837 90.3691 114.445 90.7958 113.228 91.4968C114.712 92.4211 116.434 92.946 118.033 93.6638C121.842 95.1937 125.626 96.788 129.318 98.5833C129.883 98.8662 130.966 99.1498 130.565 98.0588L130.565 98.0587ZM140.887 98.1864C140.696 97.3699 140.177 96.2943 139.694 95.8224C140.038 96.6162 140.103 98.396 140.837 98.5023L140.876 98.3601L140.887 98.1864ZM144.477 98.0714C144.276 96.8425 143.746 99.1282 144.452 98.4364L144.471 98.2784L144.477 98.0714V98.0714ZM132.739 97.2919C133 95.8471 133.083 94.2679 132.535 92.8808C131.733 91.8644 131.039 90.783 130.689 89.5349C130.142 90.3471 130.841 91.8698 130.828 92.9446C131.108 94.6762 131.161 96.4601 131.645 98.1486C132.175 98.8947 132.651 97.7295 132.739 97.2918V97.2919ZM150.475 97.0364C150.95 94.8563 151.902 92.7812 151.975 90.5227C152.196 86.9593 152.13 83.372 151.8 79.8174C151.61 77.9493 150.965 76.1335 149.97 74.5467C149.603 75.4539 149.984 76.7777 149.848 77.8364C149.862 80.3137 149.627 82.8053 149.909 85.2728C150.255 86.4551 151.136 87.4687 151.075 88.7786C151.237 90.902 150.469 92.9419 150.306 95.043C150.403 95.8049 149.546 97.218 150.169 97.5657C150.332 97.4339 150.417 97.2315 150.475 97.036V97.0364ZM93.7719 96.9778C94.5978 96.9209 94.729 95.7742 93.7633 96.1956C93.0987 96.4006 91.8025 97.7883 93.3176 97.1568L93.5327 97.075L93.7719 96.9778H93.7719ZM145.838 94.4907C145.96 93.5546 146.693 91.3083 145 91.7669C144.665 92.9067 144.774 94.1498 144.796 95.3322C144.678 96.2006 145.335 97.5018 145.523 95.9859C145.646 95.4915 145.748 94.992 145.838 94.4907L145.838 94.4907ZM92.212 95.6898C93.2844 95.2057 94.4933 95.0627 95.3991 94.2593C96.6308 93.9067 97.8279 93.399 98.912 92.6843C99.8514 92.1917 101.676 91.0388 99.7185 90.6003C98.0864 89.974 96.5789 89.1 95.0527 88.2609C93.4954 87.4999 91.9576 86.6591 90.3114 86.1104C89.6022 87.0096 90.1393 88.5429 89.9998 89.6744C90.0373 91.6209 90.0292 93.5835 89.6504 95.4993C89.4614 97.1287 91.5149 95.8786 92.2119 95.6898L92.212 95.6898ZM139.367 94.6638C138.848 93.7095 138.4 91.3643 136.922 92.2508C135.5 92.7777 137.774 93.5822 138.218 94.0328C138.471 94.2253 139.11 95.123 139.367 94.6638V94.6638ZM134.384 91.3286C135.507 90.2461 135.909 88.5941 136.038 87.0823C135.995 85.8873 135.758 84.5443 134.883 83.6722C133.934 83.1479 133.413 84.1237 134.453 84.5776C135.793 85.2263 135.622 86.8398 135.394 88.0606C135.113 89.1878 134.808 90.5258 133.774 91.1951C133.24 91.4064 131.515 89.6187 132.228 90.9611C132.728 91.7231 133.666 91.9485 134.383 91.3287L134.384 91.3286ZM86.2087 90.3147C86.0714 88.3162 85.7195 86.3374 85.4499 84.3546C85.2632 83.578 83.6855 82.6357 83.2242 83.0417C83.0109 84.4561 82.854 85.8825 82.6746 87.3003C83.0281 88.5588 84.2989 89.2978 85.1283 90.2456C85.535 90.5634 86.2897 91.5708 86.2086 90.3147L86.2087 90.3147ZM134.71 87.2015C134.956 86.5858 134.748 84.9038 133.953 85.9883C133.721 87.1337 133.678 88.3668 133.975 89.5045C134.587 89.7489 134.597 87.7227 134.71 87.2015V87.2015ZM145.812 87.8411C144.736 87.0011 143.26 87.2762 142.027 86.8176C141.045 86.7119 138.997 85.4309 138.664 86.9464C138.767 88.4362 140.831 87.6522 141.839 88.0433C143.259 88.3147 144.734 88.5068 146.059 89.1003C146.46 88.7578 146.102 88.1408 145.812 87.8411L145.812 87.8411ZM108.775 87.788C111.607 86.3968 114.772 85.836 117.576 84.3682C119.855 83.3744 122.25 82.6863 124.617 81.9484C126.152 81.3801 127.53 80.4228 129.133 80.0473C130.458 79.6049 131.411 78.4607 131.693 77.1078C132.278 74.6206 132.648 72.0861 133.198 69.5901C133.661 68.4588 133.025 67.1961 131.661 67.6185C118.083 67.7997 104.503 67.7895 90.9262 68.0254C90.6691 71.0712 90.7524 74.1437 90.7498 77.2004C90.6296 78.3177 91.2109 79.4796 90.6344 80.5288C90.4373 81.6136 87.6023 80.4473 88.9573 81.8061C90.6177 83.0263 92.7709 83.1636 94.6025 84.0301C96.1397 84.6425 97.658 85.3768 99.2673 85.7445C100.532 86.5693 102.099 86.8128 103.493 87.3759C104.75 87.7411 105.916 88.6916 107.297 88.3154C107.814 88.2198 108.313 88.0343 108.776 87.7879L108.775 87.788ZM131.89 87.1331C131.605 86.2013 133.086 85.0338 132.515 84.462C131.931 85.2542 131.174 86.4339 131.434 87.4834C131.814 88.356 131.794 88.5671 131.89 87.1331L131.89 87.1331ZM146.075 84.6839C146.104 83.8913 146.288 82.4469 145.513 82.1413C145.456 82.9629 144.49 83.1441 145.386 83.8801C145.664 84.7039 144.849 86.3898 145.763 86.7045C145.996 86.0642 146.009 85.3569 146.075 84.684L146.075 84.6839ZM143.145 84.0472C143.108 82.9098 143.488 81.8466 143.686 80.7481C143.868 79.461 144.072 78.1633 144.364 76.9063C143.988 75.1037 143.212 73.362 142.158 71.8536C141.673 71.0257 139.869 69.3464 140.21 71.362C140.134 73.6226 140.582 76.0032 139.594 78.1326C139.343 79.2255 138.502 80.4722 139.174 81.5477C140.054 82.7076 140.209 84.19 140.477 85.5758C141.277 85.5848 142.138 85.9026 142.888 85.5733C143.193 85.137 143.09 84.5486 143.145 84.0472V84.0472ZM147.91 85.4093C148.133 83.1963 147.843 80.9532 147.559 78.7552C147.115 76.9402 146.926 75.027 146.101 73.3298C144.927 71.6659 144.239 69.5478 142.49 68.3566C141.46 67.6756 140.188 67.182 138.984 67.7499C136.971 68.3235 135.13 69.8206 134.497 71.8636C133.127 75.392 132.036 79.153 132.191 82.9733C132.799 83.778 133.103 81.8533 133.064 81.3231C133.489 78.7387 133.971 76.1419 134.82 73.6599C135.662 71.8295 136.918 70.0033 138.775 69.1008C140.606 68.6205 142.38 69.8746 143.396 71.3111C144.76 73.108 145.876 75.1539 146.161 77.4241C146.467 79.4905 146.83 81.5485 147.173 83.6075C147.418 84.2582 146.633 86.4349 147.825 85.5828L147.91 85.4093ZM79.9128 84.4152C79.9416 83.4253 80.612 81.5709 79.2057 81.2821C77.8805 80.9839 76.6677 82.8914 77.6615 83.9175C78.2607 84.7612 79.8418 86.7999 79.9128 84.4152L79.9128 84.4152ZM84.2923 81.5118C83.4164 80.6257 83.8975 82.2226 84.3335 81.611L84.2923 81.5118ZM135.293 81.3774C136.154 81.1068 136.034 79.2661 136.85 80.4693C138.194 80.1565 138.267 78.2276 138.407 77.0635C138.748 75.9197 139.101 74.7506 138.955 73.5376C138.722 72.7157 139.304 70.7561 138.417 70.7018C138.189 71.9543 138.421 73.2745 138.142 74.5411C137.867 76.1805 137.687 77.9245 136.84 79.3832C135.563 79.3175 134.513 80.2144 134.258 81.5189C134.253 82.1184 135.035 81.4219 135.293 81.3773L135.293 81.3774ZM144.905 80.4207C144.574 80.462 144.946 81.9892 144.96 80.7757L144.945 80.5786L144.905 80.4207H144.905V80.4207ZM81.6095 79.9753C81.171 79.3716 78.6479 79.8883 80.3762 80.2107C80.7677 80.2186 81.3369 80.3148 81.6095 79.9753ZM86.4047 79.8293C85.6724 79.63 83.3605 79.5736 83.4216 79.9108C84.3949 79.9655 85.4829 80.0782 86.4047 79.8293ZM87.7945 79.6686C87.1865 79.0832 86.7012 80.3993 87.7706 79.961C88.0004 80.0127 87.9269 79.6959 87.7945 79.6686ZM135.68 78.5075C136.299 77.5627 136.965 76.6524 137.143 75.5024C137.488 75.1544 137.789 73.2151 137.009 74.0329C136.544 75.3629 135.946 76.6473 135.065 77.7595C134.63 78.2642 133.867 79.7477 135.185 79.0196C135.389 78.894 135.568 78.7222 135.68 78.5075L135.68 78.5075ZM83.782 78.5698C85.613 78.5032 87.4452 78.4764 89.277 78.4419C89.2436 75.087 89.4467 71.7374 89.6014 68.388C89.8747 67.1747 89.3934 65.7572 87.9068 66.2754C83.3826 66.5993 78.8328 66.4233 74.3151 66.8384C73.6764 67.7124 73.9809 69.1728 73.807 70.2908C73.7284 72.8958 73.4861 75.5048 73.6172 78.1102C73.8645 79.437 75.8201 78.6092 76.8108 78.8152C79.1352 78.7551 81.4585 78.6593 83.7821 78.5698L83.782 78.5698ZM74.8838 77.4956C74.837 74.7806 75.2905 72.0767 75.3682 69.3612C74.9545 67.6903 76.8942 68.1044 77.9385 68.0186C80.8581 68.0155 83.7836 67.8924 86.6806 67.5477C88.1398 67.3303 88.5005 68.6481 88.0772 69.7935C87.8256 72.0732 87.9887 74.3778 87.7418 76.6544C87.3538 78.2013 85.6354 76.9526 84.578 77.4233C81.3963 77.5496 78.206 77.6611 75.0235 77.5297L74.8838 77.4956ZM78.9056 76.405C80.0353 75.9318 79.1869 74.4248 79.1786 73.5037C78.7935 72.2711 78.8085 70.6017 79.9906 69.8085C81.2689 69.2487 83.2322 69.5063 83.8375 70.9077C83.6684 72.2404 84.6505 73.5524 84.0998 74.8011C83.5315 75.4454 83.402 76.7119 84.6132 76.3376C85.2166 76.2743 85.8162 76.1796 86.4176 76.1003C86.5402 73.9703 86.802 71.844 86.8008 69.7104C86.64 68.7026 84.9592 68.2737 84.1638 68.6094C82.8479 68.6253 81.4903 68.7302 80.1743 68.9703C79.0959 69.3115 77.8399 69.0442 76.9138 69.0131C76.4328 70.3545 76.5377 71.8358 76.402 73.2432C76.4572 74.3213 76.0572 75.6495 76.5606 76.562C77.3272 76.7328 78.1621 76.6405 78.9055 76.4049L78.9056 76.405ZM80.8429 74.6082C80.212 73.6238 80.2066 75.5709 80.8429 74.6082V74.6082ZM83.2974 74.1663C82.8025 74.5449 83.5832 75.2058 83.2974 74.1663V74.1663ZM82.1883 74.1999C82.6061 73.2932 81.2653 73.3204 81.6614 74.2154C81.7641 74.4328 82.0744 74.354 82.1883 74.1999ZM81.929 71.927C83.8245 71.8489 82.2032 69.5761 80.9892 70.4268C79.5855 70.6489 79.4455 73.261 81.1288 72.1018C81.3923 72.0297 81.6594 71.9705 81.929 71.927H81.929ZM72.1859 76.7168C72.3645 73.6081 72.5975 70.4923 72.5396 67.3771C72.509 65.9702 70.8889 65.655 69.997 64.9035C67.5371 63.329 65.2052 61.5453 62.6435 60.1361C62.117 61.1126 64.0839 61.8853 64.8981 62.4049C66.6811 63.3519 68.1268 64.7923 69.8843 65.782C71.2019 66.4142 71.1556 67.983 70.9948 69.213C70.7784 71.012 70.8463 72.8327 70.6618 74.6302C70.188 76.1241 68.5445 74.4277 67.7648 74.0169C65.9141 72.6266 63.9755 71.3627 62.0446 70.0862C60.5211 69.4788 61.0199 67.6311 60.9394 66.3508C61.0005 64.0751 61.3147 61.8184 61.5735 59.5597C61.0791 59.1168 60.635 58.6041 60.0695 58.2513C59.6707 60.01 59.7416 61.8573 59.636 63.6577C59.6274 65.4738 59.4581 67.3073 59.6851 69.1128C60.4208 70.0395 61.6193 70.6342 62.5694 71.3915C63.6781 71.9733 64.6873 72.7239 65.5409 73.5859C67.037 74.2232 67.9589 75.9083 69.6243 76.2122C70.5335 76.516 71.1587 77.8082 72.0217 77.8349C72.152 77.4776 72.1696 77.0926 72.1862 76.7167L72.1859 76.7168ZM163.23 76.082C162.771 74.924 162.943 73.6741 163.375 72.6076C163.485 71.8075 163.461 70.8355 162.643 71.3309C162.773 70.2786 163.872 69.5503 163.602 68.298C163.622 67.1003 163.903 65.8576 163.592 64.6855C162.51 64.054 163.073 63.0518 163.483 62.3016C162.831 60.5691 161.165 62.6485 161.926 63.7258C161.968 65.0674 161.579 66.3843 161.591 67.7321C161.528 70.0009 161.347 72.3035 161.737 74.5509C161.806 75.2918 162.512 76.729 163.299 76.2432L163.23 76.082L163.23 76.082ZM178.282 75.9846L180.519 75.8102C180.508 72.2944 180.809 68.7695 180.526 65.2603C179.85 64.2525 178.208 64.8366 177.133 64.6493C173.331 64.6898 169.498 64.5527 165.725 65.0964C164.268 65.2058 164.992 67.0766 164.744 68.0429C164.667 70.8406 164.677 73.6395 164.648 76.438C169.193 76.3159 173.742 76.261 178.282 75.9847L178.282 75.9846ZM166.375 74.9087C165.609 73.8628 166.182 72.4308 166.138 71.2232C166.338 69.5483 166.228 67.8013 166.756 66.1873C168.244 65.9595 169.813 66.016 171.334 65.912C173.719 65.8662 176.111 65.5878 178.494 65.7485C180.159 66.1155 179.369 67.9756 179.368 69.1381C179.198 70.9132 179.397 72.7459 178.954 74.4806C176.797 74.9461 174.549 74.7035 172.356 74.8781C170.629 74.9327 168.922 75.2468 167.2 75.3312C166.872 75.3287 166.579 75.1578 166.375 74.9088L166.375 74.9087ZM171.644 74.1197C172.433 73.8425 171.046 72.623 171.391 71.9031C170.771 70.8506 170.071 69.3925 171.175 68.3747C171.978 67.1145 173.675 67.381 174.84 67.8899C175.931 68.6471 175.719 70.1558 175.9 71.3138C176.22 72.1175 175.53 73.2356 175.853 73.8278C177.061 73.8409 178.594 73.2846 178.043 71.8023C178.008 70.3316 178.444 68.8768 178.32 67.4113C177.654 66.2882 176.007 66.9618 174.904 66.8341C172.538 66.9444 170.165 67.0751 167.826 67.457C167.096 68.182 167.571 69.7375 167.398 70.8027C167.517 71.8957 166.921 73.53 168.135 74.1236C169.284 74.3528 170.482 74.1376 171.644 74.1195L171.644 74.1197ZM174.182 71.492C172.977 70.7822 173.485 73.5111 174.257 72.0057C174.405 71.8555 174.338 71.6043 174.182 71.492ZM173.094 70.1274C173.775 70.0752 174.216 69.4459 174.734 69.0588C174.037 68.5992 173.109 67.8465 172.314 68.5242C171.706 69.08 171.504 71.121 172.773 70.11L172.961 70.0943L173.094 70.1274ZM160.98 74.2826C161.006 73.0146 160.275 71.824 160.499 70.5311C160.76 67.7599 161.166 64.9852 161.13 62.1974C161.293 61.4492 159.766 60.0664 160.034 61.5706C160.319 63.0467 159.733 64.497 159.777 65.9795C159.55 66.9962 160.062 69.0249 159.145 69.4214C158.846 67.7563 159.094 66.0267 159.162 64.3402C159.259 62.8728 159.443 61.4136 159.631 59.9557C158.988 60.4443 158.528 61.135 158.577 61.9788C158.388 65.5585 158.279 69.1476 158.308 72.7322C158.097 73.986 159.401 73.528 159.238 72.5434C159.396 71.9114 158.952 70.5284 159.545 70.345C159.98 71.6736 159.496 73.2398 160.276 74.4604C160.506 74.7223 160.887 74.6099 160.98 74.2829V74.2826ZM69.7266 70.4105V67.2353C68.2101 66.2632 66.8016 65.1279 65.2605 64.1977C64.2611 64.1875 63.2718 61.9341 62.5375 62.9314C62.2469 64.5024 61.7241 66.1377 62.1037 67.7331C62.7817 69.307 64.4066 70.1332 65.6822 71.1684C66.9095 72.0106 68.088 72.9736 69.449 73.5858C69.8573 72.629 69.6604 71.4531 69.7266 70.4105L69.7266 70.4105ZM148.721 72.3712C148.005 72.0309 148.636 73.8143 148.704 73.5726C148.749 73.1805 148.9 72.745 148.721 72.3712ZM147.101 69.9437C146.108 69.0823 144.857 68.4719 143.716 67.8455C144.928 69.6052 146.865 70.9905 147.309 73.1901C147.447 73.7935 147.455 72.6345 147.531 72.3971C147.644 71.5511 147.909 70.5497 147.101 69.944L147.101 69.9437ZM157.513 70.5827C157.425 69.0911 157.711 67.6075 157.657 66.1223C157.684 65.0184 156.689 65.2887 156.828 66.2632C156.64 68.1103 156.413 70.0292 156.841 71.8557C157.491 73.7936 157.542 71.1015 157.513 70.5827L157.513 70.5827ZM155.824 69.0785C155.528 68.3963 156.607 67.4892 155.73 67.0678C155.276 68.2805 155.268 69.6484 155.336 70.9336C155.613 72.4736 155.987 70.0064 155.824 69.0784L155.824 69.0785ZM148.828 70.0076C148.968 69.5651 148.507 67.9951 148.359 69.2699C148.172 69.8837 148.614 72.2714 148.811 70.5038L148.824 70.2643L148.828 70.0076H148.828ZM136.762 67.7407C136.238 67.0331 134.757 67.6831 135.024 68.7126C134.892 69.2992 135.693 68.5027 135.992 68.4304C136.275 68.2385 136.59 68.0477 136.762 67.7407ZM147.55 68.2306C147.572 67.2276 144.451 66.9756 145.99 67.9852C146.356 68.1146 147.635 69.3147 147.55 68.2306ZM150.868 67.0812C151.098 66.4693 150.958 64.905 150.645 64.849C150.513 65.7776 149.928 66.8345 150.526 67.7074C150.703 67.5385 150.773 67.2981 150.868 67.0812L150.868 67.0812ZM148.241 64.7749C147.588 63.7492 147.703 62.4263 147.618 61.2506C147.711 60.2324 147.402 58.7727 148.194 58.0899C149.301 57.6614 148.777 55.6883 148.621 54.7013C148.118 54.8535 148.45 57.5468 147.843 56.0722C148.339 54.4836 145.907 53.7823 145.7 55.4958C145.244 56.3519 145.866 57.9339 145.151 58.4729C144.518 57.3369 145.38 55.9336 144.901 54.7448C143.87 55.171 144.35 57.2814 144.112 58.3688C144.057 60.725 143.969 63.098 144.219 65.4442C144.866 66.6304 144.922 64.3718 144.865 63.8772C144.933 62.5767 144.731 61.13 145.243 59.9369C145.69 61.0347 145.518 62.3079 145.536 63.4807C145.617 64.2177 145.018 66.3344 146.154 66.0425C146.638 64.9791 147.026 66.1892 147.865 65.8523C148.53 65.8484 148.28 68.0939 148.49 66.6889C148.496 66.0633 148.711 65.2826 148.241 64.7748L148.241 64.7749ZM146.528 64.5279C147.159 63.1005 147.064 65.5631 146.528 64.5279V64.5279ZM146.483 61.5605C146.236 61.0389 146.638 59.7091 146.982 60.8579C147.204 61.3821 146.896 63.4723 146.539 61.9626L146.507 61.7685L146.483 61.5604L146.483 61.5605ZM146.632 57.1649C146.652 56.6879 146.687 54.4282 147.111 55.7296C146.999 56.5317 147.416 58.4997 146.694 58.6448C146.574 58.1627 146.614 57.6568 146.632 57.165L146.632 57.1649ZM91.43 66.53C92.5314 65.6964 90.8398 66.2531 90.5922 66.6452C90.8692 66.7371 91.1673 66.6134 91.43 66.53ZM100.779 63.9715C100.834 63.5072 100.732 61.0281 100.288 62.5495C100.431 63.1219 99.9076 65.1202 99.54 63.7094C99.1953 62.5041 100.205 61.2334 99.6146 60.1215C99.0074 59.3598 99.355 61.1468 98.9978 61.5172C98.9424 62.6454 98.5257 63.9221 99.0001 64.9692C99.7911 65.0677 100.047 66.0258 100.491 66.3247C100.824 65.6055 100.742 64.747 100.779 63.9714L100.779 63.9715ZM112.236 60.7434C112.356 59.3299 112.289 57.8706 112.688 56.502C113.336 56.9304 112.898 58.5898 113.022 59.4994C113.023 61.0975 113.076 62.7018 112.722 64.2738C112.55 64.9213 112.353 66.8627 113.48 66.2715C113.395 65.7567 113.201 64.138 113.95 64.4179C114.08 65.0383 114.116 65.6738 114.197 66.3018C114.923 66.2229 115.736 66.4012 116.391 66.0655C116.793 65.3079 115.616 63.4378 115.603 65.1517C115.721 65.9388 115.035 66.1242 115.129 65.218C115.193 64.504 114.79 62.8897 115.598 62.7516C115.753 63.2655 116.239 64.0683 116.384 63.0187C116.7 60.5808 117.167 58.1429 117.184 55.6777C117.335 54.8239 116.546 54.4961 116.551 55.5473C116.134 57.6367 116.055 59.7759 115.85 61.8893C115.091 62.3678 115.485 60.3613 115.383 59.8958C115.357 58.7601 115.576 57.5577 115.201 56.4672C114.535 56.9917 114.854 58.555 114.633 59.4913C114.491 60.8713 114.509 62.2865 114.143 63.6302C113.237 63.8753 113.777 61.9041 113.725 61.2607C113.865 59.3234 114.207 57.3606 113.934 55.4237C113.841 54.4287 113.126 54.8096 113.198 55.621C112.828 56.7018 112.355 55.7905 112.71 55.1389C112.555 53.6138 111.36 57.1966 111.208 55.3746C111.25 53.8325 110.257 55.7018 110.362 56.3435C110.333 56.868 109.931 58.6188 110.672 58.3626C110.458 57.7057 111.479 55.8457 111.625 57.3509C111.759 60.032 111.121 62.6813 111.13 65.3542C111.107 66.0832 111.793 66.8074 111.817 65.6629C112.06 64.0352 112.133 62.3847 112.236 60.7434L112.236 60.7434ZM129.148 64.2258C128.957 63.6586 129.408 61.76 129.873 63.102C130.029 63.9072 129.72 65.5076 130.28 65.8108C130.71 63.6065 130.685 61.3389 130.987 59.1168C131.514 58.1044 132.3 59.6955 131.803 60.313C131.602 62.2236 131.385 64.164 131.555 66.0816C132.295 66.9714 132.2 64.4475 132.252 63.8947C132.384 62.6529 131.94 61.0306 132.977 60.1246C133.855 60.737 132.83 62.341 133.181 63.3613C133.224 64.2574 133.304 65.1513 133.366 66.0463C133.951 66.0156 134.591 66.2023 135.133 65.9471C135.497 65.4798 135.376 63.3078 136.197 64.1358C136.393 64.7377 136.056 66.9144 137.17 65.7536C137.846 66.1799 139.155 66.3178 138.718 65.0485C138.53 63.144 138.712 61.2178 138.86 59.3146C138.889 58.093 139.455 56.959 139.49 55.7589C139.623 55.1489 138.953 53.7148 138.758 55.0336C138.292 57.2394 138.182 59.5254 137.536 61.6889C136.998 60.6571 137.501 58.8742 137.56 57.584C137.383 56.8027 138.531 55.2266 137.667 54.9597C136.987 56.0209 137.036 57.3872 136.713 58.5866C136.795 59.2112 136.024 60.09 135.953 59.001C136.365 57.741 136.403 56.3632 136.336 55.0488C135.097 53.8211 135.114 56.1604 135.177 56.9891C135.256 58.4716 134.752 59.8838 134.776 61.3616C134.62 62.6527 134.996 64.1554 134.378 65.3099C133.549 64.5393 134.176 63.0327 134.065 61.9588C134.2 59.6619 134.391 57.3655 134.741 55.0908C134.339 53.9302 133.49 55.7927 133.619 56.4217C133.604 56.9512 133.18 58.3843 133.113 57.1054C132.981 56.3709 133.344 53.9496 132.064 55.0926C132.014 56.133 132.334 57.9011 131.312 58.4377C130.889 57.4292 131.688 56.0677 131.029 55.1962C129.871 55.498 130.309 57.2474 130.09 58.1987C130.127 59.5247 129.152 59.1772 129.089 58.1724C128.835 58.5412 128.357 60.0501 129.421 59.8545C130.49 59.6018 129.757 62.8878 129.223 61.3182C128.53 59.9509 128.55 62.4318 128.414 62.9373C128.313 64.0311 128.167 65.1437 128.294 66.2385C129.257 66.5101 129.101 64.7866 129.148 64.2261V64.2258ZM137.026 64.7259C136.992 63.9933 136.809 62.4559 137.517 62.2202C138.033 62.5873 137.874 66.2161 137.026 64.7259ZM135.793 62.9942C136.425 61.5668 136.329 64.0295 135.793 62.9942V62.9942ZM135.793 61.5735C136.424 60.5891 136.43 62.5362 135.793 61.5735V61.5735ZM135.793 60.8218C136.4 59.7903 136.418 61.4671 135.793 60.8218V60.8218ZM132.923 59.4848C132.8 59.2321 133.187 57.5263 133.39 58.1341C133.772 58.579 133.59 60.1559 132.923 59.4848ZM141.907 65.3696C141.498 64.1342 142.108 62.8309 142.056 61.5617C142.219 60.0796 142.087 58.5337 142.552 57.1052C143.072 56.7682 143.083 58.8233 143.387 57.5109C143.372 56.743 143.81 54.9119 143.006 54.8368C142.608 54.9325 142.661 56.7146 142.471 56.0581C142.448 55.3128 141.663 54.3577 141.469 55.6483C141.11 58.0472 141.225 60.4908 141 62.9049C141.047 64.0037 140.62 65.3147 141.21 66.2798C141.687 66.312 142.331 65.8893 141.907 65.3696L141.907 65.3696ZM93.4758 63.9762C93.6301 63.3504 93.0476 61.5457 92.8138 63.0397C92.9284 63.9037 92.343 65.6713 93.0515 66.0598C93.5553 65.5193 93.4395 64.6616 93.4758 63.9762V63.9762ZM96.0953 65.8123C95.8937 64.3311 96.6241 62.7896 96.0697 61.3486C95.2211 61.5197 95.3464 63.1754 95.3125 63.9796C95.2526 64.3912 95.6226 67.1068 96.0953 65.8124L96.0953 65.8123ZM104.564 63.9851C104.463 62.541 105.025 61.1758 105.059 59.736C105.197 58.1594 105.325 56.5672 105.57 55.0123C104.443 55.3742 104.812 57.3118 104.542 58.3358C104.377 59.8915 104.367 61.476 104.033 63.0061C102.886 62.9583 104.128 60.8461 103.456 60.0941C102.799 61.0148 103.107 62.5361 102.919 63.6916C102.845 64.3342 102.813 65.7975 103.403 64.5207C104.125 64.0913 104.085 67.0799 104.505 65.3937C104.568 64.9273 104.575 64.455 104.564 63.9851V63.9851ZM108.636 65.7419C107.689 64.8211 107.951 66.5387 108.864 66.1625C109.101 66.0685 108.654 65.8354 108.636 65.7419ZM117.994 64.96C118.343 62.5338 118.144 60.023 118.828 57.6523C119.536 56.5708 119.22 58.8777 119.239 59.3701C119.207 61.603 118.473 63.8769 119.07 66.0828C119.726 65.5666 119.587 63.763 119.869 62.7764C120.018 61.4817 120.617 60.2055 120.235 58.8944C120.044 57.5809 120.239 56.2155 119.915 54.9284C119.194 54.9638 119.49 56.6357 118.926 55.5824C118.368 54.0627 117.726 56.0592 117.855 56.8204C117.597 59.8402 117.351 62.8794 117.491 65.9107C117.668 66.7129 118.001 65.1454 117.994 64.9597V64.96ZM122.855 65.3753C123.168 63.9163 122.767 62.3438 123.357 60.9476C124.343 60.379 123.677 62.8824 123.743 63.5609C123.771 64.1821 123.25 66.1488 124.243 65.71C124.607 64.3547 124.449 62.9124 124.626 61.522C124.788 59.3452 124.981 57.1661 125.259 55.0037C124.723 54.1666 122.67 54.6635 122.753 55.8412C122.328 59.026 122.442 62.2585 122.041 65.4456C122.071 66.4399 122.78 66.3537 122.855 65.3753L122.855 65.3753ZM123.566 59.2153C123.542 58.0304 123.131 56.6214 124.117 55.6952C124.445 56.7656 124.177 57.9873 124.083 59.1047C124.151 59.7642 123.499 60.7078 123.565 59.4959L123.566 59.2152L123.566 59.2153ZM125.72 65.8833C126.11 64.2726 126.041 62.5823 126.27 60.9414C126.415 59.0326 126.787 57.1198 126.649 55.2032C125.643 54.5067 125.78 56.7866 125.67 57.4748C125.635 59.9197 125.194 62.3323 125.07 64.7686C125.055 65.1574 125.071 66.8635 125.72 65.8833L125.72 65.8833ZM127.334 64.5218C127.025 63.6335 126.494 65.501 126.886 66.0246C126.992 66.6471 127.217 65.1431 127.289 64.9115L127.31 64.7672L127.334 64.5218ZM140.034 65.5989C140.412 63.4227 140.375 61.1958 140.543 58.9968C140.5 58.2203 140.656 57.1269 140.173 56.5895C139.625 58.4381 139.825 60.4173 139.588 62.3205C139.656 63.5674 138.899 64.8319 139.334 66.0379C139.658 66.4364 139.954 65.8714 140.034 65.599L140.034 65.5989ZM143.149 62.4523C143.079 61.5413 143.381 59.5871 142.91 59.2905C142.574 61.4509 142.537 63.6676 142.691 65.8468C143.065 66.3595 143.037 64.5559 143.092 64.135C143.121 63.5745 143.138 63.0134 143.15 62.4523L143.149 62.4523ZM106.027 63.8152C106.159 61.9066 106.071 59.8671 106.944 58.117C108.094 57.6588 108.351 56.2299 108.106 55.0828C107.014 54.9342 108.101 57.3914 107.152 57.4093C106.739 56.7513 107.233 55.1604 106.401 55.0691C106.089 57.0552 105.751 59.041 105.691 61.0554C105.578 62.6323 105.152 64.2973 105.71 65.829C106.098 65.4631 105.933 64.3949 106.027 63.815L106.027 63.8152ZM107.413 64.8562C107.157 63.7289 107.714 62.5951 107.541 61.4356C107.637 60.9271 107.331 59.3142 107.143 60.6189C107.083 62.2589 106.647 63.924 107.006 65.5518C107.507 66.4029 107.619 65.216 107.413 64.8563V64.8562ZM110.373 64.7072C110.621 63.1059 110.714 61.4635 110.552 59.8493C110.021 59.2649 110.04 61.1374 109.891 61.5754C109.682 62.9912 109.38 64.4578 109.736 65.8746C110.156 65.8992 110.26 65.0439 110.373 64.7071L110.373 64.7072ZM121.276 64.364C121.613 61.5411 121.486 58.6771 121.935 55.8673C122.709 54.8233 120.751 54.3963 121.032 55.6961C120.991 59.0251 120.712 62.3497 120.488 65.6662C120.888 66.5675 121.308 64.4745 121.276 64.364V64.364ZM94.6451 65.2643C94.0924 64.1645 93.9892 66.6933 94.6451 65.2643V65.2643ZM102.057 64.242C102.239 63.5716 101.584 62.5667 101.395 63.7459C101.025 64.364 101.752 66.4314 102.014 64.9017C102.044 64.6831 102.057 64.4625 102.057 64.242H102.057ZM87.3376 64.9975C88.1155 65.0483 88.7373 65.5548 89.4701 64.919C90.0657 65.0137 91.7713 63.9465 90.6803 63.7406C89.188 64.5644 87.4031 64.4029 85.7556 64.5542C81.91 64.7662 78.0504 64.5653 74.209 64.8277C72.8514 65.3038 75.2263 65.449 75.7273 65.3706C79.5969 65.317 83.4793 65.3049 87.3375 64.9975L87.3376 64.9975ZM97.9676 65.0877C97.9821 64.5453 98.0518 63.4002 97.4617 64.4312C96.4778 64.3098 97.2957 62.1626 98.3064 62.069C98.5695 61.3346 98.8707 59.5359 98.1992 59.196C97.7892 60.0189 98.3517 61.3772 97.6827 61.9387C97.0996 61.2838 97.9798 59.6925 97.2943 59.4146C96.838 60.8801 96.7471 62.4578 96.7659 63.9856C96.7098 64.4105 97.6554 65.9414 97.9676 65.0877L97.9676 65.0877ZM92.341 64.96C92.3253 64.084 91.4494 64.1705 91.7662 64.9988C91.8841 65.1528 92.3286 65.2494 92.341 64.96ZM152.217 64.0343C151.35 63.5704 151.996 66.0293 152.222 64.5326C152.249 64.371 152.287 64.1918 152.217 64.0343ZM72.6664 64.7426C72.3251 63.1159 70.1115 63.7325 69.3274 62.3768C68.4416 61.738 67.534 61.0964 66.5361 60.6597C65.7252 59.5764 64.3823 59.1366 63.4431 58.1844C62.9822 57.4897 61.9392 57.8362 62.7896 58.5508C63.7582 59.4592 65.1353 59.8646 65.9212 60.9735C66.9195 61.5644 67.9757 62.0539 68.8581 62.8301C70.0392 63.5659 71.1695 64.493 72.521 64.8788L72.6303 64.8423L72.6664 64.7426ZM109.073 62.3219C109.149 60.1254 109.493 57.9279 109.356 55.7299C108.805 55.1227 108.606 57.4873 108.535 58.1003C108.388 60.201 108.24 62.317 108.392 64.4199C109.038 64.9836 108.992 62.6454 109.073 62.3219ZM157.904 62.1247C157.632 61.3633 158.581 59.6695 157.991 59.4932C157.105 60.8076 157.014 62.5273 157.226 64.055C157.755 65.4509 158.005 62.7888 157.904 62.1246V62.1247ZM94.8984 62.7573C95.1336 61.8557 94.246 61.6518 94.2233 62.6156C93.8558 63.3253 94.5406 65.1925 94.8318 63.554C94.8778 63.2911 94.897 63.024 94.8984 62.7573H94.8984ZM149.596 63.9287C148.878 63.7859 148.285 61.4645 149.575 61.999C150.073 61.421 150.118 59.7928 149.729 59.1198C149.761 59.7073 149.092 61.8289 148.587 60.4393C148.251 58.8033 147.942 61.2179 148.067 61.8132C148.046 62.7617 148.098 64.9909 149.548 64.0554L149.596 63.9287ZM178.86 63.3655L180.649 63.1644C176.286 62.9979 171.913 62.9776 167.555 63.2702C166.961 63.2673 165.205 63.5262 166.767 63.644C170.717 63.7605 174.678 63.6519 178.621 63.3899L178.86 63.3655ZM82.8937 63.3101C85.058 63.252 87.2485 63.3935 89.3935 63.0732C88.7884 62.552 87.2292 62.8367 86.2738 62.7321C82.2642 62.7708 78.2482 62.6985 74.2439 62.9342C72.7731 63.3306 75.4198 63.6886 75.9531 63.4129C78.2655 63.3333 80.5801 63.3224 82.8938 63.3101H82.8937ZM127.655 63.0336C127.594 60.3055 128.653 57.6332 128.294 54.8982C127.483 54.3217 127.439 56.4172 127.428 57.0631C127.476 58.9388 127.147 60.7893 126.965 62.6453C126.809 63.2938 127.556 64.204 127.655 63.0336V63.0336ZM72.6643 62.9926C72.1854 61.8965 70.9634 61.3565 70.0314 60.6825C69.049 59.8907 68.1409 59.2636 67.0472 58.6071C66.5078 57.8136 65.1826 58.2601 66.0509 59.1068C67.5695 59.8609 68.9588 60.8582 70.3286 61.8374C71.3272 61.9188 71.7952 63.2066 72.5896 63.2704L72.6444 63.1583L72.6642 62.9924L72.6643 62.9926ZM91.987 62.6557C91.4921 63.0343 92.2727 63.6953 91.987 62.6557V62.6557ZM150.824 61.8197C150.974 61.2538 150.392 60.2696 150.366 61.3913C150.186 61.8861 150.881 63.5888 150.825 62.1881L150.826 62.0148L150.824 61.8197L150.824 61.8197ZM102.173 62.0114C102.502 60.0147 102.609 57.9624 102.964 55.9848C101.863 55.3489 102.018 57.675 101.846 58.4194C101.735 59.2435 101.792 60.4705 100.67 60.1929C99.5862 60.9574 101.234 60.454 101.501 60.8197C101.508 61.2194 101.595 63.6817 102.173 62.0114L102.173 62.0114ZM172.083 62.1181C172.924 62.2139 173.094 61.7108 172.174 61.7882C169.787 61.7335 167.385 61.7221 165.011 61.9861C165.86 62.2883 167.527 62.1351 168.692 62.1902C169.822 62.1884 170.954 62.173 172.083 62.1181L172.083 62.1181ZM177.642 62.0506C178.177 62.256 179.687 61.772 178.456 61.5291C177.35 60.6525 178.963 60.0508 179.747 60.5228C181.136 60.4229 180.794 58.5289 180.974 57.5225C181.11 54.7137 181.149 51.9015 181.23 49.0909C179.103 48.5087 176.88 48.8587 174.707 48.8413C172.3 48.8649 169.878 49.0703 167.48 48.7999C166.534 48.9678 166.865 46.9376 165.95 47.9146C166.365 48.3101 166.778 49.1145 165.707 49.0763C165.097 50.0899 165.537 51.5257 165.349 52.7044C165.335 55.1704 165.088 57.649 165.316 60.1086C166.15 60.9745 167.919 60.3898 169.108 60.6258C171.814 60.716 174.535 60.5431 177.231 60.8172C178.246 61.4605 176.059 61.5348 175.605 61.5138C175 61.4854 172.555 61.7189 174.181 62.123C175.332 62.2976 176.482 61.9388 177.642 62.0505L177.642 62.0506ZM166.985 59.5393C166.317 58.569 166.763 57.1935 166.667 56.0509C166.76 54.1023 166.642 52.108 167.083 50.1996C168.186 49.7469 169.454 49.901 170.629 49.7846C173.582 49.6975 176.541 49.5605 179.493 49.7095C180.178 50.4602 179.776 51.9437 179.932 52.9782C179.916 55.0227 179.967 57.0866 179.651 59.1117C178.63 59.7425 177.071 59.4154 175.841 59.5964C172.965 59.6672 170.079 59.8036 167.207 59.5954L166.985 59.5395L166.985 59.5393ZM172.16 57.64C171.537 56.4572 170.945 55.1586 171.535 53.8149C172.342 52.0763 175.43 52.1235 176.098 53.9667C176.515 54.7605 175.695 55.6272 175.297 54.5206C174.967 53.3305 172.218 53.2197 172.467 54.6627C173.006 55.8244 174.761 54.3934 175.497 55.5334C176.591 55.9293 176.061 57.8906 175.36 58.4973C175.122 59.3229 176.778 58.4438 177.324 58.5411C177.766 58.3085 178.861 58.3918 178.856 57.7605V50.7022C175.366 50.725 171.844 50.7122 168.399 51.3265C167.439 52.208 167.952 54.0277 167.735 55.2709C167.982 56.3133 166.88 58.5045 168.631 58.4748C169.735 58.4958 170.79 58.9972 171.892 58.7789C172.486 58.8214 172.689 58.6279 172.338 58.1004C172.279 57.947 172.219 57.7936 172.16 57.6401L172.16 57.64ZM84.636 61.5239C86.2816 61.4763 87.9492 61.5621 89.575 61.2731C89.9545 60.2358 89.8015 58.9581 89.9178 57.8213C89.9877 55.218 90.1767 52.6001 89.9239 50.0027C89.3132 48.7134 87.1876 49.4253 85.9735 49.2357C82.3933 49.3499 78.8009 49.2064 75.2294 49.5083C73.84 49.6996 74.4995 51.6743 74.2296 52.6633C74.1342 55.5544 73.9989 58.4531 74.1335 61.3433C74.8321 62.2813 76.4047 61.5449 77.4502 61.6887C79.8442 61.5895 82.2404 61.5463 84.636 61.5237L84.636 61.5239ZM75.0872 59.2253C75.4021 56.4248 75.3431 53.5908 75.6607 50.7953C76.217 49.3507 77.8974 51.0342 78.9466 50.2509C80.2039 50.2397 81.4638 50.5893 82.735 50.3328C84.4713 50.2123 86.3167 49.7681 87.9993 50.3963C89.3659 51.1387 88.3377 52.9467 88.5358 54.1615C88.3696 56.0064 88.6914 57.96 88.0159 59.7218C87.2227 60.658 85.7412 60.2108 84.6362 60.3715C81.6142 60.4804 78.5645 60.2832 75.5638 60.7027C75.0074 60.9475 74.7943 60.8057 74.9853 60.209C75.0192 59.8811 75.0532 59.5532 75.0872 59.2253L75.0872 59.2253ZM81.1986 59.3671C81.804 58.5523 80.2839 57.4051 80.656 56.341C79.9226 55.358 80.0127 54.1416 80.9672 53.3321C82.1421 52.1214 84.2137 52.6147 85.1523 53.8552C85.0656 55.0768 85.6451 56.2556 85.5467 57.445C85.3343 58.1919 83.6305 59.5368 85.4077 59.1733C86.8691 59.393 87.5997 58.3928 87.3107 57.0203C87.3493 55.3447 87.543 53.6668 87.496 51.9932C86.8867 51.0985 85.1926 51.7617 84.1664 51.5392C81.7492 51.5908 79.308 51.4742 76.9093 51.81C76.3556 51.7856 76.7153 52.5188 76.61 52.8664C76.5991 54.99 76.5882 57.1135 76.5772 59.2371C78.1034 59.4288 79.6713 59.6063 81.1987 59.3669L81.1986 59.3671ZM83.6547 56.9787C82.8661 55.4636 83.1018 58.0224 83.6547 56.9787V56.9787ZM82.5924 55.3456C84.0439 55.8052 84.4203 53.2374 82.7238 53.8802C81.774 53.6295 80.5291 54.8463 81.3284 55.5576C81.7162 55.3568 82.1574 55.238 82.5924 55.3456ZM92.7143 61.0746C92.1763 60.2691 92.4643 59.0428 92.5584 58.0267C92.7076 56.2371 93.0086 54.4177 92.7593 52.6303C91.5327 51.421 90.8626 53.4043 91.1755 54.4675C91.3005 56.7127 90.9541 58.957 91.0398 61.1962C91.5446 61.3964 92.2486 61.3574 92.7143 61.0745V61.0746ZM95.6837 58.9887C98.105 56.6237 100.945 54.3886 104.393 53.8788C106.521 53.5369 108.715 53.4238 110.843 53.7987C111.902 53.4336 112.863 52.4746 113.995 53.4052C115.176 54.07 116.352 53.5906 117.581 53.5455C122.883 53.3882 128.195 53.8443 133.489 53.4107C136.736 53.2394 139.995 53.4944 143.237 53.2496C144.515 53.4123 144.328 51.653 143.138 51.9607C138.053 51.7893 132.963 51.9683 127.876 51.9855C116.904 52.1298 105.929 52.1638 94.9607 52.4322C93.2449 52.2575 94.1323 54.6693 93.8444 55.7216C93.8094 57.4575 93.4117 59.1582 93.3156 60.8866C93.9178 60.9594 94.9924 59.5098 95.6845 58.9888L95.6837 58.9887ZM72.7067 60.3501C72.8189 56.9623 72.9964 53.5751 73.082 50.1868C73.2843 48.8407 72.1171 48.0563 71.0315 47.6089C69.2929 46.6325 67.9208 45.1345 66.1701 44.1789C65.4068 43.7842 65.5956 43.2586 65.9973 42.8661C64.912 42.7617 63.7972 42.1589 62.6631 42.3745C61.849 42.5664 61.012 42.4884 60.1983 42.346C60.1808 45.8128 60.1634 49.2798 60.146 52.7466C60.9835 53.3752 62.0236 53.8238 62.5968 54.7292C62.9592 55.4348 64.4758 55.0898 65.1088 55.9022C66.3677 56.4427 67.0912 57.4776 68.2621 58.0852C69.6378 58.9199 70.7359 60.2573 72.2919 60.7589C72.5327 60.817 72.7198 60.5661 72.7067 60.35V60.3501ZM69.4698 57.3305C67.7078 56.0194 65.5406 55.3118 63.9705 53.727C63.1311 52.748 61.3928 52.6125 61.6249 50.9712C61.5038 48.4806 61.9277 45.9982 62.3428 43.551C62.5854 41.7309 64.0405 43.5573 64.7668 44.0234C65.8298 44.6598 66.9218 45.2916 67.9216 45.9738C69.0658 46.5076 69.9397 47.509 70.9386 48.2707C71.3666 49.6927 69.1279 48.3603 68.6071 47.872C66.9936 46.8478 65.3858 45.8163 63.8902 44.6269C63.4939 44.2898 63.1247 44.0245 63.1256 44.7432C62.8317 46.6703 62.7736 48.624 62.6243 50.5662C64.0393 52.205 65.6075 53.7422 67.5358 54.77C68.3264 55.107 69.415 56.1027 70.1413 55.9123C70.2823 53.8584 70.1015 51.7709 70.4644 49.7392C71.5814 48.42 71.3301 51.2259 71.3542 51.9388C71.3075 53.7635 71.429 55.6145 71.0824 57.4153C70.8614 58.4998 69.9426 57.7273 69.4696 57.3306L69.4698 57.3305ZM163.765 60.3537C164.174 57.7941 164.096 55.1806 164.335 52.6011L164.44 51.0394C163.83 51.5296 163.115 51.8882 162.325 51.9158C161.867 53.0187 162.119 54.3026 162.026 55.4829C161.944 56.8363 162.181 58.2878 161.662 59.5642C161.15 60.4077 163.392 61.3115 163.765 60.3538L163.765 60.3537ZM160.89 55.7522C160.839 54.463 160.842 53.1663 160.695 51.8843C157.519 51.7021 154.327 51.8423 151.146 51.8641C149.149 51.9303 147.139 51.8888 145.153 52.1038C144.656 53.296 146.88 53.2698 147.668 53.379C150.123 53.3186 152.418 54.3025 154.585 55.3438C156.447 55.9887 157.707 57.6321 159.508 58.3808C160.168 58.6595 161.314 60.2877 160.962 58.6551C160.94 57.6874 160.915 56.7198 160.89 55.7523L160.89 55.7522ZM101.258 57.1578C101.339 56.0908 100.651 56.5892 100.815 57.345C100.753 57.9049 100.836 59.8644 101.111 58.2743C101.181 57.9054 101.238 57.533 101.258 57.1578ZM99.9923 57.9246C99.3235 57.096 99.4297 59.9475 99.8414 58.4138C99.8984 58.2534 99.9651 58.0938 99.9923 57.9246ZM151.49 57.8489C151.872 57.1515 151.114 56.2931 150.936 57.4295C150.687 58.1156 151.148 59.1656 151.49 57.8489ZM65.3205 58.0913C65.4614 56.7362 63.261 56.7977 62.71 55.7123C62.0015 55.0175 60.9732 54.48 60.0621 54.0635C59.9578 55.5189 61.7325 55.891 62.6888 56.577C63.5904 56.8152 64.4222 58.4302 65.3205 58.0913V58.0913ZM61.6747 57.4046C61.5536 56.5924 59.0693 55.6588 60.275 56.9815C60.5719 57.1239 61.6937 58.1544 61.6747 57.4046ZM129.563 56.0716C129.727 55.396 129 54.3976 129.148 55.6531C129.107 56.1914 129.169 58.4917 129.523 56.9063C129.558 56.6297 129.572 56.3503 129.563 56.0716H129.563ZM104.101 56.3121C103.543 54.3013 103.211 58.4052 104.083 56.5655L104.101 56.3121ZM150.104 56.0289C150.204 55.2179 149.892 55.1094 149.804 55.9302C149.467 56.9656 150.097 57.4616 150.104 56.0289ZM140.648 55.3474C140.611 54.2062 139.469 55.1336 140.306 55.6569C140.509 55.7827 140.663 55.5211 140.648 55.3474ZM92.8607 50.4322C93.5217 49.4002 92.9266 47.3636 91.5971 48.67C91.1185 49.4763 91.0215 51.7522 92.5188 50.9343C92.6878 50.8096 92.7879 50.6225 92.8607 50.4322V50.4322ZM104.786 50.8358C107.071 50.8521 109.366 50.7898 111.642 51.0001C112.744 50.794 112.739 49.4743 112.527 48.6068C112.442 48.18 111.715 48.5128 111.353 48.4135C105.757 48.4866 100.157 48.4195 94.5665 48.6951C93.9936 49.121 93.619 51.3522 94.9889 50.9454C98.2542 50.9052 101.52 50.8373 104.786 50.8356L104.786 50.8358ZM130.169 50.7199C134.748 50.6791 139.327 50.6475 143.906 50.5914C144.187 49.5097 143.995 48.0673 142.552 48.5178C133.698 48.5146 124.843 48.6249 115.989 48.4993C114.9 48.3723 113.427 48.5153 113.824 50.0009C113.786 51.6395 115.802 50.7102 116.799 50.8888C121.255 50.8002 125.712 50.7601 130.168 50.7198L130.169 50.7199ZM164.114 48.747C163.127 48.0878 161.433 49.0826 162.418 50.1598C163.176 50.3603 164.657 51.1564 164.381 49.6517C164.375 49.3425 164.372 48.9655 164.114 48.747ZM161.043 49.5939C160.929 49.2486 161.205 48.483 160.608 48.6564L145.567 48.5155C145.442 49.1832 144.76 50.3307 145.871 50.4284C148.703 50.6944 151.557 50.5109 154.398 50.5494C156.639 50.5423 158.88 50.5352 161.121 50.5281L161.043 49.5939ZM89.4028 48.0318C89.9946 48.1635 90.9016 47.7336 89.79 47.6714C88.4623 48.0332 87.3792 47.0744 86.1531 47.6192C82.5687 47.8913 78.9545 47.5193 75.3792 47.9325C74.7007 48.3485 76.9013 48.1515 77.3566 48.2199C81.3726 48.2223 85.3874 48.0853 89.4028 48.0318L89.4028 48.0318ZM168.629 47.7611C167.528 47.1268 168.219 48.7579 168.629 47.7611V47.7611ZM171.954 47.7652C171.777 46.9717 170.401 48.1013 171.583 48.0006C171.726 47.9623 171.87 47.8915 171.954 47.7652ZM175.128 47.9297C174.586 47.4253 172.45 47.7748 174.109 48.0157C174.437 48.0007 174.833 48.0723 175.128 47.9297ZM112.485 47.1187C112.928 46.7071 112.747 45.7727 112.589 45.3356C107 45.2104 101.408 45.2408 95.8193 45.3326C94.5506 45.0013 93.5041 47.3682 95.3192 47.178C99.8684 47.4642 104.435 47.3154 108.99 47.2717C110.155 47.231 111.327 47.2499 112.485 47.1187L112.485 47.1187ZM139.54 47.2593C141.003 47.2575 142.466 47.2558 143.929 47.2541C143.977 46.6945 144.469 45.8166 143.937 45.4837C138.482 45.2186 133.015 45.2005 127.554 45.2308C124.444 45.3433 121.335 45.2734 118.225 45.2559C116.995 45.27 115.764 45.3093 114.534 45.3377C114.405 45.9096 113.566 46.8272 114.278 47.1674C117.82 47.4585 121.385 47.3132 124.937 47.3352C129.805 47.3041 134.673 47.2697 139.54 47.2593L139.54 47.2593ZM153.216 47.2446C155.738 47.2001 158.279 47.31 160.788 47.0386C161.651 46.9236 161.21 45.9229 161.221 45.3408C156.487 45.3609 151.752 45.2849 147.019 45.399C146.023 45.2352 144.589 45.8315 145.538 46.9801C146.478 47.792 147.907 47.0405 149.066 47.2655C150.449 47.2506 151.833 47.245 153.216 47.2446L153.216 47.2446ZM93.4059 46.2318C93.776 44.5601 91.1348 45.2695 91.3607 46.5181C91.2612 47.0183 91.2064 47.4748 91.856 47.2442C92.5594 47.1437 93.7904 47.3992 93.4059 46.2318V46.2318ZM164.687 46.8512C165.805 46.2034 167.262 46.9407 168.522 46.7262C173.112 46.7454 177.711 46.7415 182.29 46.3995C182.951 46.4739 184.692 45.6221 183.143 45.5004C179.184 45.1393 175.198 45.3113 171.228 45.2984C169.39 45.375 167.515 45.1992 165.704 45.5619C165.281 45.8068 164.892 46.6798 164.656 45.7089C163.649 44.7699 161.554 46.1817 162.676 47.192C163.331 47.3171 164.151 47.2934 164.687 46.8512H164.687ZM82.1195 46.7055C84.7374 46.6505 87.3737 46.9375 89.9805 46.6099C90.5519 45.2823 88.0584 45.5206 87.1987 45.466C82.8863 45.4094 78.5731 45.411 74.2605 45.4365C73.1756 46.3947 75.2689 46.9291 76.0681 46.7683C78.0832 46.8555 80.1077 46.8644 82.1195 46.7055L82.1195 46.7055ZM71.5131 46.2318C70.6372 45.3457 71.1183 46.9426 71.5543 46.331L71.5131 46.2318ZM68.4461 44.4427C67.5487 43.4898 68.4041 45.4528 68.4461 44.4427V44.4427ZM94.3931 44.1841C98.9263 43.89 103.478 43.8858 108.02 43.7704C115.248 43.638 122.478 43.5072 129.706 43.7541C133.88 43.8895 138.055 43.8905 142.23 43.8096C146.555 43.7208 150.889 43.8212 155.205 43.5075C155.893 43.2987 155.904 43.1435 156.438 43.6745C158.245 44.215 160.161 43.8631 162.017 43.9457C169.604 43.8688 177.194 43.9374 184.778 43.7153C185.508 43.8095 187.095 43.5 185.661 42.9409C183.979 42.1602 182.087 42.4963 180.297 42.3125C177.734 42.1369 175.169 42.1024 172.603 42.2038C167.636 42.2496 162.666 42.3927 157.699 42.2902C156.604 42.655 156.215 40.5348 155.301 41.8437C154.307 42.5805 152.874 42.1813 151.697 42.325C149.204 42.3757 146.696 42.2816 144.214 42.5328C143.11 42.2132 141.85 42.0172 140.626 42.1338C135.636 42.2407 130.649 42.4967 125.656 42.4155C107.942 42.414 90.2268 42.5192 72.5122 42.3474C71.117 42.3734 69.6983 42.1917 68.3178 42.4167C69.2917 43.3687 70.7561 43.4914 71.9462 43.9613C74.2465 44.1696 76.5639 43.9269 78.8713 43.9664C83.6153 43.9475 88.3653 43.8704 93.1048 44.1079C93.643 44.1694 93.8278 44.6827 94.3925 44.1841L94.3931 44.1841ZM64.9508 41.4892C64.3538 41.1487 62.2079 41.0046 62.1515 41.5408C63.0528 41.7633 64.0694 41.799 64.9508 41.4892ZM69.4592 41.646C69.6187 40.4594 66.9987 41.8386 68.69 41.8784C68.95 41.8627 69.2735 41.8625 69.4592 41.646ZM66.2755 41.3728C65.6445 40.3884 65.6392 42.3355 66.2755 41.3728V41.3728ZM74.6457 41.4522C73.9054 41.2507 73.2785 41.6542 74.369 41.5667C74.4352 41.5697 74.9672 41.5403 74.6457 41.4522ZM89.9165 41.3728C90.5323 40.9521 87.2526 41.1092 89.0372 41.5279C89.333 41.7053 89.6379 41.4521 89.9165 41.3728ZM94.6256 41.1054C93.8984 40.5914 93.3132 41.7721 94.411 41.4411C94.5638 41.4439 94.9472 41.2453 94.6256 41.1054ZM99.6284 41.3728C99.0181 41.0002 98.2645 41.194 97.5838 41.1777C98.2691 41.307 98.9736 41.6589 99.6619 41.534L99.6706 41.4668L99.6285 41.3728L99.6284 41.3728ZM109.34 41.3728C108.023 40.9812 106.612 41.2329 105.251 41.2109C106.647 41.3291 108.048 41.4091 109.437 41.5795L109.429 41.5395L109.34 41.3728L109.34 41.3728ZM112.407 41.3728C112.034 40.4082 111.287 42.2399 112.407 41.3728V41.3728ZM118.286 41.3728C118.146 40.6487 116.373 41.5081 117.632 41.6283C117.863 41.6184 118.133 41.5667 118.286 41.3728ZM126.964 41.3912C126.808 40.9919 125.391 40.4477 126.622 40.1783C128.499 39.9339 130.424 39.8721 132.304 40.1111C133.687 40.4842 132.612 41.3239 131.707 41.2475C132.474 41.4339 134.029 41.6109 135.058 41.3451C135.24 40.7622 132.558 40.8999 133.547 40.2373C137.04 39.9523 140.554 40.1365 144.055 40.0843C154.772 40.0702 165.492 40.2389 176.208 40.0163C176.867 40.0739 177.966 39.837 176.72 39.5488C172.978 38.1785 169.097 37.2357 165.355 35.863C164.146 35.4374 162.904 35.1015 161.663 34.8097C160.33 33.9595 158.693 34.3155 157.195 34.2979C156.664 34.3134 156.133 34.3289 155.601 34.3444C158.299 35.4493 161.034 36.4746 163.835 37.2845C164.879 37.418 165.419 38.8777 163.974 38.7464C159.801 39.0753 155.607 38.9282 151.425 38.9691C144.168 38.9451 136.907 38.9971 129.651 38.8054C129.557 37.865 131.649 38.2742 132.479 38.1306C141.2 38.0001 149.923 38.0743 158.643 38.1361C159.721 38.0812 161.013 38.356 161.963 37.9186C161.044 37.0019 159.981 37.2357 158.909 37.5236C157.927 37.3911 159.524 36.781 158.518 36.5774C156.862 35.7409 154.942 35.6342 153.322 34.6977C152.292 34.1123 151.089 33.9799 150.037 33.4751C149.109 32.0458 147.997 34.0299 149.335 34.6031C149.931 34.9233 151.947 35.7273 150.584 36.3211C149.517 36.2356 148.53 35.5563 147.631 36.2902C141.987 36.428 136.337 36.3721 130.694 36.2001C130.115 36.3956 128.373 35.6635 129.706 35.4129C135.198 35.2471 140.697 35.5227 146.187 35.2728C146.776 35.3406 147.481 34.9458 146.472 34.7932C145.379 34.6134 144.231 33.5275 143.164 33.9346C142.202 34.9222 140.581 34.4433 139.33 34.6024C137.262 34.6067 135.202 34.2593 133.135 34.5159C132.514 34.532 131.861 34.6701 131.259 34.6117C130.057 33.7613 128.596 33.1075 127.827 31.8107C126.257 31.4226 124.596 31.617 122.989 31.5388C116.714 31.482 110.433 31.6176 104.164 31.33C103.447 31.1021 102.628 31.3603 103.743 31.7705C106.054 33.0367 108.449 34.1397 110.809 35.3096C116.159 35.3254 121.511 35.2154 126.859 35.3722C127.583 35.089 129.506 36.0135 128.006 36.3424C123.462 36.5256 118.909 36.4451 114.361 36.493C112.371 36.4449 110.35 36.5967 108.384 36.2311C107.796 35.8832 108.029 34.8665 107.086 34.6861C106.056 33.9964 104.804 33.7615 103.82 33.0058C102.557 32.2358 100.978 33.2192 99.7063 32.5414C98.6616 32.4066 97.5504 32.6106 96.5428 32.3211C96.5424 32.8451 96.956 33.7692 96.0189 33.3213C95.872 34.1624 97.3224 34.291 97.5234 33.395C98.7679 33.5583 99.6717 34.6824 100.885 35.0422C102.879 35.9682 105.122 35.1618 107.204 35.5395C107.746 36.7029 105.426 36.2705 104.701 36.3998C102.853 36.4284 101.004 36.4424 99.1557 36.464C97.2071 35.3489 95.1608 34.415 93.2058 33.3162C92.1954 32.5475 91.3092 31.5399 89.8889 31.777C88.4406 31.739 86.9775 31.5909 85.5353 31.767C86.3851 32.4875 87.6279 32.9572 88.6521 33.5359C90.9205 34.7527 93.354 35.6977 95.4537 37.2038C96.1863 38.2443 97.6656 37.8519 98.7618 37.9778C108.731 38.1893 118.704 38.0311 128.672 38.3163C129.879 38.6317 128.068 39.2776 127.518 39.0292C116.472 39.1319 105.424 38.9221 94.3795 39.0934C92.7883 39.0766 91.1754 39.1498 89.5971 39.0783C86.5205 37.5051 83.4049 35.9964 80.4395 34.2206C79.0101 33.5353 77.5257 32.9478 76.1856 32.0965C74.1378 31.7128 72.0282 31.8951 69.9528 31.8378C51.5426 31.9091 33.132 31.9034 14.7216 31.9577C11.7969 32.0055 8.86395 31.9384 5.9462 32.1662C5.48241 32.9178 7.2981 33.7848 7.94647 34.3625C9.93245 35.6715 11.6528 37.3474 13.7444 38.5039C14.7408 39.1073 15.8055 39.6401 16.892 40.0389C45.2855 40.0661 73.679 40.0791 102.072 40.0403C109.853 40.0879 117.636 40.0745 125.415 40.0383C126.882 40.6961 123.643 41.4823 125.435 41.6109C125.938 41.6146 126.524 41.6794 126.962 41.391L126.964 41.3912ZM130.671 41.1974C130.12 40.855 128.11 41.601 129.801 41.4728C130.098 41.4197 130.419 41.3767 130.671 41.1974ZM142.369 41.2706C140.705 41.0138 138.961 41.1544 137.265 41.1817C136.684 41.1419 134.899 41.3814 136.427 41.4421C138.402 41.4687 140.414 41.5527 142.369 41.2706V41.2706ZM163.14 41.3728C162.281 40.3168 162.333 42.2925 163.14 41.3728V41.3728ZM167.485 41.3728C167.132 40.7025 165.077 41.4406 166.564 41.6231C166.861 41.6158 167.314 41.6699 167.485 41.3728ZM169.529 41.3577C169.02 40.6733 168.825 42.3755 169.529 41.3577V41.3577ZM172.978 41.3757C172.946 40.8617 171.784 41.9366 172.797 41.5542L172.978 41.3757ZM174.897 41.3728C174.266 40.3884 174.26 42.3355 174.897 41.3728V41.3728ZM175.711 41.4538C174.449 41.2027 175.962 41.9854 175.711 41.4538V41.4538ZM25.6881 41.1982C24.4257 40.9471 25.9388 41.7299 25.6881 41.1982V41.1982ZM102.632 41.2035C101.414 40.9866 102.082 41.6199 102.632 41.2035V41.2035ZM119.884 41.1966C119.143 40.9951 118.516 41.3986 119.607 41.3111C119.673 41.3141 120.205 41.2847 119.884 41.1966ZM158.726 41.1955C157.921 40.9893 157.669 41.4717 158.673 41.3099C158.765 41.41 158.973 41.1496 158.726 41.1955ZM94.3123 37.653C93.4046 36.8855 92.1478 36.7891 91.1689 36.1087C88.5952 34.7218 86.082 33.1842 83.3619 32.0958C81.842 31.6988 80.236 31.7114 78.6759 31.7734C78.0414 32.1601 79.921 32.4949 80.2355 32.8532C83.4812 34.4901 86.5787 36.4377 89.9412 37.833C91.5705 38.4275 93.3304 38.1901 95.029 38.2835L94.3123 37.653ZM137.584 33.6438C138.82 33.5692 140.234 33.8999 141.341 33.2737C140.914 32.2955 140.416 31.216 140.268 30.0957C140.109 29.3471 140.146 28.5814 140.14 27.8218C138.534 27.7668 136.809 28.0385 135.344 27.2441C134.756 26.9384 134.37 25.0039 133.783 26.3329C133.24 28.4416 132.877 30.6164 132.04 32.6399C130.993 33.7766 133.257 34.0081 134.006 33.7223C135.189 33.5778 136.394 33.6387 137.584 33.6437L137.584 33.6438ZM147.04 33.5997C146.769 32.7406 145.632 32.9799 144.907 32.9499C145.319 33.3517 146.134 34.1535 146.894 33.877L147.002 33.7658L147.04 33.5997H147.04ZM95.2859 32.9327C94.4101 32.0466 94.8911 33.6435 95.3271 33.0319L95.2859 32.9327ZM131.2 32.0382C132.011 29.8523 132.298 27.4982 133.126 25.3172C132.893 22.9286 133.732 20.4677 132.952 18.1232C132.988 17.3453 132.219 16.6592 132.232 17.853C132.054 21.0142 131.374 24.1269 130.717 27.2177C130.34 28.7487 129.622 30.1999 129.464 31.7846C130.088 31.9215 130.734 32.751 130.806 33.0327C130.899 32.6891 130.989 32.3324 131.2 32.0384L131.2 32.0382ZM147.444 29.3546C147.633 28.1276 147.339 26.6741 147.761 25.5791C148.918 25.6876 148.19 23.587 148.415 22.8069C148.3 21.2082 147.928 23.2619 148.001 23.7859C148.023 24.4919 147.494 25.401 147.496 24.1152C147.323 23.1424 147.872 22.2164 147.53 21.2461C147.532 20.5373 147.3 20.6349 146.947 21.1459C146.298 21.8703 145.677 22.6602 144.755 23.0382C144.053 24.0913 142.551 23.2169 141.929 23.848C142.775 24.8883 144.466 24.0779 145.409 23.5047C146.604 23.5997 145.698 25.5245 145.848 26.3742C146.141 28.0994 144.467 26.9345 143.786 26.4308C142.438 26.0748 143.448 27.5001 144.199 27.4522C145.313 28.6733 144.607 30.8548 143.007 31.2439C142.48 31.2472 141.118 31.8076 142.354 31.9966C143.983 32.33 145.662 32.2704 147.3 32.0379C147.348 31.1434 147.396 30.2489 147.444 29.3544L147.444 29.3546ZM112.027 30.2714C117.475 30.1971 122.923 30.1404 128.372 30.1213C129.532 28.5154 129.718 26.4528 130.075 24.559C130.51 23.251 129.669 21.9688 130.139 20.6836C130.845 19.7486 131.795 18.771 131.072 17.4573C130.926 15.9846 129.507 15.5138 128.237 15.4089C126.641 15.095 124.958 15.2371 123.417 14.6728C121.353 15.0222 119.214 14.9462 117.115 15.0389C114.834 15.1471 112.518 15.0027 110.265 15.4271C107.807 16.1719 105.897 18.3053 105.375 20.8152C104.943 21.994 105.186 23.727 103.976 24.4423C102.298 24.2305 102.576 26.1806 102.596 27.2808C102.977 28.2998 101.875 29.917 103.059 30.4272C104.303 30.5263 105.591 30.3337 106.855 30.3616C108.579 30.3233 110.303 30.2948 112.027 30.2712L112.027 30.2714ZM143.251 29.9539C144.059 29.5414 143.732 26.9812 142.927 28.2142C143.144 28.9414 142.73 30.4915 141.885 29.3979C141.766 28.8057 141.862 27.8565 141.046 28.6999C140.501 29.7288 142.582 30.9403 143.251 29.9539ZM137.967 26.5432C137.07 25.5902 137.925 27.5532 137.967 26.5432V26.5432ZM101.161 25.5167C100.06 24.8824 100.751 26.5136 101.161 25.5167V25.5167ZM140.527 25.5126C140.886 22.8391 140.804 20.1218 140.976 17.4303C141.116 14.8641 141.27 11.9856 139.538 9.87072C138.336 8.17964 136.085 7.76574 134.145 8.03991C128.263 8.48982 122.356 8.68708 116.509 9.52037C113.927 9.97675 111.286 9.57303 108.804 8.80941C108.01 9.09605 108.876 11.1287 107.362 11.007C105.853 11.555 105.725 8.43586 107.118 8.73552C107.219 9.13363 106.674 10.2465 107.24 9.408C107.796 8.84691 108.315 7.80418 107.153 7.64522C106.181 6.93709 105.632 5.74427 104.557 5.1786C103.396 4.78714 101.908 5.15488 102.22 6.6564C101.887 11.0889 102.082 15.549 101.647 19.9737C101.353 21.5583 101.015 19.4437 101.155 18.891C101.125 14.5618 101.559 10.2252 101.24 5.90092C101.309 5.01744 100.612 4.89278 100.668 5.83854C100.343 9.89991 100.291 13.9816 100.265 18.0547C100.336 19.3943 100.183 20.8076 100.644 22.0857C101.275 23.1933 100.894 19.7988 101.704 21.3106C101.596 22.2793 101.369 23.9092 102.882 23.3103C104.39 23.2138 103.71 21.287 104.239 20.325C104.817 18.4996 105.799 16.7121 107.453 15.6588C108.791 14.2645 110.777 13.9782 112.614 13.8695C117.031 13.6559 121.461 13.6644 125.88 13.8297C128.416 13.9784 131.286 14.179 133.146 16.1463C134.552 18.0989 134.679 20.7072 134.186 22.9938C134.079 24.561 136.211 23.7667 137.157 24.0316C138.106 24.3146 137.587 26.1862 139.032 25.7302C139.525 25.702 140.086 25.7711 140.527 25.5126L140.527 25.5126ZM136.56 17.9814C136.968 16.0646 138.231 19.3048 136.661 18.4456L136.587 18.244L136.56 17.9814ZM103.077 17.8459C102.869 16.8349 103.139 15.4185 103.788 14.6057C104.451 14.6734 105.188 13.8485 104.12 13.8091C103.366 14.1014 102.328 14.4726 102.609 13.1171C102.948 11.9467 103.654 10.8644 103.592 9.59617C103.588 8.55566 103.467 6.32397 105.07 6.76504C105.679 7.84879 105.323 9.18855 105.606 10.3679C105.855 11.6798 106.792 13.0088 106.01 14.3424C104.944 15.2769 104.888 16.5884 104.604 17.8679C104.314 18.5117 103.357 18.4799 103.077 17.8458V17.8459ZM104.102 16.3177C103.471 15.3333 103.466 17.2804 104.102 16.3177V16.3177ZM105.324 12.3368C105.01 11.3883 103.966 11.7269 104.655 12.6134C104.757 13.9307 105.829 13.2143 105.324 12.3368ZM103.925 12.5761C104.395 11.6919 102.423 12.3409 103.55 12.7306L103.741 12.7011L103.925 12.5761ZM136.688 16.8551C135.605 16.3264 135.392 14.5188 136.899 14.5604C137.737 13.8855 136.156 13.591 136.152 12.86C134.847 13.2856 135.311 11.4924 134.659 11.2715C134.307 11.7238 134.704 13.8894 133.94 13.2641C133.723 12.2286 133.37 9.79265 135.112 10.2432C136.288 10.2836 135.304 13.1057 136.666 11.8211C137.669 12.1988 138.372 13.6427 137.846 14.6739C137.002 15.3962 138.488 16.8389 137.511 17.2785C137.227 17.158 136.955 17.0092 136.688 16.8549L136.688 16.8551ZM134.79 14.1682C134.372 13.2775 137.299 13.3452 135.969 14.415C135.585 14.6225 135.066 14.4986 134.79 14.1682ZM129.331 13.0423C128.401 12.8084 128.325 10.464 127.377 11.8536C126.717 12.2797 125.951 12.4783 125.221 12.7497L123.496 11.0783C124.002 10.7641 124.413 9.96504 125.057 10.1076C125.966 11.1698 127.341 10.2259 128.469 10.224C129.594 10.0528 130.811 8.79375 131.806 10.0044C132.399 10.3361 133.274 11.8852 131.976 11.0397C130.327 10.8198 131.864 13.6157 130.05 13.3001C129.795 13.2714 129.55 13.1751 129.331 13.0423L129.331 13.0423ZM132.555 13.1014C132.16 11.8381 134.182 12.3954 133.252 13.2639C133.033 13.4556 132.649 13.3978 132.555 13.1014ZM112.628 12.1006C112.178 10.655 114.474 10.6695 115.042 11.5717C114.849 12.2235 113.03 12.8943 112.628 12.1006ZM115.877 12.0081C115.458 10.5266 117.97 10.3691 118.901 10.7417C118.64 11.7931 117.126 12.9552 116.05 12.2321L115.877 12.0081ZM120.011 12.1946C118.841 10.8586 121.045 9.57937 122.12 10.4393C122.976 10.4408 124.198 11.9792 122.827 12.2107C121.897 12.0832 120.852 12.6985 120.011 12.1946V12.1946ZM144.657 22.2062C146.092 21.5559 146.556 19.8828 147.153 18.5596C148.22 15.5152 148.233 12.2243 148.094 9.03876C147.921 7.76175 147.321 6.54073 146.728 5.43262C145.902 4.48486 144.819 3.44052 143.447 3.90841C141.68 4.12021 140.418 5.78149 139.996 7.41008C139.582 8.44104 140.846 8.6904 140.879 7.58832C141.546 6.51003 142.002 4.80644 143.435 4.57596C145.36 4.53879 146.777 6.41813 146.972 8.20426C147.481 10.7593 147.465 13.3836 147.227 15.9639C146.766 17.1474 146.361 18.3558 145.945 19.5573C145.362 20.8774 144.083 21.8577 142.624 21.9468C141.803 22.4117 143.823 23.0166 144.24 22.4017L144.438 22.3105L144.657 22.2062ZM143.823 20.5073C145.096 19.3583 143.239 18.0638 142.118 19.0209C141.374 20.0954 142.842 21.0856 143.823 20.5073ZM145.25 18.7607C144.909 17.2254 144.422 19.6988 145.23 18.9037L145.25 18.7607ZM143.197 16.6288C143.85 15.6244 145.176 14.6118 144.782 13.1109C144.244 12.1531 144.929 10.3009 143.318 10.2527C142.556 10.0409 140.45 10.1641 141.677 11.2943C141.919 11.8531 143.554 12.8491 142.594 11.6934C141.863 11.258 141.814 10.317 142.839 10.7957C143.905 11.5926 143.741 13.1587 143.636 14.3382C143.818 15.8802 141.595 16.1235 141.961 17.6051C142.468 18.5699 143.284 17.177 143.197 16.6287V16.6288ZM146.228 16.3176C146.344 15.2968 147.04 13.7709 146.173 13.023C144.665 12.7624 145.81 14.9461 145.014 15.7558C144.873 16.1912 144.044 17.9696 144.956 16.9471C145.254 17.5979 145.89 18.0198 146.033 17.0223C146.107 16.7899 146.169 16.554 146.228 16.3175V16.3176ZM142.613 14.7625C143.134 14.1141 142.45 13.1274 142.098 14.2421C141.742 14.793 142.046 15.3904 142.613 14.7625ZM146.39 11.8838C147.137 11.4023 146.341 10.6828 145.861 11.38C145.084 11.2443 144.66 12.0488 145.623 12.1686C145.919 12.2674 146.168 12.0351 146.39 11.8838ZM146.125 9.48305C145.979 8.19629 145.508 6.82432 144.541 5.93007C143.494 5.97997 144.346 7.92777 144.357 8.70723C144.741 9.31939 144.717 10.7123 145.413 10.7714C146.05 10.6769 146.189 10.0274 146.125 9.48309V9.48305ZM142.691 8.4292C142.753 7.60482 141.988 6.48811 141.715 7.88572C141.369 8.4751 141.228 9.84345 142.183 8.92273C142.364 8.77794 142.594 8.64912 142.691 8.4292ZM152.12 134.203C152.299 132.813 151.396 131.632 150.791 130.461C150.209 129.227 149.194 128.31 148.394 127.251C148.226 126.165 150.13 126.231 150.765 126.201C151.109 127.544 151.29 128.947 151.868 130.23C152.402 131.563 152.856 132.995 152.884 134.431C152.704 134.836 152.106 134.602 152.12 134.203L152.12 134.203ZM149.933 105.194C149.534 104.551 148.071 104.161 149.058 103.43C149.227 102.619 150.313 101.331 151.038 101.589C150.714 102.849 150.823 104.166 150.656 105.448C150.598 105.94 150.069 105.318 149.933 105.194V105.194Z" fill="black"/>
</g>
<defs>
<filter id="filter0_d" x="0" y="0" width="192.719" height="158" filterUnits="userSpaceOnUse" color-interpolation-filters="sRGB">
<feFlood flood-opacity="0" result="BackgroundImageFix"/>
<feColorMatrix in="SourceAlpha" type="matrix" values="0 0 0 0 0 0 0 0 0 0 0 0 0 0 0 0 0 0 127 0"/>
<feOffset dy="4"/>
<feGaussianBlur stdDeviation="2"/>
<feColorMatrix type="matrix" values="0 0 0 0 0 0 0 0 0 0 0 0 0 0 0 0 0 0 0.25 0"/>
<feBlend mode="normal" in2="BackgroundImageFix" result="effect1_dropShadow"/>
<feBlend mode="normal" in="SourceGraphic" in2="effect1_dropShadow" result="shape"/>
</filter>
</defs>
</svg>
