<svg width="181" height="163" viewBox="0 0 181 163" fill="none" xmlns="http://www.w3.org/2000/svg">
<g filter="url(#filter0_d)">
<path fill-rule="evenodd" clip-rule="evenodd" d="M139.993 116.364C139.993 116.364 145.173 113.953 148.515 112.795C154.658 119.511 155.741 123.841 156.434 126.507C153.603 120.983 148.63 113.252 139.993 116.364V116.364Z" stroke="black" stroke-width="3.21325"/>
<path fill-rule="evenodd" clip-rule="evenodd" d="M31.5673 3C31.5673 3 65.8924 38.7752 86.8491 53.5523C105.597 66.7718 161.509 94.5745 169.956 110.229C178.711 126.455 174.559 141.142 168.872 149.019C162.446 151.997 149.723 153.114 146.891 152.991C142.208 152.787 137.642 149.282 137.642 149.282C137.642 149.282 140.53 152.656 148.277 150.185C153.155 148.63 159.441 141.079 157.129 129.575C152.464 106.365 130.03 101.577 112.867 91.4666C95.5537 81.267 67.7016 63.2743 39.5188 41.4978C12.0727 20.2913 7 7.66666 7 7.66666L31.5701 3.00032L31.5673 3Z" stroke="black" stroke-width="3.85589"/>
<path d="M144.105 133.094C143.795 132.974 143.835 133.613 143.961 133.806C144.301 134.332 144.895 133.996 145.134 133.493C145.561 132.594 145.177 131.42 144.537 130.957C143.598 130.277 142.468 131.026 142.046 132.296C141.484 133.989 142.188 135.956 143.384 136.656C144.89 137.536 146.605 136.333 147.193 134.291C147.904 131.817 146.869 129.033 145.113 128.108C143.045 127.018 140.736 128.681 139.988 131.498C139.123 134.751 140.493 138.358 142.808 139.505C145.438 140.808 148.343 138.68 149.251 135.089C150.27 131.059 148.565 126.625 145.69 125.258C142.498 123.741 138.996 126.333 137.929 130.7C136.755 135.507 138.796 140.769 142.232 142.354C145.985 144.087 150.085 141.029 151.31 135.886C152.64 130.303 150.263 124.214 146.267 122.409C141.952 120.46 137.254 123.984 135.871 129.902C134.385 136.262 137.099 143.18 141.656 145.203C146.531 147.367 151.828 143.378 153.369 136.683C155.011 129.547 151.96 121.8 146.843 119.559C141.407 117.178 135.51 121.634 133.813 129.104C132.014 137.016 135.402 145.593 141.079 148.051C147.076 150.649 153.572 145.726 155.428 137.481C157.383 128.792 153.658 119.387 147.42 116.709C140.862 113.895 133.767 119.284 131.754 128.305C129.989 136.22 132.519 144.969 137.656 149.161" stroke="black" stroke-width="4.1772"/>
<path d="M174.258 121.735L162.73 125.355" stroke="black" stroke-width="3.21325"/>
<path d="M36.6028 8.30713L23.2336 10.2514" stroke="black" stroke-width="3.21325"/>
<path d="M52.9531 24.3885L39.5838 26.3328" stroke="black" stroke-width="3.21325"/>
<path d="M68.9383 39.2834L55.5691 41.2277" stroke="black" stroke-width="3.21325"/>
<path d="M87.7765 53.9938L74.5101 56.6288" stroke="black" stroke-width="3.21325"/>
<path d="M108 66.9651L95.022 70.9286" stroke="black" stroke-width="3.21325"/>
<path d="M129.14 79.5112L116.162 83.4747" stroke="black" stroke-width="3.21325"/>
<path d="M149.006 91.6084L136.028 95.5719" stroke="black" stroke-width="3.21325"/>
<path d="M165.997 105.22L153.019 109.184" stroke="black" stroke-width="3.21325"/>
<path d="M173.938 139.059L162.41 142.68" stroke="black" stroke-width="3.21325"/>
<path d="M40.6028 11.9463L33.7377 13.1129" stroke="black" stroke-width="3.21325"/>
<path d="M56.3124 26.9301L49.4473 28.0966" stroke="black" stroke-width="3.21325"/>
<path d="M72.7894 42.1936L65.9243 43.3602" stroke="black" stroke-width="3.21325"/>
<path d="M91.9627 57.217L85.2297 59.072" stroke="black" stroke-width="3.21325"/>
<path d="M113.103 69.7551L106.37 71.6101" stroke="black" stroke-width="3.21325"/>
<path d="M133.282 81.5793L126.549 83.4343" stroke="black" stroke-width="3.21325"/>
<path d="M152.634 94.5022L145.901 96.3572" stroke="black" stroke-width="3.21325"/>
<path d="M168.716 108.307L161.983 110.162" stroke="black" stroke-width="3.21325"/>
<path d="M174.526 126.248L167.793 128.103" stroke="black" stroke-width="3.21325"/>
<path d="M43.1279 15.0571L36.9854 16.2237" stroke="black" stroke-width="3.21325"/>
<path d="M58.845 30.04L52.7025 31.2066" stroke="black" stroke-width="3.21325"/>
<path d="M75.7018 45.0234L69.5593 46.19" stroke="black" stroke-width="3.21325"/>
<path d="M95.5607 59.4536L89.547 61.2355" stroke="black" stroke-width="3.21325"/>
<path d="M116.7 71.9916L110.687 73.7735" stroke="black" stroke-width="3.21325"/>
<path d="M136.879 83.8162L130.866 85.5981" stroke="black" stroke-width="3.21325"/>
<path d="M156.239 96.7386L150.225 98.5206" stroke="black" stroke-width="3.21325"/>
<path d="M170.399 111.297L164.386 113.079" stroke="black" stroke-width="3.21325"/>
<path d="M174.742 129.656L168.728 131.437" stroke="black" stroke-width="3.21325"/>
<path d="M172.314 142.097L166.3 143.879" stroke="black" stroke-width="3.21325"/>
<path d="M171.226 144.574L165.213 146.356" stroke="black" stroke-width="3.21325"/>
<path d="M170.206 146.498L164.192 148.28" stroke="black" stroke-width="3.21325"/>
<path d="M169.312 148.078L163.298 149.86" stroke="black" stroke-width="3.21325"/>
<path d="M169.379 148.078L163.365 149.86" stroke="black" stroke-width="3.21325"/>
<path d="M46.3831 18.5522L40.2406 19.7188" stroke="black" stroke-width="3.21325"/>
<path d="M62.3461 33.3992L56.2036 34.5658" stroke="black" stroke-width="3.21325"/>
<path d="M79.7243 48.527L73.5818 49.6936" stroke="black" stroke-width="3.21325"/>
<path d="M99.866 62.0427L93.8524 63.8247" stroke="black" stroke-width="3.21325"/>
<path d="M121.006 74.5807L114.992 76.3626" stroke="black" stroke-width="3.21325"/>
<path d="M141.185 86.4055L135.171 88.1874" stroke="black" stroke-width="3.21325"/>
<path d="M159.651 99.6086L153.637 101.391" stroke="black" stroke-width="3.21325"/>
<path d="M171.636 114.167L165.622 115.949" stroke="black" stroke-width="3.21325"/>
<path d="M174.578 132.934L168.565 134.716" stroke="black" stroke-width="3.21325"/>
<path d="M49.6308 21.278L43.4883 22.4445" stroke="black" stroke-width="3.21325"/>
<path d="M65.348 36.2612L59.2055 37.4278" stroke="black" stroke-width="3.21325"/>
<path d="M83.4859 51.3885L77.3434 52.5551" stroke="black" stroke-width="3.21325"/>
<path d="M104.313 64.512L98.2994 66.2939" stroke="black" stroke-width="3.21325"/>
<path d="M125.453 77.05L119.439 78.832" stroke="black" stroke-width="3.21325"/>
<path d="M145.379 89.0107L139.365 90.7927" stroke="black" stroke-width="3.21325"/>
<path d="M163.39 102.215L157.376 103.997" stroke="black" stroke-width="3.21325"/>
<path d="M173.021 117.662L167.008 119.444" stroke="black" stroke-width="3.21325"/>
<path d="M174.236 135.948L168.222 137.73" stroke="black" stroke-width="3.21325"/>
</g>
<defs>
<filter id="filter0_d" x="0.336945" y="0.486206" width="180.592" height="162.441" filterUnits="userSpaceOnUse" color-interpolation-filters="sRGB">
<feFlood flood-opacity="0" result="BackgroundImageFix"/>
<feColorMatrix in="SourceAlpha" type="matrix" values="0 0 0 0 0 0 0 0 0 0 0 0 0 0 0 0 0 0 127 0"/>
<feOffset dy="4"/>
<feGaussianBlur stdDeviation="2"/>
<feColorMatrix type="matrix" values="0 0 0 0 0 0 0 0 0 0 0 0 0 0 0 0 0 0 0.25 0"/>
<feBlend mode="normal" in2="BackgroundImageFix" result="effect1_dropShadow"/>
<feBlend mode="normal" in="SourceGraphic" in2="effect1_dropShadow" result="shape"/>
</filter>
</defs>
</svg>
