<svg width="115" height="159" viewBox="0 0 115 159" fill="none" xmlns="http://www.w3.org/2000/svg">
<g filter="url(#filter0_d)">
<path d="M49.9674 142.22C49.9101 137.279 50.0079 134.353 50.2352 134.205C50.4321 134.076 51.1756 133.97 51.8874 133.97C53.9367 133.969 55.4148 133.615 55.4166 133.125C55.4189 132.482 56.4022 132.232 57.0415 132.712C57.6795 133.191 61.854 133.437 64.8335 133.171C66.521 133.02 66.968 132.859 67.1184 132.349C67.2737 131.822 67.4947 131.752 68.415 131.938C69.0252 132.061 70.1672 132.146 70.9528 132.126C71.7385 132.106 73.3052 132.092 74.4343 132.093C75.9899 132.096 76.488 131.984 76.4892 131.631C76.4901 131.374 76.6572 131.165 76.8605 131.166C77.1094 131.167 77.114 131.36 76.8746 131.759C76.5835 132.244 75.9129 132.387 73.1696 132.551C71.3274 132.661 69.3115 132.657 68.69 132.543C67.811 132.382 67.5594 132.446 67.5581 132.832C67.5571 133.115 67.1353 133.404 66.5738 133.504C65.3712 133.721 57.228 133.827 56.4859 133.636C56.022 133.516 55.9343 134.596 55.8263 141.76C55.7499 146.817 55.5675 150.021 55.3557 150.02C55.1369 150.019 55.1007 147.867 55.2568 144.164C55.3926 140.944 55.3887 137.461 55.248 136.425L54.9923 134.54L53.4161 134.695C50.5961 134.97 50.6358 134.854 50.8415 142.199C50.9413 145.761 50.9349 148.974 50.8272 149.339C50.2796 151.196 50.0489 149.286 49.9673 142.22L49.9674 142.22ZM53.2385 143.114C53.1543 139.231 53.1955 135.928 53.3301 135.772C53.4647 135.617 53.7863 135.564 54.0446 135.654C54.4213 135.784 54.4747 137.242 54.3142 142.996L54.1138 150.177L53.9497 143.117L53.7856 136.057L53.5886 143.115L53.3917 150.174L53.2385 143.114L53.2385 143.114ZM44.7967 134.388C44.9158 134.281 45.2238 134.271 45.4812 134.365C45.7656 134.468 45.6808 134.544 45.2647 134.558C44.8882 134.57 44.6777 134.494 44.7967 134.388L44.7967 134.388ZM52.5592 133.393L53.4524 133.231L52.5607 132.971L51.6689 132.712L52.5334 132.779C53.7999 132.879 53.9369 133.662 52.6774 133.603C51.6974 133.557 51.6936 133.551 52.5592 133.393L52.5592 133.393ZM77.5646 130.706C77.5655 130.451 77.7272 130.155 77.924 130.046C78.1207 129.938 78.2813 130.002 78.2806 130.189C78.2799 130.376 78.5299 130.53 78.8361 130.531C79.1423 130.532 79.2929 130.677 79.1709 130.853C78.8305 131.344 77.5628 131.228 77.5646 130.706L77.5646 130.706ZM80.0659 130.229C80.547 129.939 84.6832 129.742 84.3217 130.027C84.2397 130.091 83.1278 130.236 81.8509 130.348C80.2348 130.49 79.6923 130.454 80.0659 130.229L80.0659 130.229ZM85.8468 129.862C86.7556 129.643 87.1046 129.403 86.9718 129.089C86.866 128.839 86.9574 128.635 87.1747 128.635C87.3922 128.636 87.5696 128.766 87.5691 128.923C87.5674 129.386 88.7359 129.659 89.0123 129.26C89.2004 128.989 89.3312 128.992 89.5228 129.272C89.884 129.801 89.8236 129.819 87.0296 130.01C84.9525 130.152 84.7525 130.127 85.8467 129.862L85.8468 129.862ZM90.9574 129.026C91.0509 128.943 91.4924 128.705 91.9385 128.498C92.3846 128.291 92.7099 127.953 92.6616 127.746C92.5524 127.281 93.1633 127.253 93.4748 127.709C93.8286 128.228 93.0161 128.892 91.8447 129.042C91.2631 129.117 90.8638 129.11 90.9573 129.026L90.9574 129.026ZM81.2391 128.741C81.3581 128.635 81.6661 128.625 81.9234 128.718C82.2079 128.822 82.1231 128.898 81.7071 128.912C81.3306 128.924 81.1199 128.847 81.2391 128.741ZM85.4271 128.808C85.4274 128.731 85.5885 128.578 85.7853 128.47C85.9821 128.362 86.1425 128.426 86.1418 128.613C86.1411 128.8 85.98 128.952 85.7836 128.951C85.5872 128.951 85.4268 128.886 85.4271 128.808ZM80.9665 127.972C81.0885 127.796 81.349 127.652 81.5454 127.653C81.7418 127.654 81.8027 127.798 81.6807 127.974C81.5587 128.15 81.2982 128.294 81.1018 128.293C80.9054 128.292 80.8445 128.148 80.9665 127.972L80.9665 127.972ZM94.3579 127.667C94.3585 127.508 94.6401 127.372 94.9839 127.365C95.3276 127.359 96.2322 127.156 96.9941 126.915C97.7561 126.674 98.233 126.608 98.0543 126.767C97.5518 127.215 94.3567 127.993 94.3578 127.667L94.3579 127.667ZM99.7155 125.637C100.526 124.868 100.534 124.804 99.9924 123.553C99.685 122.842 99.5656 122.262 99.7269 122.263C100.065 122.264 100.798 124.026 100.795 124.831C100.794 125.131 100.499 125.613 100.139 125.904C99.1147 126.731 98.784 126.522 99.7155 125.637L99.7155 125.637ZM99.1351 121.525C99.1327 121.312 99.011 120.632 98.8647 120.014C98.6874 119.264 98.7173 118.997 98.9546 119.212C99.466 119.675 99.8359 121.528 99.4583 121.736C99.283 121.832 99.1373 121.737 99.1351 121.525L99.1351 121.525ZM102.266 121.183C102.679 120.837 106.145 119.496 105.968 119.751C105.705 120.131 103.114 121.312 102.548 121.31C102.311 121.309 102.184 121.252 102.266 121.183L102.266 121.183ZM106.529 118.996C106.53 118.908 106.771 118.657 107.067 118.438C107.362 118.22 107.604 118.113 107.603 118.201C107.603 118.29 107.361 118.541 107.066 118.759C106.77 118.978 106.529 119.085 106.529 118.996ZM97.9801 117.792C97.7053 117.327 97.7006 117.122 97.9646 117.123C98.3975 117.124 98.8657 118.026 98.5706 118.289C98.4637 118.385 98.198 118.161 97.9801 117.792ZM109.367 116.71C109.619 116.44 109.652 116.184 109.45 116.071C109.019 115.829 107.62 113.407 107.622 112.906C107.623 112.696 108.198 113.357 108.901 114.374C110.108 116.122 110.28 117.166 109.36 117.163C109.051 117.162 109.053 117.048 109.367 116.71L109.367 116.71ZM97.285 115.886C97.074 115.528 96.9135 114.829 96.9285 114.333C96.9513 113.572 97.033 113.655 97.4467 114.862C97.9791 116.416 97.8988 116.924 97.285 115.886ZM89.4104 113.082C89.4114 112.817 89.4753 112.601 89.5524 112.601C89.6296 112.601 89.7846 112.818 89.8966 113.083C90.0087 113.349 89.9447 113.565 89.7546 113.564C89.5644 113.564 89.4095 113.346 89.4104 113.082ZM97.0024 112.758C97.119 112.654 96.8946 111.895 96.5038 111.072C95.5851 109.137 93.9485 104.666 93.2186 102.097C92.8282 100.724 92.7559 99.9051 92.9919 99.5295C93.2496 99.1192 93.0783 98.5664 92.3227 97.37C91.7641 96.4858 91.1316 95.3431 90.9171 94.8307C90.5729 94.009 90.5912 93.9475 91.0723 94.3091C91.3725 94.5344 91.6175 94.8317 91.617 94.9696C91.6165 95.1076 92.1795 96.123 92.8682 97.2264C94.005 99.0479 94.0695 99.2823 93.5701 99.7748C93.0711 100.267 93.2189 100.85 95.1664 106.072C96.3468 109.237 97.4013 112.079 97.5097 112.389C97.6277 112.725 97.5229 112.95 97.2487 112.949C96.9966 112.948 96.8858 112.862 97.0024 112.758L97.0024 112.758ZM106.275 110.593C106.051 109.896 105.94 109.262 106.028 109.184C106.287 108.953 106.956 110.802 106.812 111.353C106.74 111.632 106.498 111.289 106.275 110.593ZM105.302 108.464C105.173 108.276 105.145 108.053 105.238 107.969C105.332 107.885 105.504 108.04 105.619 108.312C105.858 108.879 105.652 108.977 105.302 108.464ZM102.1 102.228C101.784 101.791 101.585 101.274 101.659 101.078C101.732 100.882 102.065 101.239 102.398 101.872C103.096 103.199 102.938 103.387 102.1 102.228L102.1 102.228ZM99.335 100.229C99.2046 100.111 99.0982 99.8653 99.0989 99.6829C99.0996 99.4818 99.2659 99.5014 99.5212 99.7324C99.7529 99.9421 99.8593 100.188 99.7574 100.279C99.6556 100.37 99.4655 100.347 99.3351 100.229L99.335 100.229ZM99.8956 98.3101C98.4535 96.0761 98.662 95.625 100.147 97.7663C101.056 99.077 101.513 100.149 101.151 100.122C101.102 100.119 100.537 99.3031 99.8957 98.3101L99.8956 98.3101ZM97.8586 95.3131C98.0828 94.9895 94.2758 89.8369 93.8113 89.8353C93.3378 89.8336 90.2284 83.7679 90.2317 82.8523C90.233 82.4939 89.9935 82.0199 89.6998 81.7993C89.406 81.5786 89.1669 81.2351 89.1685 81.0362C89.1732 80.4908 90.9192 82.5302 90.9322 83.0958C90.9585 84.259 96.9648 93.5757 98.0971 94.2097C98.5355 94.4552 98.4725 95.6272 98.021 95.6256C97.8131 95.6249 97.7399 95.4843 97.8586 95.3131L97.8586 95.3131ZM81.8453 94.112C81.7237 93.8248 81.6351 93.4211 81.6484 93.2151C81.6615 93.009 81.825 93.1868 82.0117 93.61C82.1983 94.0334 82.2869 94.437 82.2085 94.507C82.1301 94.5769 81.9667 94.3992 81.8453 94.112ZM89.8968 93.2538C89.4625 92.7802 88.4172 90.6323 88.424 90.2276C88.4264 90.0895 88.9179 90.7499 89.5162 91.6948C90.5477 93.3237 90.7606 94.1955 89.8968 93.2538L89.8968 93.2538ZM87.6077 88.6196C87.2578 87.9958 87.0471 87.418 87.1395 87.3355C87.3634 87.1358 88.4987 89.1434 88.3556 89.486C88.2941 89.6333 87.9575 89.2434 87.6077 88.6196L87.6077 88.6196ZM82.1869 85.9437C81.8328 85.5895 81.6899 85.3003 81.8694 85.301C82.0491 85.3016 82.3957 85.5915 82.6397 85.9453C82.8838 86.2992 83.0265 86.5885 82.9572 86.5883C82.8878 86.588 82.5412 86.298 82.1869 85.9437ZM88.4352 86.1452C88.4354 86.0674 88.5966 85.9151 88.7934 85.8068C88.9901 85.6984 89.1506 85.7626 89.1499 85.9496C89.1492 86.1364 88.9881 86.2887 88.7917 86.288C88.5953 86.2873 88.4349 86.2231 88.4352 86.1452ZM85.8202 85.1011C85.6897 84.983 85.5885 84.6577 85.5955 84.3784C85.6059 83.9611 85.6756 83.9752 85.9851 84.4573C86.3675 85.0527 86.2545 85.494 85.8202 85.1011ZM84.206 82.0532C84.1842 81.7623 83.7689 80.8945 83.283 80.1247C82.7972 79.355 82.3994 78.5087 82.3992 78.2439C82.3989 77.7986 82.7377 78.2728 84.0661 80.5761C84.3466 81.0624 84.5017 81.7127 84.4108 82.0212C84.2681 82.5051 84.2401 82.5094 84.206 82.0532L84.206 82.0532ZM87.8908 81.0089C87.7719 80.5774 87.7722 80.0836 87.8913 79.9116C88.0106 79.7397 87.7005 79.3087 87.2023 78.954C86.61 78.5321 86.4363 78.2319 86.7006 78.0864C87.4049 77.6986 88.1871 78.7943 88.2951 80.3207C88.4094 81.9332 88.2298 82.2389 87.8908 81.0089L87.8908 81.0089ZM76.4883 79.2706C75.816 77.1667 76.0693 76.4745 77.5279 76.4296C78.4607 76.401 78.7765 76.7398 78.1425 77.089C77.9625 77.1881 77.7601 77.1187 77.6925 76.9347C77.6168 76.7281 77.2981 76.7799 76.8581 77.0707C76.2669 77.4613 76.2175 77.6465 76.5661 78.1643C77.0334 78.8581 77.572 81.1146 77.2702 81.1136C77.164 81.1132 76.8122 80.2837 76.4883 79.2706ZM81.3869 76.57C80.677 75.5549 80.673 75.0293 81.375 75.0318C81.5714 75.0324 81.6352 75.1729 81.5168 75.3437C81.3984 75.5145 81.5516 76.0926 81.8574 76.6283C82.5895 77.9108 82.2995 77.8748 81.3869 76.57L81.3869 76.57ZM84.6411 75.9258C84.1028 75.1737 83.519 74.4653 83.3437 74.3513C83.1683 74.2374 83.3686 73.9803 83.7887 73.7802C84.6942 73.3487 84.7456 73.0159 84.0099 72.3501C83.3174 71.7233 78.8686 65.0949 78.87 64.6918C78.8706 64.5257 78.395 63.7636 77.8131 62.9979C77.2312 62.2323 76.4972 60.9043 76.1818 60.0466C75.8664 59.189 75.2527 58.125 74.8183 57.6823C73.49 56.329 69.4566 50.7241 70.2796 51.3757C70.7039 51.7116 71.5657 52.7253 72.1944 53.6285C72.8233 54.5317 73.8315 55.8045 74.4346 56.4569C75.5013 57.6105 76.9349 59.9387 77.1623 60.8866C77.2243 61.1446 77.5502 61.6377 77.8867 61.9821C78.2234 62.3266 79.1467 63.7071 79.9386 65.05C80.7307 66.393 82.1737 68.6247 83.1456 70.0095C84.7904 72.3535 85.3872 74.0834 84.5499 74.0804C84.3535 74.0797 84.1923 74.2295 84.1917 74.413C84.1897 74.9658 85.7121 76.6515 86.2149 76.6532C86.4725 76.6542 86.6828 76.7993 86.6822 76.9757C86.6794 77.7621 85.5342 77.1731 84.6411 75.9258L84.6411 75.9258ZM76.5739 74.48C76.4434 74.362 76.3371 74.1161 76.3377 73.9337C76.3384 73.7326 76.5047 73.7522 76.7601 73.9834C76.9917 74.193 77.0981 74.4388 76.9962 74.5296C76.8944 74.6205 76.7043 74.5981 76.5739 74.48ZM80.4907 73.2515C80.149 72.4434 80.2515 72.2356 80.67 72.8875C80.8772 73.2103 80.9715 73.5417 80.8792 73.624C80.787 73.7064 80.6121 73.5388 80.4907 73.2515ZM74.1175 69.1505C74.0241 68.9295 73.9677 68.6627 73.9921 68.5575C74.0165 68.4525 73.7965 68.099 73.503 67.7723C73.1912 67.425 73.1557 67.2796 73.4176 67.4222C74.0163 67.7483 75.0316 69.5547 74.6154 69.5532C74.4349 69.5526 74.2109 69.3713 74.1175 69.1505L74.1175 69.1505ZM76.1605 68.4014C76.0441 68.067 75.7307 67.2417 75.4641 66.5675C75.1243 65.7087 75.1017 65.3788 75.3883 65.4658C75.8003 65.5909 76.8107 68.6183 76.5253 68.8729C76.4411 68.9481 76.2768 68.7359 76.1605 68.4014L76.1605 68.4014ZM74.9616 67.1748C74.9473 66.8365 75.0324 66.6474 75.1507 66.7544C75.2689 66.8614 75.2807 67.1381 75.1768 67.3695C75.0618 67.625 74.9774 67.5486 74.9616 67.1748ZM72.1025 65.8141C71.6846 65.1727 71.4419 64.5594 71.5632 64.4512C71.8161 64.2255 72.5078 65.1949 72.8526 66.2582C73.1839 67.2799 72.9782 67.158 72.1025 65.8141ZM74.6512 64.1079C74.225 63.5862 73.877 63.0169 73.8776 62.8427C73.8782 62.6683 73.511 61.8994 73.0616 61.1337C71.9194 59.1876 70.9967 57.0257 71.3122 57.0353C71.6242 57.0446 75.7743 64.7454 75.567 64.9304C75.4893 64.9996 75.0772 64.6295 74.6512 64.1079L74.6512 64.1079ZM72.4723 64.2782C72.458 63.94 72.5431 63.7507 72.6613 63.8579C72.7797 63.9649 72.7914 64.2417 72.6874 64.4729C72.5725 64.7285 72.4882 64.6521 72.4723 64.2782L72.4723 64.2782ZM70.6788 63.4717C70.1869 62.6392 70.2203 62.1472 70.7162 62.9202C71.0215 63.3961 71.1641 63.432 71.3995 63.0924C71.5631 62.8562 71.8048 62.7607 71.9367 62.88C72.0685 62.9994 71.9231 63.3229 71.6135 63.599C71.1019 64.0556 71.0168 64.0439 70.6788 63.4717L70.6788 63.4717ZM70.6691 61.3764C70.67 61.1221 70.8167 60.8337 70.9951 60.7353C71.1736 60.6371 71.2344 60.8453 71.1304 61.1982C70.9098 61.9466 70.6667 62.0405 70.6691 61.3764L70.6691 61.3764ZM68.2459 55.7339C68.2475 55.2928 68.3292 55.1125 68.4274 55.3334C68.5257 55.5544 68.5244 55.9154 68.4245 56.1355C68.3248 56.3558 68.2443 56.175 68.2459 55.7339ZM69.7026 54.9481C69.2676 54.1369 68.9123 53.2818 68.9132 53.0481C68.914 52.8145 68.5199 51.9505 68.0374 51.1285C67.5549 50.3064 67.2964 49.6342 67.4633 49.6348C68.0029 49.6367 68.4808 50.3998 69.2074 52.419C69.5989 53.5071 70.1029 54.708 70.3272 55.0878C70.5516 55.4675 70.6807 55.9233 70.6143 56.1007C70.5477 56.2781 70.1374 55.7594 69.7025 54.9481L69.7026 54.9481ZM70.1829 53.9096C69.9907 53.4516 70.0319 53.415 70.3834 53.7308C70.6266 53.9493 70.7355 54.2086 70.6252 54.307C70.5149 54.4053 70.3159 54.2265 70.1829 53.9096L70.1829 53.9096ZM64.5034 48.6497C64.6432 47.8628 64.9604 46.642 65.2082 45.937C65.6344 44.7243 65.6596 44.707 65.6748 45.6179C65.693 46.7022 64.9375 49.4665 64.5217 49.8375C64.3717 49.9712 64.3635 49.4367 64.5035 48.6497L64.5034 48.6497ZM66.8048 48.0557C66.5301 47.5907 66.5254 47.3854 66.7895 47.3864C67.2223 47.3879 67.6906 48.2894 67.3953 48.5529C67.2884 48.6483 67.0227 48.4246 66.8048 48.0557L66.8048 48.0557ZM66.8289 44.8008C66.8146 44.3492 67.0398 43.7003 67.3293 43.3587C68.0234 42.54 68.0353 43.3261 67.349 44.6611C66.8565 45.6192 66.855 45.6196 66.8289 44.8008L66.8289 44.8008ZM66.1842 42.2248C66.5286 42.0463 66.8108 41.7594 66.8114 41.5874C66.812 41.4155 67.3721 40.5492 68.056 39.6621C68.74 38.7753 69.4081 37.5177 69.5408 36.8678C69.6735 36.2176 69.9399 35.5083 70.1327 35.2914C70.6572 34.7014 70.6685 30.1665 70.1467 29.6943C69.9073 29.4777 69.7315 28.9324 69.7559 28.4824C69.7911 27.8311 69.8359 27.7926 69.9756 28.2933C70.072 28.6393 70.3597 29.2178 70.6147 29.5791C71.5957 30.9684 71.8449 32.7162 71.3258 34.5682C70.4688 37.6269 69.309 40.1534 68.4583 40.8148C68.0065 41.1662 67.5356 41.7059 67.4121 42.0143C67.2852 42.331 66.8329 42.5695 66.3729 42.5624C65.6477 42.5512 65.6271 42.5141 66.1844 42.2248L66.1842 42.2248ZM67.8813 41.9547C67.882 41.7678 68.0431 41.6155 68.2395 41.6162C68.4359 41.6169 68.5965 41.6811 68.5962 41.7589C68.5959 41.8367 68.4346 41.989 68.2378 42.0975C68.0411 42.2058 67.8806 42.1415 67.8813 41.9547L67.8813 41.9547ZM56.8592 28.6155C56.8595 28.5462 57.1009 28.4071 57.3959 28.3066C57.6909 28.2061 57.9317 28.2636 57.9311 28.4346C57.9304 28.6055 57.689 28.7445 57.3944 28.7434C57.0997 28.7424 56.859 28.6849 56.8592 28.6155ZM39.3747 25.7117C38.9267 24.2543 38.4905 21.9065 38.4051 20.4943C38.2069 17.216 38.371 17.0755 43.8215 15.8588C48.2446 14.8715 49.6026 14.3797 50.5245 13.4312C51.3062 12.6268 51.9221 10.9035 51.9278 9.50509C51.9343 7.86035 52.9766 6.22316 54.4966 5.46995C55.6929 4.8772 55.7618 4.76933 55.3045 4.20345C54.0234 2.61772 55.4658 0.180486 57.6807 0.188332C60.056 0.196747 61.3127 1.82281 60.4308 3.7468C59.9467 4.8026 59.9622 4.83968 61.4221 6.12275C62.8267 7.35751 62.9152 7.54743 63.1017 9.72906C63.4508 13.8108 64.5626 14.7553 71.1842 16.5951C73.2442 17.1674 75.2102 17.8622 75.5528 18.139C76.5525 18.9464 76.1364 22.7511 74.6424 26.4606C74.2697 27.3858 74.1852 27.4317 73.7602 26.9387C73.3315 26.4417 73.3118 26.4492 73.5352 27.0255C73.7538 27.5891 73.7192 27.6064 73.2165 27.1849C72.8048 26.8397 72.7467 26.5541 73.0013 26.1268C73.193 25.8049 73.2745 25.3633 73.1824 25.1455C72.9146 24.5122 70.1466 23.911 68.3465 24.095C67.4373 24.188 65.7292 24.3484 64.5505 24.4515C63.3717 24.5545 61.8841 24.9267 61.2445 25.2784C60.6051 25.6299 60.0821 25.83 60.0825 25.7229C60.0839 25.3196 57.9423 26.5331 57.576 27.1433C57.1929 27.7813 56.1465 28.0326 56.1484 27.4862C56.149 27.3264 54.7452 26.7323 53.0288 26.1658C48.9775 24.8289 45.7701 24.7532 43.4953 25.9409C42.6672 26.3732 41.7827 26.9496 41.5297 27.2215C41.2766 27.4936 40.9293 27.6375 40.7577 27.5414C40.5862 27.4454 40.5406 27.5913 40.6567 27.8655C40.7727 28.1398 40.7149 28.3637 40.5283 28.3631C40.3417 28.3624 39.8227 27.1693 39.3749 25.7118L39.3747 25.7117ZM61.3632 24.4095C63.7959 23.7226 65.1192 23.5543 68.2667 23.5308C71.8275 23.5041 72.2576 23.5662 73.2927 24.2558C73.9153 24.6707 74.4579 24.9613 74.4983 24.9019C74.8675 24.3595 75.4707 22.2108 75.6666 20.7404C75.8906 19.0599 75.8454 18.8929 75.0352 18.412C74.5552 18.1271 72.4888 17.4386 70.4432 16.8817C68.3975 16.325 66.1391 15.5999 65.4245 15.2703C63.8251 14.5326 62.7966 12.6886 62.4851 10.0002C62.2422 7.90248 61.6486 7.10064 59.5978 6.09933C58.1696 5.40194 58.1239 5.22502 59.0882 4.13114C60.0137 3.08156 59.9931 2.6721 58.9607 1.58593C58.1684 0.752373 58.0462 0.72221 57.0878 1.12354L56.0624 1.55286L57.2453 2.00466C58.5152 2.48963 58.7056 3.46431 57.5684 3.65705C57.1082 3.73497 56.948 3.54815 56.9501 2.9366C56.952 2.41658 56.7548 2.11024 56.4175 2.10905C55.6313 2.10626 55.746 3.50509 56.5887 4.19528C57.5771 5.00491 57.4865 5.28378 56.0636 5.8123C54.0277 6.56848 53.0946 7.72501 52.8136 9.84071C52.5024 12.1851 51.3405 14.2636 49.9423 14.9773C49.3507 15.2791 46.879 16.0279 44.4496 16.6411C42.0202 17.2543 39.7906 17.9351 39.495 18.154C39.0936 18.4512 39.0035 18.9674 39.1397 20.1912C39.3033 21.6614 40.3776 26.1189 40.6318 26.3822C40.6875 26.4396 41.3552 26.1196 42.1159 25.671C43.7547 24.7044 46.8449 24.1165 48.8401 24.3918C50.539 24.6262 54.539 25.7368 55.7408 26.308C56.4877 26.6627 56.705 26.6225 57.4743 25.9864C57.958 25.5864 59.7081 24.8769 61.3633 24.4097L61.3632 24.4095ZM58.647 27.8968C58.648 27.6382 58.8044 27.5137 58.9946 27.6204C59.1849 27.7268 59.843 27.5827 60.4572 27.2999C61.6109 26.7688 62.1225 26.8421 61.6833 27.4757C61.5449 27.6755 61.2123 27.7625 60.9441 27.6689C60.676 27.5755 60.3733 27.6193 60.2713 27.7665C59.9108 28.2866 58.6453 28.3881 58.6471 27.8968L58.647 27.8968ZM51.0079 27.568C49.8508 27.312 48.7267 27.1206 48.51 27.1426C47.405 27.2543 44.9923 27.068 45.1958 26.8866C45.3243 26.7718 45.9137 26.6921 46.5057 26.7094C47.1105 26.7269 47.5847 26.5744 47.5886 26.3611C47.5926 26.1365 47.736 26.1786 47.9398 26.4639C48.1293 26.7294 48.287 26.8561 48.2904 26.7457C48.2956 26.5764 49.2191 26.7281 53.1925 27.5518C53.8551 27.6891 54.1927 28.094 53.6177 28.0616C53.3394 28.046 52.1652 27.8238 51.008 27.568L51.0079 27.568ZM63.294 26.5183C63.5892 26.3483 63.9913 26.2098 64.1877 26.2105C64.3842 26.2112 64.3032 26.3509 64.0081 26.5209C63.7129 26.691 63.3106 26.8295 63.1143 26.8288C62.9179 26.8281 62.9987 26.6884 63.294 26.5183Z" fill="black"/>
<mask id="path-2-inside-1" fill="white">
<path d="M57.9026 141.765C57.8458 134.63 57.7662 133.555 57.3041 133.672C56.5675 133.858 49.2598 133.707 47.6316 133.472C46.7615 133.347 46.3017 133.11 46.3029 132.789C46.3042 132.41 46.0528 132.343 45.1989 132.493C44.5907 132.6 42.5268 132.59 40.6122 132.47C37.6309 132.284 37.1069 132.168 36.9613 131.66C36.8677 131.333 36.9359 131.067 37.1129 131.067C37.2898 131.068 37.4339 131.303 37.4329 131.589C37.4314 132.016 37.6829 132.073 38.8386 131.911C39.6127 131.803 40.9718 131.891 41.8585 132.108C43.2158 132.44 43.6251 132.425 44.4456 132.015C45.6171 131.428 46.5283 131.564 46.7558 132.357C46.9479 133.027 49.1233 133.4 50.0735 132.925C50.4831 132.721 50.5859 132.74 50.4132 132.99C50.0828 133.468 56.1637 133.249 56.7067 132.764C57.2804 132.251 58.3738 132.346 58.3718 132.908C58.3696 133.536 59.7926 134.022 61.6745 134.035C62.4914 134.04 63.3193 134.151 63.514 134.281C63.9408 134.566 63.7249 150.012 63.2941 150.01C62.7175 150.008 62.6382 148.559 62.8584 142.055L63.0835 135.408L61.9139 135.037C61.2707 134.833 60.3005 134.664 59.7579 134.662C58.8233 134.658 58.7578 134.755 58.5094 136.495C58.3653 137.504 58.3394 140.955 58.4517 144.162C58.5809 147.852 58.5296 149.993 58.3121 149.993C58.1016 149.992 57.9427 146.801 57.9026 141.764L57.9026 141.765ZM59.3973 143.007C59.2783 137.275 59.3417 135.825 59.7168 135.697C59.9744 135.609 60.2936 135.665 60.4264 135.82C60.5591 135.976 60.5706 139.266 60.4517 143.132L60.2357 150.16L60.1073 143.13L59.9788 136.101L59.7623 143.129L59.5458 150.157L59.3973 143.007ZM60.1448 133.425C60.1454 133.271 60.3929 132.961 60.6947 132.737C61.1106 132.429 61.343 132.42 61.6534 132.702C61.9636 132.983 61.8519 133.08 61.1931 133.102L60.3234 133.13L61.2099 133.389L62.0963 133.648L61.1202 133.677C60.5832 133.692 60.1443 133.579 60.1448 133.425ZM34.8389 130.82C34.7547 130.688 34.8152 130.292 34.9736 129.942C35.2615 129.304 35.2615 129.304 35.3121 129.943C35.3403 130.298 35.4432 130.404 35.5441 130.181C35.6438 129.961 35.8642 129.858 36.0339 129.954C36.4737 130.2 36.0309 131.064 35.4657 131.062C35.2051 131.061 34.9231 130.952 34.8389 130.82ZM31.7583 130.214L29.4524 129.831L31.4048 129.809C32.4788 129.796 33.5919 129.92 33.8784 130.085C34.7437 130.582 34.1813 130.616 31.7583 130.214ZM25.9913 129.835C24.4121 129.717 23.8825 129.377 24.6329 128.963C24.8118 128.865 25.0233 128.962 25.1029 129.179C25.2087 129.468 25.5149 129.418 26.2401 128.993C26.9269 128.592 27.1814 128.545 27.066 128.843C26.965 129.104 27.3321 129.423 27.998 129.653C29.1426 130.048 29.0106 130.06 25.9913 129.835ZM22.1159 128.871C21.0387 128.718 20.2327 128.005 20.5765 127.508C20.8914 127.053 21.4957 127.089 21.3846 127.557C21.335 127.765 21.8527 128.192 22.5349 128.504C23.8001 129.084 23.7757 129.105 22.1159 128.871ZM31.8601 128.619C31.9784 128.513 32.2845 128.503 32.5405 128.596C32.8234 128.699 32.739 128.775 32.3254 128.789C31.951 128.801 31.7417 128.725 31.8601 128.619ZM32.1215 127.855C31.8293 127.683 31.75 127.544 31.9451 127.544C32.1404 127.545 32.5392 127.686 32.8315 127.857C33.1238 128.028 33.2032 128.168 33.0079 128.167C32.8127 128.167 32.4138 128.026 32.1215 127.855ZM18.7909 127.338C18.4128 127.079 18.2727 126.863 18.4794 126.858C18.6862 126.853 19.1647 127.061 19.5427 127.321C19.9208 127.58 20.061 127.796 19.8542 127.801C19.6474 127.806 19.169 127.598 18.7909 127.338ZM13.8275 125.739C13.4497 125.489 13.2228 125.21 13.3234 125.12C13.4239 125.03 13.9022 125.233 14.3862 125.57C15.3941 126.272 14.8705 126.431 13.8275 125.739ZM13.5238 123.635C13.6557 123.021 13.8874 122.374 14.0387 122.199C14.1899 122.024 14.4276 121.271 14.567 120.525C14.7063 119.78 14.9835 119.08 15.1831 118.97C15.4152 118.842 15.4649 119.1 15.3211 119.688C15.1976 120.192 15.032 120.893 14.9532 121.244C14.8743 121.595 14.4665 122.528 14.0469 123.318C13.31 124.704 13.2921 124.714 13.5238 123.635ZM10.0188 120.55C9.46558 120.277 9.09213 119.984 9.18889 119.897C9.28566 119.811 9.97788 120.034 10.7272 120.393C11.4765 120.752 11.8499 121.046 11.5571 121.045C11.2642 121.045 10.572 120.822 10.0188 120.55ZM15.474 117.59C15.4746 117.425 15.6352 117.201 15.8308 117.093C16.0264 116.985 16.1857 117.121 16.1847 117.395C16.1837 117.669 16.0232 117.893 15.828 117.892C15.6327 117.891 15.4735 117.756 15.474 117.59ZM4.35469 116.68C4.22494 116.562 4.11943 116.289 4.12019 116.072C4.12215 115.521 6.49663 112.425 6.74481 112.65C6.85667 112.751 6.63266 113.193 6.24703 113.631C5.86141 114.069 5.54525 114.606 5.54448 114.824C5.5437 115.043 5.30085 115.401 5.0048 115.62C4.59541 115.924 4.56261 116.125 4.86782 116.458C5.26569 116.893 4.80773 117.091 4.35469 116.68ZM16.2053 116.296C16.2024 116.208 16.4287 115.49 16.7084 114.7C17.1724 113.389 17.2185 113.349 17.2371 114.242C17.2482 114.779 17.0219 115.497 16.734 115.837C16.4461 116.177 16.2082 116.384 16.2053 116.296ZM24.2365 112.97C24.3498 112.706 24.5053 112.491 24.582 112.492C24.6587 112.492 24.7207 112.708 24.7198 112.971C24.7188 113.235 24.5634 113.45 24.3742 113.449C24.1852 113.449 24.1232 113.233 24.2365 112.97ZM16.5674 112.618C16.5621 112.44 16.8907 111.507 17.2976 110.544C17.7046 109.582 18.6967 107.033 19.5023 104.881C20.9958 100.892 21.76 99.7429 20.6815 103.108C19.4633 106.909 16.5948 113.54 16.5674 112.618ZM7.16441 111.112C7.69769 109.59 8.07399 108.833 8.22786 108.972C8.48181 109.203 7.69565 111.43 7.27941 111.66C7.02461 111.8 6.98661 111.619 7.16441 111.112ZM8.40736 108.318C8.40798 108.143 8.56855 107.911 8.76417 107.803C8.9598 107.695 9.11935 107.75 9.11872 107.926C9.1181 108.102 8.95753 108.334 8.76191 108.442C8.56628 108.549 8.40673 108.494 8.40736 108.318ZM10.9097 103.763C10.9094 103.646 11.2253 102.892 11.6117 102.088C12.3285 100.596 12.9432 100.064 12.494 101.324C12.2219 102.087 10.9105 104.105 10.9097 103.763ZM20.8058 99.8874C20.1717 99.1161 20.1601 99.1408 24.4911 92.0426C25.1865 90.9028 25.968 89.3599 26.2274 88.614C26.487 87.868 26.8187 87.2582 26.9643 87.2587C27.3074 87.2599 26.9471 88.493 26.5379 88.7189C26.3659 88.8136 26.2222 89.1344 26.2187 89.4316C26.2123 89.9761 25.5597 91.1892 22.5611 96.2322C21.4592 98.0853 21.041 99.0907 21.2816 99.3089C21.4781 99.4871 21.5833 99.8503 21.5152 100.116C21.4185 100.494 21.2636 100.444 20.8058 99.8874ZM14.4766 100.094C14.4801 99.9513 14.6386 99.6199 14.8288 99.3571C15.1268 98.945 15.175 98.9537 15.1781 99.4193C15.18 99.7165 15.0216 100.048 14.8259 100.156C14.6303 100.264 14.4731 100.236 14.4766 100.094ZM13.8 98.1553C15.173 95.977 15.145 96.011 15.3838 96.2274C15.6253 96.4465 13.3256 99.976 12.9368 99.9831C12.7761 99.986 13.1645 99.1635 13.8 98.1553ZM15.9435 95.2994C15.9254 94.9107 16.9002 93.3325 18.1097 91.7924C19.3192 90.2525 20.9325 87.8846 21.6949 86.5306C22.4572 85.1767 23.2341 83.9844 23.4211 83.8813C23.6082 83.7781 23.6648 83.3426 23.5469 82.9137C23.4161 82.4383 23.486 82.1342 23.7258 82.135C23.9423 82.1358 24.1182 82.4308 24.1169 82.7907C24.114 83.6139 20.7022 90.1121 20.2735 90.1106C19.8845 90.1092 16.5323 94.4252 16.2095 95.3432C15.982 95.9898 15.9756 95.9888 15.9435 95.2994ZM31.9347 94.6251C31.9356 94.3614 32.0748 93.8586 32.2438 93.5078C32.4375 93.1058 32.5505 93.0471 32.5494 93.3491C32.5485 93.6128 32.4095 94.1155 32.2404 94.4663C32.0467 94.8684 31.9336 94.9271 31.9347 94.6251ZM25.171 85.9742C25.1716 85.7986 25.2426 85.655 25.3287 85.6553C25.4148 85.6556 25.5834 85.8001 25.7034 85.9761C25.8235 86.1523 25.7526 86.2959 25.5457 86.2952C25.339 86.2944 25.1703 86.15 25.171 85.9742ZM28.0193 85.1246C28.0228 84.9824 28.1813 84.651 28.3715 84.3881C28.6695 83.9761 28.7177 83.9847 28.7208 84.4504C28.7228 84.7475 28.5642 85.0789 28.3687 85.1868C28.173 85.2947 28.0159 85.2667 28.0193 85.1246ZM29.8279 82.0236C29.8136 81.6867 29.8982 81.4983 30.0158 81.6048C30.1334 81.7114 30.1449 81.987 30.0416 82.2174C29.9274 82.4718 29.8435 82.3957 29.8279 82.0236ZM24.4769 81.5364C24.4775 81.3607 24.6381 81.1287 24.8337 81.0206C25.0294 80.9128 25.1888 80.9682 25.1882 81.144C25.1876 81.3198 25.0271 81.5518 24.8314 81.6597C24.6359 81.7676 24.4762 81.7122 24.4769 81.5364ZM26.1499 80.3864C26.3802 78.6334 26.7722 77.9922 27.6121 77.9952C28.0463 77.9968 27.999 78.1532 27.3885 78.7339C26.9626 79.1391 26.6018 79.7489 26.5869 80.089C26.5719 80.4291 26.4203 80.9943 26.2499 81.3452C26.0503 81.756 26.0147 81.4146 26.1499 80.3864ZM34.4165 81.4524C34.4168 81.3645 34.6573 81.1145 34.951 80.8968C35.2446 80.6791 35.4846 80.5728 35.4843 80.6606C35.484 80.7485 35.2435 80.9985 34.9498 81.2163C34.6562 81.434 34.4162 81.5403 34.4165 81.4524ZM30.167 80.8C30.1762 80.4042 31.5637 78.6323 31.5774 78.9986C31.5883 79.284 30.484 81.2004 30.3091 81.1998C30.2258 81.1995 30.1619 81.0196 30.167 80.8ZM37.1126 79.9564C37.2463 79.3476 37.5362 78.585 37.7565 78.2619C38.0799 77.7875 38.0245 77.5849 37.4698 77.2119C36.9859 76.8865 36.7101 76.8542 36.5383 77.1024C36.4041 77.2964 36.2152 77.3317 36.1187 77.1808C36.0222 77.03 36.2035 76.6917 36.5216 76.4292C36.8398 76.1667 37.0664 76.0057 37.0251 76.0712C36.9839 76.1368 37.2702 76.4257 37.6616 76.7129C38.2546 77.1485 38.3322 77.4594 38.128 78.5852C37.9934 79.3278 37.6551 80.1891 37.3762 80.4993C36.9213 81.0055 36.8942 80.9497 37.1126 79.9564ZM32.4738 76.8049C32.7884 76.2297 32.9505 75.6193 32.834 75.4483C32.7174 75.2773 32.7913 75.138 32.998 75.1387C33.6123 75.1409 33.4077 76.1995 32.628 77.0545L31.9017 77.8506L32.4738 76.8049ZM27.6875 77.037C27.6882 76.8612 27.9132 76.7183 28.1877 76.7193C28.4621 76.7202 29.1696 76.0696 29.7599 75.2734C30.3501 74.4772 30.9271 73.9637 31.042 74.1323C31.1569 74.301 31.1299 74.4867 30.9821 74.5452C30.8342 74.6035 30.2696 75.2608 29.7273 76.0057C28.8273 77.2419 27.6848 77.8196 27.6875 77.037ZM37.2808 74.5337C37.2815 74.3476 37.4417 74.1959 37.637 74.1966C37.8321 74.1973 37.9917 74.2613 37.9915 74.3387C37.9912 74.4162 37.8308 74.568 37.6353 74.6759C37.4396 74.7838 37.2801 74.7198 37.2808 74.5337ZM29.4756 73.3476C29.4771 72.8965 29.8794 72.0576 30.3696 71.4835C30.8597 70.9091 31.261 70.3423 31.2614 70.2236C31.2618 70.1048 31.7037 69.4016 32.2431 68.6605C33.5229 66.9032 35.9047 63.1107 37.5166 60.2638C38.8194 57.9629 40.8572 55.5164 40.881 56.2246C40.8881 56.4382 40.4377 57.0836 39.88 57.6588C39.3222 58.2341 38.5697 59.4226 38.2077 60.2999C37.8458 61.1773 37.0978 62.4947 36.5454 63.2273C35.9931 63.9599 35.5408 64.6901 35.5402 64.8501C35.5393 65.1038 32.6224 69.6614 31.6169 70.9801C31.4165 71.2431 31.1451 71.6735 31.0137 71.9365C30.8823 72.1997 30.5556 72.5327 30.2878 72.6766C30.0011 72.8306 29.8891 73.1917 30.0156 73.5543C30.136 73.8998 30.0639 74.1698 29.8515 74.1691C29.6431 74.1683 29.474 73.7986 29.4756 73.3476ZM33.3898 73.7023C33.3904 73.5266 33.5466 73.1677 33.7367 72.9047C33.927 72.6419 34.082 72.5705 34.0814 72.7463C34.0808 72.9219 33.9247 73.2808 33.7345 73.5438C33.5444 73.8067 33.3892 73.878 33.3898 73.7023ZM37.6392 73.5764C37.6398 73.4112 37.7985 73.1885 37.9918 73.0819C38.1934 72.9707 38.2524 73.0991 38.1302 73.383C37.8923 73.9356 37.6375 74.036 37.6392 73.5764ZM39.9586 68.853C40.2606 68.3708 40.6587 67.7612 40.8431 67.4983C41.0275 67.2353 41.4458 66.482 41.7725 65.8242C42.0991 65.1663 42.508 64.6285 42.6811 64.6291C43.0864 64.6306 43.0874 65.1797 42.6822 65.4032C42.5112 65.4976 41.8501 66.5103 41.2132 67.6534C40.5762 68.7967 39.91 69.7315 39.7324 69.7309C39.5547 69.7303 39.6565 69.3352 39.9586 68.853ZM37.784 68.7082C37.8872 68.4136 38.0807 67.6578 38.2141 67.0289C38.4557 65.8904 38.9373 65.3322 39.3531 65.709C39.4731 65.8178 39.3816 66.0764 39.1499 66.2835C38.9181 66.4906 38.7274 66.9632 38.7261 67.3339C38.7248 67.7044 38.47 68.2858 38.1601 68.6258C37.7112 69.1183 37.6346 69.135 37.784 68.7082ZM39.1091 67.359C39.0948 67.0221 39.1795 66.8337 39.2969 66.9404C39.4145 67.0469 39.4262 67.3226 39.3229 67.5528C39.2086 67.8072 39.1248 67.7313 39.1091 67.359ZM38.7356 65.1437C38.7352 64.9952 38.9586 64.4927 39.2322 64.0273C39.5058 63.5618 40.4704 61.8182 41.3759 60.1525C42.2813 58.4869 43.0211 57.3875 43.0199 57.7095C43.0188 58.0314 42.4551 59.3143 41.7674 60.5604C41.0796 61.8064 40.5107 62.9782 40.5029 63.1645C40.4861 63.5716 38.7368 65.5308 38.7356 65.1437ZM41.604 64.4923C41.5898 64.1553 41.6743 63.9669 41.7919 64.0735C41.9095 64.1802 41.9212 64.4557 41.8178 64.686C41.7037 64.9405 41.6198 64.8646 41.604 64.4923ZM43.3641 63.8328C43.3648 63.6571 43.5208 63.2982 43.7111 63.0353C43.9012 62.7723 44.0564 62.701 44.0558 62.8767C44.0551 63.0525 43.8989 63.4114 43.7088 63.6742C43.5186 63.9372 43.3635 64.0086 43.3641 63.8328ZM42.29 63.3686C42.2906 63.1825 42.4508 63.0309 42.6461 63.0316C42.8414 63.0322 43.0009 63.0962 43.0006 63.1736C43.0004 63.2511 42.8401 63.4029 42.6444 63.5108C42.4488 63.6187 42.2893 63.5547 42.29 63.3686ZM42.1159 62.3906C41.9959 62.2144 42.0668 62.071 42.2736 62.0717C42.4803 62.0724 42.649 62.2167 42.6484 62.3925C42.6478 62.5683 42.5769 62.7118 42.4907 62.7115C42.4047 62.7112 42.236 62.5668 42.1159 62.3906ZM43.2663 61.4618C43.1138 60.9297 43.1604 60.8052 43.4229 61.0432C43.6286 61.2296 43.7263 61.5704 43.64 61.8007C43.5506 62.0397 43.3902 61.8943 43.2663 61.4618ZM44.0704 61.7963C44.0711 61.6205 44.2316 61.3885 44.4273 61.2805C44.6228 61.1726 44.7824 61.2281 44.7818 61.4038C44.7812 61.5796 44.6205 61.8116 44.425 61.9195C44.2293 62.0274 44.0698 61.9719 44.0704 61.7963ZM45.9345 56.1737C45.9292 55.6465 46.0036 55.3924 46.1001 55.609C46.1965 55.8257 46.201 56.2571 46.1099 56.5676C46.0187 56.8782 45.9398 56.7009 45.9345 56.1737ZM43.7512 56.2536C43.7434 55.9502 44.0576 55.2324 44.4494 54.6585C44.8412 54.0845 45.171 53.3274 45.1823 52.976C45.211 52.0876 46.3183 50.1803 46.9035 50.0112C47.2036 49.9244 47.0331 50.4117 46.4552 51.2925C45.9422 52.0741 45.5143 52.9887 45.5044 53.3247C45.4807 54.1193 43.7698 56.9777 43.7512 56.2536ZM41.2534 55.398C41.2548 54.9903 43.9956 51.534 44.3165 51.5352C44.5433 51.536 44.3282 51.8657 42.7583 53.926C41.2969 55.8434 41.2516 55.8877 41.2534 55.398ZM49.6032 49.7544C49.4817 49.2499 49.2373 48.4199 49.06 47.9098C48.6525 46.7372 48.6498 45.7992 49.054 45.8007C49.2257 45.8013 49.5335 46.84 49.7381 48.1088C50.1095 50.4123 50.0212 51.4901 49.6032 49.7544ZM46.9618 48.7676C46.9602 48.3826 47.119 47.9793 47.3145 47.8714C47.7675 47.6215 47.7648 48.3617 47.3106 48.9897C47.0295 49.3783 46.9643 49.3368 46.9618 48.7676ZM47.0506 44.6934C46.8246 43.9994 46.7024 43.3756 46.7792 43.3071C47.074 43.0436 47.7194 44.5854 47.5937 45.2529C47.4897 45.8062 47.3747 45.6878 47.0506 44.6934ZM47.4216 42.7077C47.1779 42.6183 46.9791 42.3578 46.9799 42.1291C46.9807 41.9004 46.6099 41.4923 46.1559 41.2223C45.2944 40.7102 43.1913 35.7135 43.031 33.7978C42.9215 32.4892 43.4316 30.3878 43.9997 29.8073C44.2568 29.5447 44.5461 29.0424 44.6424 28.6914C44.7847 28.1729 44.8249 28.2062 44.856 28.8678C44.877 29.316 44.7131 29.8445 44.4918 30.0423C44.2704 30.2402 44.0766 31.3826 44.0612 32.581C44.0278 35.1676 45.1109 38.4066 46.6559 40.3403C47.2255 41.0533 47.6912 41.7746 47.6906 41.9432C47.69 42.1116 47.9685 42.3971 48.3095 42.5774C48.7869 42.8298 48.807 42.9012 48.3972 42.8878C48.1043 42.8783 47.6653 42.7972 47.4216 42.7077ZM45.9157 41.9554C45.9163 41.7797 45.9872 41.6362 46.0732 41.6365C46.1594 41.6368 46.3281 41.7811 46.448 41.9573C46.5681 42.1335 46.4972 42.2771 46.2905 42.2764C46.0836 42.2756 45.9151 42.1312 45.9157 41.9554ZM54.9258 28.6579C54.6821 28.5784 54.4961 28.2736 54.5126 27.9807C54.5312 27.6488 54.6094 27.5989 54.72 27.8484C54.9965 28.4708 55.6514 28.3215 55.4101 27.691C55.2135 27.1776 55.2368 27.1789 55.6912 27.709C56.0626 28.1421 56.2334 28.1827 56.3734 27.8712C56.506 27.5761 56.568 27.5681 56.5869 27.8438C56.6197 28.3212 55.53 28.8552 54.9258 28.6579ZM73.1631 28.1682C71.3499 25.6589 66.7657 24.988 61.9436 26.5264C60.4776 26.9941 59.038 27.5565 58.7443 27.7759C57.9368 28.3799 56.9677 28.2452 56.9703 27.5293C56.9718 27.1027 56.802 26.9676 56.4259 27.096C56.1149 27.2022 55.793 27.0781 55.679 26.808C55.5688 26.547 55.235 26.3325 54.9373 26.3314C54.6397 26.3304 53.8989 26.0511 53.2914 25.7108C52.6839 25.3705 51.2286 25.0013 50.0576 24.8904C48.8866 24.7794 47.1896 24.6077 46.2865 24.5087C44.4983 24.3128 41.7422 24.8919 41.4716 25.5205C41.3786 25.7368 41.4892 26.2305 41.7177 26.6177C42.0458 27.1741 42.0399 27.2696 41.6894 27.073C41.4271 26.9259 41.0707 27.0386 40.8167 27.3491C40.4538 27.7927 40.2627 27.4914 39.5817 25.4018C39.1386 24.0421 38.7049 21.9913 38.6177 20.8444L38.4595 18.7589L39.6564 18.2554C40.3149 17.9785 42.2926 17.3614 44.0514 16.8842C48.0104 15.81 50.0965 14.7645 50.8393 13.4822C51.1534 12.94 51.5293 11.4126 51.6745 10.0882C51.9287 7.77163 51.9958 7.63494 53.4419 6.48808C54.2688 5.83245 54.8006 5.21487 54.6237 5.11569C53.5068 4.48914 54.1411 1.42933 55.4829 0.971074C58.3715 -0.0151621 61.0739 2.6542 59.3776 4.81811C58.8974 5.43056 58.9446 5.51126 60.066 5.9973C61.7032 6.70689 62.3521 7.72223 62.7269 10.1606C63.3919 14.4878 63.8795 14.8741 70.6674 16.4536C76.1325 17.7254 76.2969 17.8676 76.0764 21.1344C75.9063 23.6558 74.4915 28.9568 73.9893 28.955C73.8471 28.9545 73.4752 28.6005 73.1629 28.1681L73.1631 28.1682ZM60.883 26.0726C62.5428 25.573 64.6699 25.0839 65.61 24.9857C67.9959 24.7362 71.0739 25.3266 72.4882 26.305C73.141 26.7565 73.7309 27.0701 73.7991 27.0021C74.0608 26.7406 75.1338 22.4961 75.3036 21.0508C75.4241 20.0241 75.3205 19.3512 74.9822 18.9659C74.6908 18.6339 72.6573 17.9218 70.0975 17.2553C67.6856 16.6272 65.2385 15.8621 64.6597 15.5551C63.2127 14.7879 62.3787 13.3617 61.9771 10.9676C61.5178 8.22905 61.0797 7.57391 59.0962 6.66086C58.1643 6.23186 57.4024 5.76178 57.4029 5.61625C57.4035 5.47072 57.7243 5.09256 58.1159 4.77587C58.9507 4.10076 59.0827 2.70244 58.3119 2.69971C58.0252 2.69869 57.863 2.87784 57.9518 3.09782C58.2019 3.71843 57.5429 4.40974 56.9114 4.18912C56.1115 3.90967 56.2083 2.98468 57.058 2.78784C57.4488 2.69733 57.769 2.48776 57.7696 2.32214C57.7702 2.15655 57.97 2.1128 58.2137 2.22495C58.4574 2.33705 58.3474 2.20137 57.9694 1.92342C57.0081 1.21651 56.5169 1.28702 55.6657 2.25415C54.7465 3.29861 54.7412 3.66861 55.6313 4.6945C56.5739 5.78079 56.5246 6.06034 55.3116 6.50772C53.4553 7.19232 52.5277 8.40527 52.2537 10.5063C51.9095 13.1455 50.9232 14.8676 49.2915 15.6782C48.5581 16.0427 46.1992 16.7977 44.0496 17.3562C41.8999 17.9147 39.8436 18.6042 39.4798 18.8883C38.7041 19.4943 38.7973 21.0069 39.8158 24.3432C40.3216 25.9998 40.4847 26.2512 40.6469 25.6241C40.9321 24.5215 42.8839 23.7338 45.3116 23.7418C47.6962 23.7497 53.4682 24.6348 53.9434 25.0655C54.1286 25.2333 54.5321 25.3715 54.8404 25.3726C55.236 25.374 57.8231 26.7374 57.8625 26.9652C57.8641 26.9739 59.2232 26.5721 60.883 26.0726ZM60.8724 28.2911C60.8731 28.1035 60.9933 27.9733 61.1397 28.0017C61.286 28.0302 61.6457 27.9703 61.9389 27.8687C62.6361 27.627 65.5773 27.2876 65.987 27.4014C66.1624 27.4502 66.4315 27.2029 66.5851 26.8521C66.8601 26.2238 66.8649 26.2242 66.887 26.8743C66.9065 27.4406 66.5684 27.5913 64.5121 27.9321C63.1935 28.1508 61.835 28.3977 61.4929 28.481C61.151 28.564 60.8718 28.4786 60.8724 28.2911ZM52.8722 27.9004C52.5485 27.4255 52.8553 27.2296 53.5455 27.4708C53.8648 27.5823 54.0371 27.802 53.9285 27.9589C53.6615 28.3449 53.156 28.3169 52.8722 27.9004ZM67.4895 27.3248C67.7324 27.1076 68.1461 27.1023 68.7141 27.3088C69.5201 27.6021 69.4979 27.6219 68.3471 27.6368C67.5065 27.6477 67.2375 27.5498 67.4895 27.3248Z"/>
</mask>
<path d="M57.9026 141.765C57.8458 134.63 57.7662 133.555 57.3041 133.672C56.5675 133.858 49.2598 133.707 47.6316 133.472C46.7615 133.347 46.3017 133.11 46.3029 132.789C46.3042 132.41 46.0528 132.343 45.1989 132.493C44.5907 132.6 42.5268 132.59 40.6122 132.47C37.6309 132.284 37.1069 132.168 36.9613 131.66C36.8677 131.333 36.9359 131.067 37.1129 131.067C37.2898 131.068 37.4339 131.303 37.4329 131.589C37.4314 132.016 37.6829 132.073 38.8386 131.911C39.6127 131.803 40.9718 131.891 41.8585 132.108C43.2158 132.44 43.6251 132.425 44.4456 132.015C45.6171 131.428 46.5283 131.564 46.7558 132.357C46.9479 133.027 49.1233 133.4 50.0735 132.925C50.4831 132.721 50.5859 132.74 50.4132 132.99C50.0828 133.468 56.1637 133.249 56.7067 132.764C57.2804 132.251 58.3738 132.346 58.3718 132.908C58.3696 133.536 59.7926 134.022 61.6745 134.035C62.4914 134.04 63.3193 134.151 63.514 134.281C63.9408 134.566 63.7249 150.012 63.2941 150.01C62.7175 150.008 62.6382 148.559 62.8584 142.055L63.0835 135.408L61.9139 135.037C61.2707 134.833 60.3005 134.664 59.7579 134.662C58.8233 134.658 58.7578 134.755 58.5094 136.495C58.3653 137.504 58.3394 140.955 58.4517 144.162C58.5809 147.852 58.5296 149.993 58.3121 149.993C58.1016 149.992 57.9427 146.801 57.9026 141.764L57.9026 141.765ZM59.3973 143.007C59.2783 137.275 59.3417 135.825 59.7168 135.697C59.9744 135.609 60.2936 135.665 60.4264 135.82C60.5591 135.976 60.5706 139.266 60.4517 143.132L60.2357 150.16L60.1073 143.13L59.9788 136.101L59.7623 143.129L59.5458 150.157L59.3973 143.007ZM60.1448 133.425C60.1454 133.271 60.3929 132.961 60.6947 132.737C61.1106 132.429 61.343 132.42 61.6534 132.702C61.9636 132.983 61.8519 133.08 61.1931 133.102L60.3234 133.13L61.2099 133.389L62.0963 133.648L61.1202 133.677C60.5832 133.692 60.1443 133.579 60.1448 133.425ZM34.8389 130.82C34.7547 130.688 34.8152 130.292 34.9736 129.942C35.2615 129.304 35.2615 129.304 35.3121 129.943C35.3403 130.298 35.4432 130.404 35.5441 130.181C35.6438 129.961 35.8642 129.858 36.0339 129.954C36.4737 130.2 36.0309 131.064 35.4657 131.062C35.2051 131.061 34.9231 130.952 34.8389 130.82ZM31.7583 130.214L29.4524 129.831L31.4048 129.809C32.4788 129.796 33.5919 129.92 33.8784 130.085C34.7437 130.582 34.1813 130.616 31.7583 130.214ZM25.9913 129.835C24.4121 129.717 23.8825 129.377 24.6329 128.963C24.8118 128.865 25.0233 128.962 25.1029 129.179C25.2087 129.468 25.5149 129.418 26.2401 128.993C26.9269 128.592 27.1814 128.545 27.066 128.843C26.965 129.104 27.3321 129.423 27.998 129.653C29.1426 130.048 29.0106 130.06 25.9913 129.835ZM22.1159 128.871C21.0387 128.718 20.2327 128.005 20.5765 127.508C20.8914 127.053 21.4957 127.089 21.3846 127.557C21.335 127.765 21.8527 128.192 22.5349 128.504C23.8001 129.084 23.7757 129.105 22.1159 128.871ZM31.8601 128.619C31.9784 128.513 32.2845 128.503 32.5405 128.596C32.8234 128.699 32.739 128.775 32.3254 128.789C31.951 128.801 31.7417 128.725 31.8601 128.619ZM32.1215 127.855C31.8293 127.683 31.75 127.544 31.9451 127.544C32.1404 127.545 32.5392 127.686 32.8315 127.857C33.1238 128.028 33.2032 128.168 33.0079 128.167C32.8127 128.167 32.4138 128.026 32.1215 127.855ZM18.7909 127.338C18.4128 127.079 18.2727 126.863 18.4794 126.858C18.6862 126.853 19.1647 127.061 19.5427 127.321C19.9208 127.58 20.061 127.796 19.8542 127.801C19.6474 127.806 19.169 127.598 18.7909 127.338ZM13.8275 125.739C13.4497 125.489 13.2228 125.21 13.3234 125.12C13.4239 125.03 13.9022 125.233 14.3862 125.57C15.3941 126.272 14.8705 126.431 13.8275 125.739ZM13.5238 123.635C13.6557 123.021 13.8874 122.374 14.0387 122.199C14.1899 122.024 14.4276 121.271 14.567 120.525C14.7063 119.78 14.9835 119.08 15.1831 118.97C15.4152 118.842 15.4649 119.1 15.3211 119.688C15.1976 120.192 15.032 120.893 14.9532 121.244C14.8743 121.595 14.4665 122.528 14.0469 123.318C13.31 124.704 13.2921 124.714 13.5238 123.635ZM10.0188 120.55C9.46558 120.277 9.09213 119.984 9.18889 119.897C9.28566 119.811 9.97788 120.034 10.7272 120.393C11.4765 120.752 11.8499 121.046 11.5571 121.045C11.2642 121.045 10.572 120.822 10.0188 120.55ZM15.474 117.59C15.4746 117.425 15.6352 117.201 15.8308 117.093C16.0264 116.985 16.1857 117.121 16.1847 117.395C16.1837 117.669 16.0232 117.893 15.828 117.892C15.6327 117.891 15.4735 117.756 15.474 117.59ZM4.35469 116.68C4.22494 116.562 4.11943 116.289 4.12019 116.072C4.12215 115.521 6.49663 112.425 6.74481 112.65C6.85667 112.751 6.63266 113.193 6.24703 113.631C5.86141 114.069 5.54525 114.606 5.54448 114.824C5.5437 115.043 5.30085 115.401 5.0048 115.62C4.59541 115.924 4.56261 116.125 4.86782 116.458C5.26569 116.893 4.80773 117.091 4.35469 116.68ZM16.2053 116.296C16.2024 116.208 16.4287 115.49 16.7084 114.7C17.1724 113.389 17.2185 113.349 17.2371 114.242C17.2482 114.779 17.0219 115.497 16.734 115.837C16.4461 116.177 16.2082 116.384 16.2053 116.296ZM24.2365 112.97C24.3498 112.706 24.5053 112.491 24.582 112.492C24.6587 112.492 24.7207 112.708 24.7198 112.971C24.7188 113.235 24.5634 113.45 24.3742 113.449C24.1852 113.449 24.1232 113.233 24.2365 112.97ZM16.5674 112.618C16.5621 112.44 16.8907 111.507 17.2976 110.544C17.7046 109.582 18.6967 107.033 19.5023 104.881C20.9958 100.892 21.76 99.7429 20.6815 103.108C19.4633 106.909 16.5948 113.54 16.5674 112.618ZM7.16441 111.112C7.69769 109.59 8.07399 108.833 8.22786 108.972C8.48181 109.203 7.69565 111.43 7.27941 111.66C7.02461 111.8 6.98661 111.619 7.16441 111.112ZM8.40736 108.318C8.40798 108.143 8.56855 107.911 8.76417 107.803C8.9598 107.695 9.11935 107.75 9.11872 107.926C9.1181 108.102 8.95753 108.334 8.76191 108.442C8.56628 108.549 8.40673 108.494 8.40736 108.318ZM10.9097 103.763C10.9094 103.646 11.2253 102.892 11.6117 102.088C12.3285 100.596 12.9432 100.064 12.494 101.324C12.2219 102.087 10.9105 104.105 10.9097 103.763ZM20.8058 99.8874C20.1717 99.1161 20.1601 99.1408 24.4911 92.0426C25.1865 90.9028 25.968 89.3599 26.2274 88.614C26.487 87.868 26.8187 87.2582 26.9643 87.2587C27.3074 87.2599 26.9471 88.493 26.5379 88.7189C26.3659 88.8136 26.2222 89.1344 26.2187 89.4316C26.2123 89.9761 25.5597 91.1892 22.5611 96.2322C21.4592 98.0853 21.041 99.0907 21.2816 99.3089C21.4781 99.4871 21.5833 99.8503 21.5152 100.116C21.4185 100.494 21.2636 100.444 20.8058 99.8874ZM14.4766 100.094C14.4801 99.9513 14.6386 99.6199 14.8288 99.3571C15.1268 98.945 15.175 98.9537 15.1781 99.4193C15.18 99.7165 15.0216 100.048 14.8259 100.156C14.6303 100.264 14.4731 100.236 14.4766 100.094ZM13.8 98.1553C15.173 95.977 15.145 96.011 15.3838 96.2274C15.6253 96.4465 13.3256 99.976 12.9368 99.9831C12.7761 99.986 13.1645 99.1635 13.8 98.1553ZM15.9435 95.2994C15.9254 94.9107 16.9002 93.3325 18.1097 91.7924C19.3192 90.2525 20.9325 87.8846 21.6949 86.5306C22.4572 85.1767 23.2341 83.9844 23.4211 83.8813C23.6082 83.7781 23.6648 83.3426 23.5469 82.9137C23.4161 82.4383 23.486 82.1342 23.7258 82.135C23.9423 82.1358 24.1182 82.4308 24.1169 82.7907C24.114 83.6139 20.7022 90.1121 20.2735 90.1106C19.8845 90.1092 16.5323 94.4252 16.2095 95.3432C15.982 95.9898 15.9756 95.9888 15.9435 95.2994ZM31.9347 94.6251C31.9356 94.3614 32.0748 93.8586 32.2438 93.5078C32.4375 93.1058 32.5505 93.0471 32.5494 93.3491C32.5485 93.6128 32.4095 94.1155 32.2404 94.4663C32.0467 94.8684 31.9336 94.9271 31.9347 94.6251ZM25.171 85.9742C25.1716 85.7986 25.2426 85.655 25.3287 85.6553C25.4148 85.6556 25.5834 85.8001 25.7034 85.9761C25.8235 86.1523 25.7526 86.2959 25.5457 86.2952C25.339 86.2944 25.1703 86.15 25.171 85.9742ZM28.0193 85.1246C28.0228 84.9824 28.1813 84.651 28.3715 84.3881C28.6695 83.9761 28.7177 83.9847 28.7208 84.4504C28.7228 84.7475 28.5642 85.0789 28.3687 85.1868C28.173 85.2947 28.0159 85.2667 28.0193 85.1246ZM29.8279 82.0236C29.8136 81.6867 29.8982 81.4983 30.0158 81.6048C30.1334 81.7114 30.1449 81.987 30.0416 82.2174C29.9274 82.4718 29.8435 82.3957 29.8279 82.0236ZM24.4769 81.5364C24.4775 81.3607 24.6381 81.1287 24.8337 81.0206C25.0294 80.9128 25.1888 80.9682 25.1882 81.144C25.1876 81.3198 25.0271 81.5518 24.8314 81.6597C24.6359 81.7676 24.4762 81.7122 24.4769 81.5364ZM26.1499 80.3864C26.3802 78.6334 26.7722 77.9922 27.6121 77.9952C28.0463 77.9968 27.999 78.1532 27.3885 78.7339C26.9626 79.1391 26.6018 79.7489 26.5869 80.089C26.5719 80.4291 26.4203 80.9943 26.2499 81.3452C26.0503 81.756 26.0147 81.4146 26.1499 80.3864ZM34.4165 81.4524C34.4168 81.3645 34.6573 81.1145 34.951 80.8968C35.2446 80.6791 35.4846 80.5728 35.4843 80.6606C35.484 80.7485 35.2435 80.9985 34.9498 81.2163C34.6562 81.434 34.4162 81.5403 34.4165 81.4524ZM30.167 80.8C30.1762 80.4042 31.5637 78.6323 31.5774 78.9986C31.5883 79.284 30.484 81.2004 30.3091 81.1998C30.2258 81.1995 30.1619 81.0196 30.167 80.8ZM37.1126 79.9564C37.2463 79.3476 37.5362 78.585 37.7565 78.2619C38.0799 77.7875 38.0245 77.5849 37.4698 77.2119C36.9859 76.8865 36.7101 76.8542 36.5383 77.1024C36.4041 77.2964 36.2152 77.3317 36.1187 77.1808C36.0222 77.03 36.2035 76.6917 36.5216 76.4292C36.8398 76.1667 37.0664 76.0057 37.0251 76.0712C36.9839 76.1368 37.2702 76.4257 37.6616 76.7129C38.2546 77.1485 38.3322 77.4594 38.128 78.5852C37.9934 79.3278 37.6551 80.1891 37.3762 80.4993C36.9213 81.0055 36.8942 80.9497 37.1126 79.9564ZM32.4738 76.8049C32.7884 76.2297 32.9505 75.6193 32.834 75.4483C32.7174 75.2773 32.7913 75.138 32.998 75.1387C33.6123 75.1409 33.4077 76.1995 32.628 77.0545L31.9017 77.8506L32.4738 76.8049ZM27.6875 77.037C27.6882 76.8612 27.9132 76.7183 28.1877 76.7193C28.4621 76.7202 29.1696 76.0696 29.7599 75.2734C30.3501 74.4772 30.9271 73.9637 31.042 74.1323C31.1569 74.301 31.1299 74.4867 30.9821 74.5452C30.8342 74.6035 30.2696 75.2608 29.7273 76.0057C28.8273 77.2419 27.6848 77.8196 27.6875 77.037ZM37.2808 74.5337C37.2815 74.3476 37.4417 74.1959 37.637 74.1966C37.8321 74.1973 37.9917 74.2613 37.9915 74.3387C37.9912 74.4162 37.8308 74.568 37.6353 74.6759C37.4396 74.7838 37.2801 74.7198 37.2808 74.5337ZM29.4756 73.3476C29.4771 72.8965 29.8794 72.0576 30.3696 71.4835C30.8597 70.9091 31.261 70.3423 31.2614 70.2236C31.2618 70.1048 31.7037 69.4016 32.2431 68.6605C33.5229 66.9032 35.9047 63.1107 37.5166 60.2638C38.8194 57.9629 40.8572 55.5164 40.881 56.2246C40.8881 56.4382 40.4377 57.0836 39.88 57.6588C39.3222 58.2341 38.5697 59.4226 38.2077 60.2999C37.8458 61.1773 37.0978 62.4947 36.5454 63.2273C35.9931 63.9599 35.5408 64.6901 35.5402 64.8501C35.5393 65.1038 32.6224 69.6614 31.6169 70.9801C31.4165 71.2431 31.1451 71.6735 31.0137 71.9365C30.8823 72.1997 30.5556 72.5327 30.2878 72.6766C30.0011 72.8306 29.8891 73.1917 30.0156 73.5543C30.136 73.8998 30.0639 74.1698 29.8515 74.1691C29.6431 74.1683 29.474 73.7986 29.4756 73.3476ZM33.3898 73.7023C33.3904 73.5266 33.5466 73.1677 33.7367 72.9047C33.927 72.6419 34.082 72.5705 34.0814 72.7463C34.0808 72.9219 33.9247 73.2808 33.7345 73.5438C33.5444 73.8067 33.3892 73.878 33.3898 73.7023ZM37.6392 73.5764C37.6398 73.4112 37.7985 73.1885 37.9918 73.0819C38.1934 72.9707 38.2524 73.0991 38.1302 73.383C37.8923 73.9356 37.6375 74.036 37.6392 73.5764ZM39.9586 68.853C40.2606 68.3708 40.6587 67.7612 40.8431 67.4983C41.0275 67.2353 41.4458 66.482 41.7725 65.8242C42.0991 65.1663 42.508 64.6285 42.6811 64.6291C43.0864 64.6306 43.0874 65.1797 42.6822 65.4032C42.5112 65.4976 41.8501 66.5103 41.2132 67.6534C40.5762 68.7967 39.91 69.7315 39.7324 69.7309C39.5547 69.7303 39.6565 69.3352 39.9586 68.853ZM37.784 68.7082C37.8872 68.4136 38.0807 67.6578 38.2141 67.0289C38.4557 65.8904 38.9373 65.3322 39.3531 65.709C39.4731 65.8178 39.3816 66.0764 39.1499 66.2835C38.9181 66.4906 38.7274 66.9632 38.7261 67.3339C38.7248 67.7044 38.47 68.2858 38.1601 68.6258C37.7112 69.1183 37.6346 69.135 37.784 68.7082ZM39.1091 67.359C39.0948 67.0221 39.1795 66.8337 39.2969 66.9404C39.4145 67.0469 39.4262 67.3226 39.3229 67.5528C39.2086 67.8072 39.1248 67.7313 39.1091 67.359ZM38.7356 65.1437C38.7352 64.9952 38.9586 64.4927 39.2322 64.0273C39.5058 63.5618 40.4704 61.8182 41.3759 60.1525C42.2813 58.4869 43.0211 57.3875 43.0199 57.7095C43.0188 58.0314 42.4551 59.3143 41.7674 60.5604C41.0796 61.8064 40.5107 62.9782 40.5029 63.1645C40.4861 63.5716 38.7368 65.5308 38.7356 65.1437ZM41.604 64.4923C41.5898 64.1553 41.6743 63.9669 41.7919 64.0735C41.9095 64.1802 41.9212 64.4557 41.8178 64.686C41.7037 64.9405 41.6198 64.8646 41.604 64.4923ZM43.3641 63.8328C43.3648 63.6571 43.5208 63.2982 43.7111 63.0353C43.9012 62.7723 44.0564 62.701 44.0558 62.8767C44.0551 63.0525 43.8989 63.4114 43.7088 63.6742C43.5186 63.9372 43.3635 64.0086 43.3641 63.8328ZM42.29 63.3686C42.2906 63.1825 42.4508 63.0309 42.6461 63.0316C42.8414 63.0322 43.0009 63.0962 43.0006 63.1736C43.0004 63.2511 42.8401 63.4029 42.6444 63.5108C42.4488 63.6187 42.2893 63.5547 42.29 63.3686ZM42.1159 62.3906C41.9959 62.2144 42.0668 62.071 42.2736 62.0717C42.4803 62.0724 42.649 62.2167 42.6484 62.3925C42.6478 62.5683 42.5769 62.7118 42.4907 62.7115C42.4047 62.7112 42.236 62.5668 42.1159 62.3906ZM43.2663 61.4618C43.1138 60.9297 43.1604 60.8052 43.4229 61.0432C43.6286 61.2296 43.7263 61.5704 43.64 61.8007C43.5506 62.0397 43.3902 61.8943 43.2663 61.4618ZM44.0704 61.7963C44.0711 61.6205 44.2316 61.3885 44.4273 61.2805C44.6228 61.1726 44.7824 61.2281 44.7818 61.4038C44.7812 61.5796 44.6205 61.8116 44.425 61.9195C44.2293 62.0274 44.0698 61.9719 44.0704 61.7963ZM45.9345 56.1737C45.9292 55.6465 46.0036 55.3924 46.1001 55.609C46.1965 55.8257 46.201 56.2571 46.1099 56.5676C46.0187 56.8782 45.9398 56.7009 45.9345 56.1737ZM43.7512 56.2536C43.7434 55.9502 44.0576 55.2324 44.4494 54.6585C44.8412 54.0845 45.171 53.3274 45.1823 52.976C45.211 52.0876 46.3183 50.1803 46.9035 50.0112C47.2036 49.9244 47.0331 50.4117 46.4552 51.2925C45.9422 52.0741 45.5143 52.9887 45.5044 53.3247C45.4807 54.1193 43.7698 56.9777 43.7512 56.2536ZM41.2534 55.398C41.2548 54.9903 43.9956 51.534 44.3165 51.5352C44.5433 51.536 44.3282 51.8657 42.7583 53.926C41.2969 55.8434 41.2516 55.8877 41.2534 55.398ZM49.6032 49.7544C49.4817 49.2499 49.2373 48.4199 49.06 47.9098C48.6525 46.7372 48.6498 45.7992 49.054 45.8007C49.2257 45.8013 49.5335 46.84 49.7381 48.1088C50.1095 50.4123 50.0212 51.4901 49.6032 49.7544ZM46.9618 48.7676C46.9602 48.3826 47.119 47.9793 47.3145 47.8714C47.7675 47.6215 47.7648 48.3617 47.3106 48.9897C47.0295 49.3783 46.9643 49.3368 46.9618 48.7676ZM47.0506 44.6934C46.8246 43.9994 46.7024 43.3756 46.7792 43.3071C47.074 43.0436 47.7194 44.5854 47.5937 45.2529C47.4897 45.8062 47.3747 45.6878 47.0506 44.6934ZM47.4216 42.7077C47.1779 42.6183 46.9791 42.3578 46.9799 42.1291C46.9807 41.9004 46.6099 41.4923 46.1559 41.2223C45.2944 40.7102 43.1913 35.7135 43.031 33.7978C42.9215 32.4892 43.4316 30.3878 43.9997 29.8073C44.2568 29.5447 44.5461 29.0424 44.6424 28.6914C44.7847 28.1729 44.8249 28.2062 44.856 28.8678C44.877 29.316 44.7131 29.8445 44.4918 30.0423C44.2704 30.2402 44.0766 31.3826 44.0612 32.581C44.0278 35.1676 45.1109 38.4066 46.6559 40.3403C47.2255 41.0533 47.6912 41.7746 47.6906 41.9432C47.69 42.1116 47.9685 42.3971 48.3095 42.5774C48.7869 42.8298 48.807 42.9012 48.3972 42.8878C48.1043 42.8783 47.6653 42.7972 47.4216 42.7077ZM45.9157 41.9554C45.9163 41.7797 45.9872 41.6362 46.0732 41.6365C46.1594 41.6368 46.3281 41.7811 46.448 41.9573C46.5681 42.1335 46.4972 42.2771 46.2905 42.2764C46.0836 42.2756 45.9151 42.1312 45.9157 41.9554ZM54.9258 28.6579C54.6821 28.5784 54.4961 28.2736 54.5126 27.9807C54.5312 27.6488 54.6094 27.5989 54.72 27.8484C54.9965 28.4708 55.6514 28.3215 55.4101 27.691C55.2135 27.1776 55.2368 27.1789 55.6912 27.709C56.0626 28.1421 56.2334 28.1827 56.3734 27.8712C56.506 27.5761 56.568 27.5681 56.5869 27.8438C56.6197 28.3212 55.53 28.8552 54.9258 28.6579ZM73.1631 28.1682C71.3499 25.6589 66.7657 24.988 61.9436 26.5264C60.4776 26.9941 59.038 27.5565 58.7443 27.7759C57.9368 28.3799 56.9677 28.2452 56.9703 27.5293C56.9718 27.1027 56.802 26.9676 56.4259 27.096C56.1149 27.2022 55.793 27.0781 55.679 26.808C55.5688 26.547 55.235 26.3325 54.9373 26.3314C54.6397 26.3304 53.8989 26.0511 53.2914 25.7108C52.6839 25.3705 51.2286 25.0013 50.0576 24.8904C48.8866 24.7794 47.1896 24.6077 46.2865 24.5087C44.4983 24.3128 41.7422 24.8919 41.4716 25.5205C41.3786 25.7368 41.4892 26.2305 41.7177 26.6177C42.0458 27.1741 42.0399 27.2696 41.6894 27.073C41.4271 26.9259 41.0707 27.0386 40.8167 27.3491C40.4538 27.7927 40.2627 27.4914 39.5817 25.4018C39.1386 24.0421 38.7049 21.9913 38.6177 20.8444L38.4595 18.7589L39.6564 18.2554C40.3149 17.9785 42.2926 17.3614 44.0514 16.8842C48.0104 15.81 50.0965 14.7645 50.8393 13.4822C51.1534 12.94 51.5293 11.4126 51.6745 10.0882C51.9287 7.77163 51.9958 7.63494 53.4419 6.48808C54.2688 5.83245 54.8006 5.21487 54.6237 5.11569C53.5068 4.48914 54.1411 1.42933 55.4829 0.971074C58.3715 -0.0151621 61.0739 2.6542 59.3776 4.81811C58.8974 5.43056 58.9446 5.51126 60.066 5.9973C61.7032 6.70689 62.3521 7.72223 62.7269 10.1606C63.3919 14.4878 63.8795 14.8741 70.6674 16.4536C76.1325 17.7254 76.2969 17.8676 76.0764 21.1344C75.9063 23.6558 74.4915 28.9568 73.9893 28.955C73.8471 28.9545 73.4752 28.6005 73.1629 28.1681L73.1631 28.1682ZM60.883 26.0726C62.5428 25.573 64.6699 25.0839 65.61 24.9857C67.9959 24.7362 71.0739 25.3266 72.4882 26.305C73.141 26.7565 73.7309 27.0701 73.7991 27.0021C74.0608 26.7406 75.1338 22.4961 75.3036 21.0508C75.4241 20.0241 75.3205 19.3512 74.9822 18.9659C74.6908 18.6339 72.6573 17.9218 70.0975 17.2553C67.6856 16.6272 65.2385 15.8621 64.6597 15.5551C63.2127 14.7879 62.3787 13.3617 61.9771 10.9676C61.5178 8.22905 61.0797 7.57391 59.0962 6.66086C58.1643 6.23186 57.4024 5.76178 57.4029 5.61625C57.4035 5.47072 57.7243 5.09256 58.1159 4.77587C58.9507 4.10076 59.0827 2.70244 58.3119 2.69971C58.0252 2.69869 57.863 2.87784 57.9518 3.09782C58.2019 3.71843 57.5429 4.40974 56.9114 4.18912C56.1115 3.90967 56.2083 2.98468 57.058 2.78784C57.4488 2.69733 57.769 2.48776 57.7696 2.32214C57.7702 2.15655 57.97 2.1128 58.2137 2.22495C58.4574 2.33705 58.3474 2.20137 57.9694 1.92342C57.0081 1.21651 56.5169 1.28702 55.6657 2.25415C54.7465 3.29861 54.7412 3.66861 55.6313 4.6945C56.5739 5.78079 56.5246 6.06034 55.3116 6.50772C53.4553 7.19232 52.5277 8.40527 52.2537 10.5063C51.9095 13.1455 50.9232 14.8676 49.2915 15.6782C48.5581 16.0427 46.1992 16.7977 44.0496 17.3562C41.8999 17.9147 39.8436 18.6042 39.4798 18.8883C38.7041 19.4943 38.7973 21.0069 39.8158 24.3432C40.3216 25.9998 40.4847 26.2512 40.6469 25.6241C40.9321 24.5215 42.8839 23.7338 45.3116 23.7418C47.6962 23.7497 53.4682 24.6348 53.9434 25.0655C54.1286 25.2333 54.5321 25.3715 54.8404 25.3726C55.236 25.374 57.8231 26.7374 57.8625 26.9652C57.8641 26.9739 59.2232 26.5721 60.883 26.0726ZM60.8724 28.2911C60.8731 28.1035 60.9933 27.9733 61.1397 28.0017C61.286 28.0302 61.6457 27.9703 61.9389 27.8687C62.6361 27.627 65.5773 27.2876 65.987 27.4014C66.1624 27.4502 66.4315 27.2029 66.5851 26.8521C66.8601 26.2238 66.8649 26.2242 66.887 26.8743C66.9065 27.4406 66.5684 27.5913 64.5121 27.9321C63.1935 28.1508 61.835 28.3977 61.4929 28.481C61.151 28.564 60.8718 28.4786 60.8724 28.2911ZM52.8722 27.9004C52.5485 27.4255 52.8553 27.2296 53.5455 27.4708C53.8648 27.5823 54.0371 27.802 53.9285 27.9589C53.6615 28.3449 53.156 28.3169 52.8722 27.9004ZM67.4895 27.3248C67.7324 27.1076 68.1461 27.1023 68.7141 27.3088C69.5201 27.6021 69.4979 27.6219 68.3471 27.6368C67.5065 27.6477 67.2375 27.5498 67.4895 27.3248Z" fill="black" stroke="black" stroke-width="44" mask="url(#path-2-inside-1)"/>
</g>
<defs>
<filter id="filter0_d" x="0.000137329" y="0.120117" width="114.358" height="158.254" filterUnits="userSpaceOnUse" color-interpolation-filters="sRGB">
<feFlood flood-opacity="0" result="BackgroundImageFix"/>
<feColorMatrix in="SourceAlpha" type="matrix" values="0 0 0 0 0 0 0 0 0 0 0 0 0 0 0 0 0 0 127 0"/>
<feOffset dy="4"/>
<feGaussianBlur stdDeviation="2"/>
<feColorMatrix type="matrix" values="0 0 0 0 0 0 0 0 0 0 0 0 0 0 0 0 0 0 0.25 0"/>
<feBlend mode="normal" in2="BackgroundImageFix" result="effect1_dropShadow"/>
<feBlend mode="normal" in="SourceGraphic" in2="effect1_dropShadow" result="shape"/>
</filter>
</defs>
</svg>
