<svg width="108" height="158" viewBox="0 0 108 158" fill="none" xmlns="http://www.w3.org/2000/svg">
<g filter="url(#filter0_d)">
<path d="M14.4197 149.502C11.5692 148.498 8.89892 146.722 7.14696 144.213C5.22747 141.434 4.20851 138.095 4.06466 134.725C3.8676 131.485 4.0845 128.172 5.22505 125.11C5.95676 122.988 7.14011 121.065 7.9121 118.961C9.50313 115.634 12.3204 113.045 15.4184 111.15C17.0206 110.228 18.706 109.457 20.3745 108.668C23.3827 107.466 26.6202 106.823 29.4225 105.126C31.5485 103.901 33.5649 102.151 34.3366 99.7304C36.0907 94.9003 37.4428 89.9336 38.7165 84.9568C38.9923 83.7263 39.6801 82.6319 39.8336 81.3697C40.2916 79.2972 40.7961 77.2214 41.6414 75.2701C42.5095 72.8459 43.3753 70.4085 43.9687 67.8993C43.969 66.728 43.5654 65.5893 43.3109 64.4528C42.3336 61.0033 41.6317 57.4806 40.5617 54.0569C39.5864 50.7781 38.5219 47.5238 37.7641 44.1837C37.0537 41.2039 36.1771 38.2666 35.5242 35.273C35.1663 34.1425 34.712 33.0439 34.4489 31.8815C33.8506 29.7027 33.4315 27.4513 32.495 25.3867C32.0756 23.9438 31.9335 22.4335 31.4838 20.9954C30.9946 19.0767 30.2928 17.2254 29.6448 15.3594C29.2139 13.8332 28.9932 12.249 28.4114 10.7652C27.7678 8.30793 27.6133 5.7382 27.6488 3.20543C27.6568 2.27065 27.8055 1.1582 28.7079 0.665985C29.6445 0.862478 30.2454 1.79155 30.853 2.47921C31.6724 3.56441 32.1166 4.87374 32.8037 6.04119C34.9636 10.3847 36.9411 14.8195 38.6978 19.3443C39.3558 20.9988 40.0289 22.6504 40.7702 24.2667C41.1743 25.9049 42.0879 27.3633 42.6883 28.933C43.5905 30.9531 44.2037 33.0928 45.1544 35.0906C46.1329 36.9042 46.626 38.9361 47.4036 40.8401C48.0876 42.496 48.8311 44.1276 49.4338 45.8177C49.7533 46.3388 49.9319 47.6623 50.4878 47.5916C51.2801 46.0111 51.5873 44.2402 52.1757 42.5795C53.1863 39.476 54.2054 36.3738 55.0426 33.2174C56.4941 28.7193 58.0171 24.2444 59.4177 19.7293C60.8118 15.4085 62.0789 11.0484 63.3988 6.70485C63.8635 5.18927 64.4398 3.69568 64.6984 2.1272C65.0305 1.34616 65.2218 0.102333 66.2283 0C67.374 0.0437983 67.963 1.23652 68.4164 2.13837C69.5741 4.79791 70.0204 7.7207 70.157 10.6044C70.0648 14.2921 69.4479 17.9463 68.7297 21.5569C68.327 23.4765 67.7692 25.3607 67.4688 27.302C67.2716 28.2474 66.7374 29.1002 66.7918 30.097C66.4881 31.7282 65.7959 33.2537 65.4172 34.8679C64.2482 39.2901 63.3008 43.7689 62.0932 48.1814C60.6521 53.6919 59.379 59.2456 57.9205 64.7513C57.5598 65.6978 57.9033 66.6302 58.3945 67.4458C59.8825 71.0109 61.2518 74.6263 62.6044 78.2453C63.5131 80.625 63.9362 83.1452 64.6325 85.5867C65.5074 88.4857 66.7606 91.2483 67.7506 94.1067C69.0044 96.8983 70.4874 99.5914 72.1594 102.151C73.0522 103.484 74.6493 104.036 76.0576 104.633C78.9412 105.74 82.0197 106.138 85.0193 106.8C87.22 107.234 89.5197 107.54 91.4612 108.761C94.083 110.358 96.1846 112.663 98.208 114.947C99.8276 116.78 100.713 119.096 101.568 121.356C103.86 124.563 104 130.419 104 133.951C103.932 136.191 103.45 138.455 102.284 140.387C101.149 142.571 99.6672 144.659 97.5497 145.97C96.1202 146.865 94.5519 147.709 92.8192 147.676C90.6712 147.712 88.4946 147.804 86.3725 147.413C85.1469 146.853 83.8052 146.516 82.7237 145.67C80.0727 143.718 77.7479 141.282 75.978 138.492C75.3103 137.23 74.519 136.042 73.7826 134.824C73.2312 133.73 73.0397 132.492 72.456 131.407C71.5958 129.45 71.3874 127.283 71.0676 125.187C70.8955 123.805 70.6698 122.42 70.531 121.04C71.2196 118.407 71.6055 115.621 73.0717 113.278C73.4706 112.559 74.9874 111.651 73.7431 110.933C72.4942 110.15 71.0437 109.714 69.9115 108.734C67.7124 107.028 66.0607 104.682 65.0125 102.105C64.011 99.8596 62.9385 97.6389 62.0713 95.3377C61.74 94.2786 60.9214 93.4518 60.2853 92.5652C57.8868 89.6107 55.3587 86.7434 52.5466 84.1802C51.9228 83.4039 50.9709 83.0938 50.3064 83.9879C48.3549 85.6454 46.4978 87.426 44.7905 89.3382C43.3494 92.3816 42.16 96.1721 41.2006 98.9016C40.7536 100.537 40.4067 102.214 39.6059 103.725C38.4096 106.146 37.0687 108.535 35.2795 110.565C34.6449 111.268 33.5997 111.271 32.9383 111.979C32.3932 112.482 31.1377 113.158 31.9112 114.004C32.6082 114.943 33.5475 115.689 34.1082 116.738C34.9999 118.098 35.4223 119.683 35.6832 121.273C36.0327 122.905 36.5397 124.528 36.4537 126.218C36.3418 130.633 34.9807 134.934 33.1301 138.905C31.2968 142.7 28.823 146.455 25.0522 148.522C22.7347 149.859 19.9673 150.063 17.3526 149.986C16.3628 149.931 15.3665 149.811 14.42 149.502L14.4197 149.502ZM21.2281 147.552C24.3857 146.688 27.1357 144.593 29.1251 142.012C30.4201 140.081 31.5864 138.044 32.4647 135.885C32.7873 134.233 33.6955 132.759 33.9856 131.093C34.469 128.867 34.7878 126.568 34.4594 124.295C34.2563 122.64 34.1219 120.923 33.3462 119.42C33.1216 118.286 32.2815 117.418 31.6575 116.483C31.1581 115.716 30.3512 115.179 30.1004 114.26C29.7528 113.363 29.1611 112.145 30.1342 111.413C31.1646 110.274 32.7597 109.937 33.8244 108.837C36.1249 106.746 37.534 103.882 38.58 100.992C38.8017 99.8602 39.4004 98.8468 39.6756 97.7262C40.6075 94.6889 41.3615 91.5928 42.491 88.6202C42.8528 87.6109 42.7272 86.3982 42.1137 85.5331C41.5261 86.1797 41.4197 87.1919 41.0858 88.0105C40.4859 89.8225 39.956 91.6604 39.5884 93.5345C39.3304 94.6475 38.6027 95.6127 38.5592 96.7809C37.9745 98.857 37.1643 100.868 36.2822 102.832C34.9801 104.929 33.108 106.605 31.1996 108.131C30.3263 108.779 29.4023 109.47 28.3009 109.614C27.8512 110.57 26.7754 110.366 26.0145 110.873C25.3811 111.526 24.4528 111.539 23.6862 111.857C22.3469 112.054 20.9111 111.708 19.6396 112.271C18.8068 112.681 19.3194 113.165 20.0663 112.927C21.5456 112.82 23.0935 112.651 24.4951 113.27C26.2587 113.966 28.1642 114.628 29.3885 116.175C31.2761 118.276 32.7765 120.863 33.1796 123.7C33.0577 124.647 33.5331 125.522 33.7659 126.315C33.0885 127.068 33.652 128.201 33.1615 129.089C32.6881 130.453 32.6708 131.904 32.4868 133.318C32.1696 134.781 31.8249 136.296 31.0291 137.577C30.103 138.379 29.7663 139.621 29.13 140.629C28.2181 141.192 27.4033 141.945 26.5723 142.641C25.8343 143.461 24.613 143.492 23.8832 144.256C23.0934 144.785 22.0508 144.788 21.1368 144.989C19.2543 145.149 17.3497 145.145 15.4717 144.939C14.4364 144.596 13.6289 143.778 12.5736 143.503C10.7639 142.09 9.60012 140.062 8.33524 138.185C7.66809 137.634 7.39959 136.859 7.36168 135.988C7.09646 133.625 7.04465 131.222 7.39319 128.865C7.59914 127.918 6.85074 127.91 6.7879 128.81C6.34841 130.932 6.21682 133.118 6.23146 135.283C6.34004 136.151 6.7812 136.946 6.99265 137.796C7.52078 139.401 7.89661 141.115 8.8831 142.513C9.76761 143.266 10.0215 144.62 11.2851 144.922C12.1545 145.437 12.8566 146.201 13.7408 146.709C14.695 147.436 15.8656 147.816 17.0603 147.806C18.4499 147.867 19.8622 147.835 21.2281 147.551L21.2281 147.552ZM93.5111 145.276C97.3235 144.154 100.6 141.014 101.459 137.045C102.567 132.378 101.751 127.459 100.169 123.003C99.5352 121.256 98.8881 119.494 97.8209 117.958C95.6646 114.671 92.7411 111.781 89.1423 110.153C87.2975 109.446 85.3758 108.951 83.4617 108.471C82.0482 108.129 80.574 108.321 79.1551 107.995C78.0688 107.758 76.8827 107.611 75.9708 106.929C75.5076 106.024 75.1285 107.387 74.535 106.662C73.9091 106.308 72.9436 105.247 72.2909 106.034C71.8235 106.787 72.216 108.046 73.2326 107.935C73.8166 107.985 73.9598 108.767 74.6531 108.389C75.4098 108.62 76.0232 109.261 76.8979 108.934C76.588 110.044 78.0835 109.729 78.8025 109.791C81.2592 109.838 83.7355 109.699 86.1734 110.062C88.5604 110.562 90.616 112.004 92.5326 113.454C94.8921 115.238 96.4822 117.812 98.0104 120.304C98.6498 121.495 99.4659 122.689 99.5391 124.082C99.8715 125.418 100.555 126.65 100.767 128.025C101.272 130.223 101.088 132.522 100.719 134.727C100.725 135.733 99.5425 136.224 100.062 137.284C100.408 138.236 98.7421 137.756 99.3388 138.789C99.1436 139.991 98.3224 141.039 97.3781 141.761C96.7114 142.035 95.8544 141.87 95.6493 142.831C95.0973 143.418 94.0224 142.901 93.6738 143.813C92.8438 144.426 92.1255 143.687 91.4294 143.399C90.4188 143.087 90.2458 145.101 89.3835 144.267C88.6183 143.987 87.7111 144.196 86.9995 143.633C85.5467 142.923 84.1397 142.119 82.8629 141.118C81.5207 140.15 80.2799 139.03 79.3336 137.657C78.2703 136.187 77.1619 134.723 76.3726 133.08C75.9091 130.945 74.552 129.08 74.3911 126.86C74.1481 124.941 74.2718 122.969 73.7917 121.085C73.3113 121.078 73.5207 122.578 73.4287 123.156C73.3498 124.645 73.372 126.144 73.7222 127.6C74.0092 128.94 74.161 130.309 74.4674 131.643C74.8529 132.431 75.5337 132.978 75.518 133.954C76.4901 136.187 77.9066 138.192 79.3231 140.157C80.6597 141.658 82.1918 142.988 83.8296 144.144C84.5687 144.488 85.4033 144.631 86.1288 145.043C88.4001 146.078 91.0217 146.075 93.3731 145.318L93.5111 145.276ZM90.9271 144.354C91.1591 143.441 92.047 144.788 91.121 144.649C91.0061 144.601 90.9253 144.48 90.9271 144.354ZM24.1719 140.674C26.8587 138.887 29.0295 136.286 30.1044 133.21C31.4044 129.639 31.991 125.618 30.74 121.945C30.0603 119.744 28.7918 117.604 26.7261 116.478C24.5175 115.27 21.8746 114.37 19.3682 115.121C17.2704 115.761 15.4645 117.141 13.9319 118.684C12.0264 120.761 11.0602 123.481 10.0406 126.065C9.18633 128.28 9.16009 130.699 9.15131 133.041C9.19847 134.8 9.91603 136.44 10.5191 138.062C10.9757 139.387 12.0584 140.325 13.2203 141.022C14.6563 142.033 16.3716 142.658 18.1393 142.579C19.6866 142.534 21.371 142.619 22.694 141.664C23.1972 141.35 23.6838 141.01 24.1722 140.674L24.1719 140.674ZM92.8322 141.325C93.7208 140.823 94.6815 140.402 95.3453 139.587C96.6209 138.215 97.8406 136.652 98.1719 134.752C99.2389 130.583 98.3332 126.152 96.5756 122.309C95.8236 120.785 95.2837 119.12 94.1265 117.841C92.1729 115.536 89.9236 113.247 86.9727 112.332C85.5976 112 84.1621 111.771 82.7461 111.871C81.3912 112.216 80.2391 113.109 79.1851 114.004C77.0733 115.778 76.255 118.604 75.8668 121.246C75.5614 123.502 75.679 125.86 76.5605 127.981C77.051 129.202 77.0246 130.581 77.6399 131.753C79.0206 133.654 80.0245 135.83 81.659 137.544C83.8996 140.053 87.0938 142 90.5439 141.775C91.314 141.719 92.1273 141.671 92.8322 141.326L92.8322 141.325ZM74.5721 117.757C74.9108 117.2 74.3777 115.912 74.1149 117.064C74.1276 117.879 73.7702 118.741 73.9611 119.522C74.3791 119.09 74.4252 118.328 74.5721 117.757ZM14.1388 115.996C14.5695 115.809 15.0787 114.613 14.2292 115.243C13.4966 115.822 12.6859 116.436 12.2854 117.299C12.8554 117.467 13.6118 116.335 14.1388 115.996H14.1388ZM17.3749 113.835C17.8955 113.681 18.7965 112.945 17.6806 113.223C17.1673 113.333 15.5808 113.724 16.0737 114.323C16.5373 114.271 16.9614 114.038 17.3749 113.835ZM77.9274 112.565C78.519 111.796 79.4781 111.333 80.1471 110.808C79.5735 110 78.359 111.189 77.738 111.58C77.0052 112.251 76.155 112.933 75.7443 113.853C76.5398 114.319 77.3223 112.985 77.9274 112.565ZM75.3905 113.026C75.1862 112.396 74.3051 113.614 75.1965 113.337C75.3153 113.284 75.3921 113.155 75.3905 113.026ZM71.1846 106.016C71.192 105.557 69.9059 104.815 70.8721 104.615C71.0671 103.483 69.6557 102.809 69.6726 101.669C69.2979 100.703 68.0266 100.371 67.899 99.2348C67.4127 97.9137 66.5241 96.7899 66.0778 95.4482C64.9579 92.6501 64.1639 89.7327 63.1036 86.9137C62.6777 85.0002 62.2899 83.0567 61.5232 81.2442C61.0382 81.0575 60.89 82.4954 60.6475 82.9342C60.4376 83.9346 59.8634 84.8112 59.544 85.7394C59.6973 87.094 60.9774 87.8586 61.6591 88.9361C63.5744 91.6394 65.1184 94.599 66.326 97.6869C67.0678 99.2547 67.6555 100.886 68.251 102.513C68.6996 103.215 69.2846 103.849 69.6264 104.63C70.0812 105.216 69.7744 106.793 70.9089 106.073L71.0745 106.031L71.1846 106.016L71.1846 106.016ZM59.218 84.931C58.986 84.0173 58.098 85.3648 59.024 85.2252C59.1389 85.1774 59.2197 85.0568 59.218 84.931ZM44.1434 83.3336C44.702 83.182 44.4303 81.6553 45.3085 82.439C45.4969 82.7326 45.82 84.2564 46.0348 83.2622C45.7441 82.688 46.1153 82.0806 46.6941 82.653C47.2299 83.2216 48.974 83.8579 48.9192 82.5725C48.915 81.9485 48.2898 80.8557 48.9962 80.5141C49.1636 80.8777 49.9213 81.9553 49.9927 81.0309C49.6176 80.2439 48.7693 79.8117 48.3901 79.0105C47.8599 78.033 47.254 77.0475 46.3626 76.3648C45.4199 76.4932 46.5418 77.9003 46.9972 78.2561C46.9489 79.0441 47.7627 79.8223 47.5145 80.5325C46.6361 80.762 45.6523 80.7083 44.7711 80.498C44.0531 80.0012 43.3366 78.9544 43.6208 78.0605C43.9942 77.7374 44.4041 76.3827 43.5296 76.9513C42.9641 77.62 42.0459 78.6113 42.2105 79.4555C43.2671 79.0956 44.1482 80.0797 43.4694 81.06C42.5359 81.5008 42.6571 82.6281 43.05 83.4388C43.2456 84.249 43.5826 84.2553 43.8099 83.4978L43.9709 83.3777L44.1434 83.3336ZM56.5124 83.5732C57.0231 81.5986 57.5195 79.5634 58.6088 77.8212C58.89 77.9138 59.0216 79.4979 59.5619 78.4764C59.8098 77.4293 60.4251 76.2608 59.7432 75.2436C59.5429 74.5455 58.7313 74.0307 58.454 74.9899C57.931 75.7922 57.6705 76.7272 57.2781 77.5848C56.3377 78.5582 56.3202 76.8865 56.7312 76.3265C57.2646 74.7017 58.5253 73.1545 58.0916 71.3499C57.7514 69.8952 57.0429 68.5697 56.4704 67.2001C55.906 68.2869 55.238 69.3497 55.0669 70.5875C55.1277 71.2352 54.1604 72.4651 53.9758 71.2821C54.3171 69.7167 54.9719 68.2085 55.8772 66.892C56.5809 65.9154 55.7478 65.0797 55.4477 64.2018C55.3944 62.9591 55.1037 61.5548 54.085 60.7426C53.3539 60.0226 54.2501 58.4739 54.9118 59.7239C55.1848 60.5032 55.3047 61.3647 55.8537 62.0369C56.0384 62.5076 56.8335 63.0825 56.6121 62.1447C56.2137 60.2889 55.091 58.6985 54.5325 56.9005C54.2853 56.0876 55.5485 55.8859 55.2782 54.9693C55.3995 53.52 56.4874 55.062 56.6447 55.6857C56.9114 56.4636 57.8964 57.6365 58.1311 56.1478C59.1684 53.1928 59.903 50.1317 60.4535 47.0487C60.6173 46.2145 60.8528 45.0085 59.7519 44.8344C59.9952 43.8635 59.2804 43.1831 58.8901 42.3745C58.654 41.6486 58.0598 40.6651 58.6899 40.0232C58.6922 39.5901 58.4247 38.5254 59.1792 39.1666C60.1383 39.9201 60.7306 41.0904 61.8086 41.6938C62.502 41.2145 62.3695 40.0364 62.5877 39.2532C62.975 36.9624 63.4206 34.6824 63.8496 32.3993C62.6893 30.6499 61.6188 28.8315 60.3254 27.1787C60.3098 27.7976 61.4072 29.2476 60.0156 29.1051C59.5994 29.76 60.8676 30.3093 60.6085 31.1477C60.3245 32.0816 59.4787 30.3969 59.2439 30.0073C58.9792 29.5763 58.406 28.4578 58.1367 29.4917C57.2652 31.4601 56.6829 33.5398 55.9808 35.5724C56.3007 36.5905 56.8168 37.5712 56.8906 38.6475C56.5837 39.4773 55.5357 37.4384 55.415 38.4397C55.5564 39.7101 56.3266 40.8626 56.2672 42.1586C55.6224 42.1703 55.5879 40.6756 54.9376 40.3127C53.9651 40.1576 54.7406 41.806 55.0463 42.2823C55.3612 43.1526 56.1506 43.404 56.9652 43.3553C57.3369 43.5134 58.308 44.7499 57.6982 44.7888C57.288 44.4575 56.1529 43.2832 56.253 44.549C56.2151 45.1592 57.4029 46.5428 56.4481 46.713C56.302 46.217 55.5562 45.1802 55.2625 46.1703C55.1368 47.4255 53.7786 46.2141 53.6894 45.5153C53.4772 44.7912 52.5857 44.5378 52.9615 45.5439C53.0476 46.3811 53.9645 47.3609 53.3849 48.1415C52.8267 48.1111 52.3631 46.8166 52.0484 47.9177C51.6519 48.93 50.9953 50.0723 51.5619 51.1554C52.1384 52.3316 52.6044 53.5559 52.9798 54.8104C53.3204 55.8782 54.3235 56.7943 54.0764 57.9954C53.6165 58.7399 52.5463 58.985 52.2993 59.9629L51.7806 61.1301C51.663 60.4725 51.7828 59.7048 51.3519 59.1583C50.4556 59.3 49.5636 59.7413 48.6704 59.9964C47.8911 60.1723 46.7113 60.8387 47.6112 61.6764C47.7185 62.4944 47.3861 63.7885 48.568 63.9696C49.3056 63.6521 50.0961 63.3311 50.9351 63.3481C51.8828 63.2043 52.6792 64.128 53.6082 63.5425C54.5704 63.0009 55.2667 64.1262 54.4283 64.8054C53.6553 65.4859 53.0447 67.0402 53.9859 67.7947C55.0262 68.1739 54.0885 69.8021 53.3278 68.9365C52.132 69.1394 51.0613 69.7912 49.9923 70.3382C48.8522 70.7635 49.9477 72.0969 49.3601 72.7507C48.126 73.1145 48.2319 71.1216 48.8766 70.5996C49.2942 70.2764 49.001 69.1519 48.6115 69.9882C48.0318 71.0306 47.7771 72.2095 47.3994 73.3332C48.7108 75.659 49.8138 78.1792 51.7826 80.0355C52.0378 80.3512 52.2647 80.5761 52.2449 80.0116C52.4296 78.6209 52.8403 77.2667 52.9759 75.8715C52.8846 75.3219 52.128 74.6672 53.095 74.3571C54.1612 74.0662 54.5506 72.872 55.0681 72.0089C55.2964 71.0106 56.0168 71.895 55.4116 72.404C54.7774 73.6055 54.4716 75.008 54.7 76.3593C54.7865 77.3502 53.8202 78.0366 53.9298 79.0308C54.0436 79.9006 54.153 80.8197 53.8003 81.6541C53.6062 82.6426 54.6341 83.271 55.2286 83.8926C55.7124 84.3952 56.4007 84.363 56.5125 83.573L56.5124 83.5732ZM50.656 73.4666C51.0866 72.7086 52.0514 72.3894 52.3951 71.532C52.5183 71.1108 53.3293 69.6066 53.3776 70.7218C53.1686 71.5818 53.0897 72.4644 53.0543 73.3459C52.5962 74.0337 51.2791 73.8037 50.656 73.4665V73.4666ZM52.5587 61.4685C52.4941 60.1946 53.949 61.2495 53.1482 61.8441C52.8643 62.0746 52.5142 61.8033 52.5587 61.4685ZM57.1908 52.1589C56.8163 51.6411 57.2471 50.9852 57.6583 51.7113C58.3712 52.2171 58.0152 53.1559 57.3006 52.3551L57.2385 52.2604L57.1908 52.1589ZM52.5732 50.2858C51.8067 49.6594 52.9293 48.0588 53.3172 49.3845C53.6021 49.9398 53.3106 51.1396 52.5732 50.2858ZM56.0581 50.1294C55.6358 49.6693 55.5585 47.8421 56.4197 48.8888C56.8888 49.2564 57.4098 51.0454 56.3779 50.5684C56.2452 50.4437 56.1438 50.2893 56.058 50.1294H56.0581ZM57.4006 48.8305C56.8826 48.1548 57.4649 47.4473 57.8341 48.3928C58.0554 48.7928 57.717 49.9221 57.4514 48.9525L57.4006 48.8305ZM58.693 48.0296C58.0173 47.2235 59.1248 46.5191 59.4 47.5874C59.7785 48.1392 59.3618 49.4106 58.8516 48.3387L58.7727 48.1936L58.693 48.0296ZM57.791 45.6358C57.6609 44.6544 59.1582 46.2918 58.0226 45.8614L57.8921 45.7599L57.791 45.6358ZM59.7945 34.9335C59.7582 33.9837 57.6289 34.2994 58.5412 33.3626C59.0122 32.966 58.1479 31.0574 59.1262 31.9317C59.9497 33.0082 60.5142 34.2568 61.0678 35.4886C60.7855 36.1601 59.9174 35.3601 59.7945 34.9335V34.9335ZM62.2834 33.2829C61.8743 32.8646 62.0707 31.8437 62.6432 32.6231C63.2874 33.0279 62.9725 33.9011 62.2834 33.2829ZM61.4378 31.7388C61.7842 31.1869 60.2532 29.8885 61.4208 30.0384C61.9396 30.3313 62.5076 32.2276 61.4628 31.8008L61.4378 31.7388L61.4378 31.7388ZM58.3567 82.6115C58.4372 81.7434 59.2412 81.413 59.4589 81.868C58.955 81.0983 59.4192 79.7794 58.8729 79.2373C58.235 80.1835 58.209 81.3995 57.7523 82.4351C57.561 82.7716 56.9539 84.1189 57.6901 83.8612C57.9742 83.4826 58.1693 83.0443 58.3567 82.6116L58.3567 82.6115ZM45.5722 74.4683C45.4699 74.0293 44.8044 72.9465 44.4149 73.3114C44.4337 73.686 45.2075 75.2462 45.5722 74.4683ZM47.163 67.9291C46.7633 66.6357 45.5226 69.0099 46.6621 69.1085C47.0304 68.8566 47.1444 68.351 47.163 67.9291ZM48.5948 68.9573C47.5953 67.805 48.4398 70.1945 48.5948 68.9573V68.9573ZM52.2063 68.1217C51.5024 67.6228 50.5635 67.2675 49.9508 66.5586C48.7042 65.9419 49.0897 67.6498 49.7005 68.1075C50.3338 68.8501 51.4371 68.3182 52.2063 68.1217H52.2063ZM48.3906 64.9676C48.593 63.9075 47.5306 65.4479 46.9992 65.0499C45.6305 65.9082 48.5085 65.8744 48.3906 64.9676ZM51.8648 65.2073C51.7351 64.2709 50.2282 64.4561 50.0416 65.1897C50.4178 65.6443 51.8461 66.2195 51.8648 65.2073ZM46.5113 63.1571C45.8052 62.9646 44.5532 63.9449 45.9101 64.2567C46.3502 64.21 46.3726 63.4826 46.5113 63.1571ZM47.1678 62.0699C46.6847 61.4335 46.2169 62.8603 46.9738 62.3205C47.048 62.2497 47.1485 62.1799 47.1678 62.0699ZM45.0446 60.9524C45.4576 59.6572 43.5379 61.7707 44.7162 61.5577C44.8914 61.4007 44.983 61.1745 45.0446 60.9524ZM56.7391 59.943C55.8467 59.2482 56.8627 61.2694 56.956 60.2585L56.8719 60.1028L56.7391 59.943ZM57.1459 58.3099C57.1718 57.4354 56.26 56.4677 55.4987 57.3047C55.8885 57.4413 56.673 57.984 56.7307 58.7236C56.7909 59.2047 57.3879 59.9984 57.2484 59.0222C57.2275 58.783 57.1895 58.5458 57.1459 58.3099ZM50.3387 57.835C51.1372 57.4499 52.3885 56.8987 51.8911 55.7817C51.6297 55.0218 51.3924 54.0983 50.7169 53.6228C50.0791 54.4157 50.0353 55.5355 49.6044 56.4495C49.6485 57.198 47.9434 58.0234 48.4904 56.7932C48.9058 55.8198 49.5437 54.9238 49.7437 53.8687C50.1807 53.3512 50.9024 52.9428 50.306 52.1744C49.3616 50.0698 48.7761 47.8004 47.6464 45.7834C46.9856 45.6326 46.6668 47.0538 46.2469 47.6061C45.8148 48.3641 45.4764 49.2797 44.7097 49.7577C43.4499 49.7075 43.8025 51.1469 44.0547 51.918C44.3638 53.0679 44.6502 54.2462 45.2077 55.3037C45.8464 55.8377 45.2437 57.5069 46.5525 57.1027C47.6493 56.7769 46.0485 55.6496 46.7855 54.9014C47.0168 54.0476 48.2517 54.4489 48.2587 53.4484C48.8333 52.6718 49.3222 53.551 48.8698 54.1036C48.5219 54.8514 48.1169 55.602 48.0849 56.4472C47.7839 57.1776 46.7379 57.6823 46.9997 58.6099C47.997 58.9796 49.0457 58.3642 49.9704 58.0137L50.1567 57.9256L50.339 57.8351L50.3387 57.835ZM45.7518 53.641C45.5712 52.7841 46.3182 52.0663 46.505 51.2556C46.5579 50.698 47.436 49.4745 47.4741 50.6813C47.3908 51.7539 47.0218 52.8567 46.3221 53.6808C46.1723 53.8637 45.8575 53.8853 45.7518 53.6409V53.641ZM44.1551 57.4565C44.1502 56.5355 42.6928 57.785 43.7921 57.7508C43.9401 57.6952 44.0698 57.5906 44.1551 57.4565ZM44.1159 48.7162C44.4552 47.8467 45.1073 47.1709 45.6939 46.476C45.4802 46.1489 45.1521 45.6155 45.2028 45.0512C44.8933 45.365 44.1174 46.4636 44.3726 45.3263C44.5991 44.6384 45.9939 44.4518 45.1399 43.6158C45.0613 42.1696 46.9189 43.8792 46.1813 44.6106C45.8397 45.0681 46.0503 46.0165 46.6375 45.3421C47.6109 44.6716 46.7608 43.5407 46.4708 42.7273C46.3025 41.9974 45.2973 40.9935 44.9744 42.2164C44.7062 42.78 44.367 44.0843 43.6099 43.787C43.7334 42.2108 45.1805 40.9583 44.962 39.3233C44.9312 38.5178 44.0949 37.0569 43.2772 38.0863C42.7667 38.5146 42.6312 40.0022 41.903 39.7681C42.2329 38.9048 42.5777 37.9491 42.6468 37.0291C41.8488 37.6233 41.7717 38.8846 40.8872 39.41C40.2478 38.6711 41.5339 37.9525 41.7519 37.2889C41.7798 36.207 42.5037 35.3327 42.7676 34.3208C42.8433 33.512 41.8215 33.576 41.9298 34.3931C41.6115 35.2753 40.7355 33.8162 41.5644 33.5632C42.4062 32.6691 40.2078 32.9948 40.9652 32.0393C41.51 31.9571 41.9917 31.6963 41.6176 31.0667C41.2728 30.2719 41.1376 29.2203 40.3879 28.713C40.1736 29.4724 39.8886 30.3235 39.4491 31.07C39.1378 31.8508 38.8983 32.6577 38.6277 33.4531C40.0284 38.4908 41.5552 43.496 42.7663 48.5846C42.6621 49.2634 43.285 50.2985 43.8042 49.3189C43.9292 49.1298 44.0288 48.9251 44.1159 48.716L44.1159 48.7162ZM41.3013 47.5529C40.3017 46.4005 41.1462 48.7901 41.3013 47.5529V47.5529ZM54.4613 43.3997C54.5893 42.2397 53.1017 43.0249 53.8168 43.7622C54.1441 44.3482 54.5037 43.8661 54.4613 43.3997ZM39.5572 41.464C39.3529 40.8342 38.4718 42.0523 39.3632 41.7757C39.4819 41.7226 39.5588 41.5938 39.5572 41.464ZM65.111 28.7041C65.6004 26.3293 66.327 24.0129 66.8749 21.654C67.0978 20.3289 66.4755 19.0233 65.7777 17.9376C65.5252 17.4124 65.3194 17.6051 65.0648 17.7046C64.6032 17.0614 62.6851 16.3951 63.0259 17.7717C63.5311 18.3471 63.038 19.2765 62.5596 18.3763C62.5096 17.7573 61.7597 17.3401 61.9101 18.251C62.4393 19.0647 62.857 20.0286 62.6703 21.0347C62.1621 22.1345 61.5482 19.6871 61.0315 20.3062C60.7374 21.3604 61.4428 22.3971 61.8101 23.3575C62.0406 23.8547 62.864 25.4729 61.7332 25.0828C61.0205 24.5212 61.0011 23.3852 60.3399 22.8637C60.0846 23.6815 60.6432 24.5494 60.837 25.354C61.4088 26.8814 61.9317 28.4684 62.9035 29.7931C63.0801 30.4097 64.0241 32.3632 64.5225 31.0502C64.7835 30.2867 64.9343 29.4902 65.111 28.704L65.111 28.7041ZM39.0523 29.982C39.1393 29.025 40.1493 28.5201 40.1696 27.6762C39.5231 26.7347 39.306 29.6727 38.7558 28.1999C38.6549 27.3009 39.0204 26.3785 38.4068 25.677C38.2817 24.457 38.4917 23.1869 38.0079 22.0189C37.0309 19.6632 35.8763 17.3689 35.1349 14.9203C34.9531 13.8937 34.0518 13.1951 33.6376 12.2638C33.0984 11.3891 32.6986 10.431 32.1238 9.57997C31.9749 10.2418 32.4143 11.2502 32.5747 12.0348C33.7962 16.1386 34.9417 20.2649 36.1286 24.3789C36.7981 26.46 37.3601 28.5732 37.865 30.6998C37.9425 31.1771 38.3245 32.0153 38.5844 31.1101C38.7641 30.7446 38.9147 30.3652 39.0525 29.9819L39.0523 29.982ZM59.3523 27.6335C58.9581 26.7501 58.4386 27.8005 59.0945 28.1189C59.5731 28.5896 59.4961 27.9172 59.3523 27.6335ZM59.9119 25.7596C59.0165 25.0631 60.0396 27.0887 60.1288 26.0751L60.0447 25.9194L59.9119 25.7596ZM67.7572 16.7983C68.2831 14.6655 68.2112 12.4374 68.1836 10.2542C68.0827 7.97361 68.0107 5.57307 66.902 3.52002C66.1875 2.91678 65.8984 4.57292 65.9264 5.09121C65.8903 6.66863 66.3761 8.20977 67.1285 9.57915C67.6656 10.0954 67.3406 11.4549 66.7959 10.3298C66.2781 9.47909 66.0587 8.46373 65.4566 7.66612C65.345 8.39209 65.8019 9.28797 66.0807 10.0243C66.5589 10.5326 66.8113 11.8589 66.0102 12.0689C65.2277 11.5572 65.3392 10.3636 64.5788 9.8554C64.2282 10.4006 65.6203 11.6842 64.2933 11.932C63.0346 12.2583 64.3191 13.4059 64.7645 13.9261C65.7343 15.056 66.199 16.5003 67.0267 17.7181C67.3694 18.1655 67.6556 16.9711 67.7571 16.7986L67.7572 16.7983Z" fill="black"/>
</g>
<defs>
<filter id="filter0_d" x="0" y="0" width="108" height="158" filterUnits="userSpaceOnUse" color-interpolation-filters="sRGB">
<feFlood flood-opacity="0" result="BackgroundImageFix"/>
<feColorMatrix in="SourceAlpha" type="matrix" values="0 0 0 0 0 0 0 0 0 0 0 0 0 0 0 0 0 0 127 0"/>
<feOffset dy="4"/>
<feGaussianBlur stdDeviation="2"/>
<feColorMatrix type="matrix" values="0 0 0 0 0 0 0 0 0 0 0 0 0 0 0 0 0 0 0.25 0"/>
<feBlend mode="normal" in2="BackgroundImageFix" result="effect1_dropShadow"/>
<feBlend mode="normal" in="SourceGraphic" in2="effect1_dropShadow" result="shape"/>
</filter>
</defs>
</svg>
